SplineFontDB: 3.2
FontName: IRKamran
FullName: IRKamran
FamilyName: IRKamran
Weight: Book
Copyright: Copyright (c) 2022, Information Technology Organization of Iran (ito.gov.ir)
Version: 1.001
ItalicAngle: 0
UnderlinePosition: -100
UnderlineWidth: 60
Ascent: 1638
Descent: 410
InvalidEm: 0
sfntRevision: 0x00010042
LayerCount: 2
Layer: 0 1 "Back" 1
Layer: 1 1 "Fore" 0
XUID: [1021 420 722297922 8800644]
StyleMap: 0x0040
FSType: 0
OS2Version: 3
OS2_WeightWidthSlopeOnly: 0
OS2_UseTypoMetrics: 0
CreationTime: 1356495246
ModificationTime: 1662627631
PfmFamily: 17
TTFWeight: 400
TTFWidth: 5
LineGap: 100
VLineGap: 0
Panose: 2 0 5 3 0 0 0 2 0 2
OS2TypoAscent: 1465
OS2TypoAOffset: 0
OS2TypoDescent: -943
OS2TypoDOffset: 0
OS2TypoLinegap: 1500
OS2WinAscent: 1465
OS2WinAOffset: 0
OS2WinDescent: 943
OS2WinDOffset: 0
HheadAscent: 1465
HheadAOffset: 0
HheadDescent: -943
HheadDOffset: 0
OS2SubXSize: 1434
OS2SubYSize: 1331
OS2SubXOff: 0
OS2SubYOff: 293
OS2SupXSize: 1434
OS2SupYSize: 1331
OS2SupXOff: 0
OS2SupYOff: 930
OS2StrikeYSize: 50
OS2StrikeYPos: 250
OS2CapHeight: 1453
OS2XHeight: 594
OS2FamilyClass: 2048
OS2Vendor: 'PARS'
OS2CodePages: 20000041.00000000
OS2UnicodeRanges: 00002003.00000000.00000000.00000000
Lookup: 1 1 0 "'isol' Isolated Forms in Arabic lookup 0" { "'isol' Isolated Forms in Arabic lookup 0 subtable"  } ['isol' ('arab' <'dflt' > ) ]
Lookup: 1 1 0 "'init' Initial Forms in Arabic lookup 1" { "'init' Initial Forms in Arabic lookup 1 subtable"  } ['init' ('arab' <'dflt' > ) ]
Lookup: 1 1 0 "'fina' Terminal Forms in Arabic lookup 2" { "'fina' Terminal Forms in Arabic lookup 2 subtable"  } ['fina' ('arab' <'dflt' > ) ]
Lookup: 1 1 0 "'medi' Medial Forms in Arabic lookup 3" { "'medi' Medial Forms in Arabic lookup 3 subtable"  } ['medi' ('arab' <'dflt' > ) ]
Lookup: 4 1 0 "'ccmp' Glyph Composition/Decomposition in Arabic lookup 4" { "'ccmp' Glyph Composition/Decomposition in Arabic lookup 4 subtable"  } ['ccmp' ('arab' <'dflt' > ) ]

StartChar: quotedbl
Encoding: 34 34 4
Width: 581
Flags: W
LayerCount: 2
Fore
SplineSet
159 690 m 1,0,1
 155 707 155 707 152 720 c 128,-1,2
 149 733 149 733 148 739 c 0,3,4
 132 802 132 802 123 847 c 128,-1,5
 114 892 114 892 114 908 c 0,6,7
 114 941 114 941 132 960.5 c 128,-1,8
 150 980 150 980 179 980 c 0,9,10
 193 980 193 980 205 975 c 128,-1,11
 217 970 217 970 226 961 c 128,-1,12
 235 952 235 952 239.5 939.5 c 128,-1,13
 244 927 244 927 244 912 c 0,14,15
 244 904 244 904 242 889 c 128,-1,16
 240 874 240 874 235 848.5 c 128,-1,17
 230 823 230 823 221.5 784.5 c 128,-1,18
 213 746 213 746 200 690 c 1,19,-1
 159 690 l 1,0,1
379 690 m 1,20,21
 375 707 375 707 372 720 c 128,-1,22
 369 733 369 733 368 739 c 0,23,24
 352 802 352 802 343 847 c 128,-1,25
 334 892 334 892 334 908 c 0,26,27
 334 941 334 941 352 960.5 c 128,-1,28
 370 980 370 980 399 980 c 0,29,30
 413 980 413 980 425 975 c 128,-1,31
 437 970 437 970 446 961 c 128,-1,32
 455 952 455 952 459.5 939.5 c 128,-1,33
 464 927 464 927 464 912 c 0,34,35
 464 904 464 904 462 889 c 128,-1,36
 460 874 460 874 455 848.5 c 128,-1,37
 450 823 450 823 441.5 784.5 c 128,-1,38
 433 746 433 746 420 690 c 1,39,-1
 379 690 l 1,20,21
EndSplineSet
EndChar

StartChar: quotesingle
Encoding: 39 39 5
Width: 321
Flags: W
LayerCount: 2
Fore
SplineSet
142 690 m 1,0,1
 138 707 138 707 135 720 c 128,-1,2
 132 733 132 733 131 739 c 0,3,4
 115 802 115 802 106 847 c 128,-1,5
 97 892 97 892 97 908 c 0,6,7
 97 941 97 941 115 960.5 c 128,-1,8
 133 980 133 980 162 980 c 0,9,10
 176 980 176 980 188 975 c 128,-1,11
 200 970 200 970 209 961 c 128,-1,12
 218 952 218 952 222.5 939.5 c 128,-1,13
 227 927 227 927 227 912 c 0,14,15
 227 904 227 904 225 889 c 128,-1,16
 223 874 223 874 218 848.5 c 128,-1,17
 213 823 213 823 204.5 784.5 c 128,-1,18
 196 746 196 746 183 690 c 1,19,-1
 142 690 l 1,0,1
EndSplineSet
EndChar

StartChar: asterisk
Encoding: 42 42 6
Width: 1126
Flags: W
LayerCount: 2
Fore
SplineSet
568 347 m 1,0,-1
 574 687 l 1,1,-1
 355 467 l 1,2,-1
 250 467 l 1,3,-1
 527 746 l 1,4,-1
 203 746 l 1,5,-1
 223 839 l 1,6,-1
 547 839 l 1,7,-1
 277 1104 l 1,8,-1
 370 1104 l 1,9,-1
 579 899 l 1,10,-1
 585 1199 l 1,11,-1
 704 1239 l 1,12,-1
 699 912 l 1,13,-1
 905 1104 l 1,14,-1
 1013 1104 l 1,15,-1
 730 839 l 1,16,-1
 1065 839 l 1,17,-1
 1043 746 l 1,18,-1
 729 746 l 1,19,-1
 1002 467 l 1,20,-1
 910 467 l 1,21,-1
 696 687 l 1,22,-1
 688 386 l 1,23,-1
 568 347 l 1,0,-1
EndSplineSet
EndChar

StartChar: plus
Encoding: 43 43 7
Width: 1048
GlyphClass: 2
Flags: W
LayerCount: 2
Fore
SplineSet
550 123 m 1,0,-1
 468 123 l 1,1,-1
 467 454 l 1,2,-1
 137 455 l 1,3,-1
 135 537 l 1,4,-1
 466 539 l 1,5,-1
 468 868 l 1,6,-1
 552 866 l 1,7,-1
 550 537 l 1,8,-1
 881 536 l 1,9,-1
 883 456 l 1,10,-1
 549 456 l 1,11,-1
 550 123 l 1,0,-1
EndSplineSet
EndChar

StartChar: hyphen
Encoding: 45 45 8
Width: 849
Flags: W
LayerCount: 2
Fore
SplineSet
87 446 m 1,0,-1
 85 528 l 1,1,-1
 771 527 l 1,2,-1
 770 447 l 1,3,-1
 87 446 l 1,0,-1
EndSplineSet
EndChar

StartChar: period
Encoding: 46 46 9
Width: 411
GlyphClass: 2
Flags: W
LayerCount: 2
Fore
SplineSet
363 96 m 0,0,1
 363 56 363 56 335 27.5 c 128,-1,2
 307 -1 307 -1 266 -1 c 256,3,4
 225 -1 225 -1 197 27.5 c 128,-1,5
 169 56 169 56 169 96 c 0,6,7
 169 137 169 137 197.5 165.5 c 128,-1,8
 226 194 226 194 266 194 c 256,9,10
 306 194 306 194 334.5 165.5 c 128,-1,11
 363 137 363 137 363 96 c 0,0,1
EndSplineSet
EndChar

StartChar: slash
Encoding: 47 47 10
Width: 656
Flags: W
LayerCount: 2
Fore
SplineSet
540 1054 m 1,0,-1
 241 -107 l 1,1,-1
 134 -107 l 1,2,-1
 432 1054 l 1,3,-1
 540 1054 l 1,0,-1
EndSplineSet
EndChar

StartChar: less
Encoding: 60 60 11
Width: 992
Flags: W
LayerCount: 2
Fore
SplineSet
54 417 m 1,0,-1
 54 463 l 1,1,-1
 938 852 l 1,2,-1
 938 734 l 1,3,-1
 268 440 l 1,4,-1
 938 146 l 1,5,-1
 938 29 l 1,6,-1
 54 417 l 1,0,-1
EndSplineSet
EndChar

StartChar: equal
Encoding: 61 61 12
Width: 842
Flags: W
LayerCount: 2
Fore
SplineSet
730 304 m 1,0,-1
 118 304 l 1,1,-1
 118 376 l 1,2,-1
 730 376 l 1,3,-1
 730 304 l 1,0,-1
730 512 m 1,4,-1
 118 512 l 1,5,-1
 118 584 l 1,6,-1
 730 584 l 1,7,-1
 730 512 l 1,4,-1
EndSplineSet
EndChar

StartChar: greater
Encoding: 62 62 13
Width: 992
Flags: W
LayerCount: 2
Fore
SplineSet
54 29 m 1,0,-1
 54 146 l 1,1,-1
 724 440 l 1,2,-1
 54 734 l 1,3,-1
 54 852 l 1,4,-1
 938 463 l 1,5,-1
 938 417 l 1,6,-1
 54 29 l 1,0,-1
EndSplineSet
EndChar

StartChar: bracketleft
Encoding: 91 91 14
Width: 538
GlyphClass: 2
Flags: W
LayerCount: 2
Fore
SplineSet
468 -194 m 1,0,-1
 158 -194 l 1,1,-1
 158 1406 l 1,2,-1
 468 1406 l 1,3,-1
 468 1325 l 1,4,-1
 274 1325 l 1,5,-1
 274 -114 l 1,6,-1
 468 -114 l 1,7,-1
 468 -194 l 1,0,-1
EndSplineSet
EndChar

StartChar: bracketright
Encoding: 93 93 15
Width: 538
GlyphClass: 2
Flags: W
LayerCount: 2
Fore
SplineSet
176 -114 m 1,0,-1
 370 -114 l 1,1,-1
 370 1325 l 1,2,-1
 176 1325 l 1,3,-1
 176 1406 l 1,4,-1
 486 1406 l 1,5,-1
 486 -194 l 1,6,-1
 176 -194 l 1,7,-1
 176 -114 l 1,0,-1
EndSplineSet
EndChar

StartChar: grave
Encoding: 96 96 16
Width: 580
Flags: W
LayerCount: 2
Fore
SplineSet
352 882 m 1,0,-1
 83 1051 l 2,1,2
 60 1068 60 1068 46.5 1086.5 c 128,-1,3
 33 1105 33 1105 33 1126 c 0,4,5
 33 1151 33 1151 49 1166 c 128,-1,6
 65 1181 65 1181 93 1181 c 0,7,8
 111 1181 111 1181 126.5 1172 c 128,-1,9
 142 1163 142 1163 166 1140 c 2,10,-1
 422 882 l 1,11,-1
 352 882 l 1,0,-1
EndSplineSet
EndChar

StartChar: braceleft
Encoding: 123 123 17
Width: 692
GlyphClass: 2
Flags: W
LayerCount: 2
Fore
SplineSet
592 -287 m 1,0,-1
 592 -311 l 1,1,2
 474 -295 474 -295 400.5 -216 c 128,-1,3
 327 -137 327 -137 327 -41 c 0,4,5
 327 10 327 10 343.5 78 c 128,-1,6
 360 146 360 146 360 182 c 0,7,8
 360 233 360 233 317 277.5 c 128,-1,9
 274 322 274 322 199 331 c 1,10,-1
 199 360 l 1,11,12
 274 370 274 370 317 413.5 c 128,-1,13
 360 457 360 457 360 509 c 0,14,15
 360 546 360 546 343.5 612.5 c 128,-1,16
 327 679 327 679 327 730 c 0,17,18
 327 826 327 826 400.5 906 c 128,-1,19
 474 986 474 986 592 1002 c 1,20,-1
 592 977 l 1,21,22
 510 957 510 957 471.5 912.5 c 128,-1,23
 433 868 433 868 433 814 c 0,24,25
 433 773 433 773 449 704.5 c 128,-1,26
 465 636 465 636 465 589 c 0,27,28
 465 518 465 518 413 451 c 128,-1,29
 361 384 361 384 257 346 c 1,30,31
 358 310 358 310 411.5 242 c 128,-1,32
 465 174 465 174 465 102 c 0,33,34
 465 54 465 54 449 -14 c 128,-1,35
 433 -82 433 -82 433 -123 c 0,36,37
 433 -177 433 -177 471.5 -221.5 c 128,-1,38
 510 -266 510 -266 592 -287 c 1,0,-1
EndSplineSet
EndChar

StartChar: bar
Encoding: 124 124 18
Width: 289
Flags: W
LayerCount: 2
Fore
SplineSet
172 1002 m 1,0,-1
 172 -311 l 1,1,-1
 114 -311 l 1,2,-1
 114 1002 l 1,3,-1
 172 1002 l 1,0,-1
EndSplineSet
EndChar

StartChar: asciitilde
Encoding: 126 126 19
Width: 780
Flags: W
LayerCount: 2
Fore
SplineSet
734 475 m 1,0,-1
 766 475 l 1,1,2
 762 384 762 384 712.5 332 c 128,-1,3
 663 280 663 280 593 280 c 0,4,5
 561 280 561 280 523.5 291 c 128,-1,6
 486 302 486 302 330 366 c 0,7,8
 222 410 222 410 176 410 c 0,9,10
 126 410 126 410 92.5 380 c 128,-1,11
 59 350 59 350 45 282 c 1,12,-1
 14 282 l 1,13,14
 18 377 18 377 66 427 c 128,-1,15
 114 477 114 477 178 477 c 0,16,17
 210 477 210 477 242 467 c 0,18,19
 315 446 315 446 434.5 395 c 128,-1,20
 554 344 554 344 603 344 c 0,21,22
 656 344 656 344 691.5 378 c 128,-1,23
 727 412 727 412 734 475 c 1,0,-1
EndSplineSet
EndChar

StartChar: agrave
Encoding: 224 224 20
Width: 1075
Flags: W
LayerCount: 2
Fore
SplineSet
741 331 m 1,0,1
 720 266 720 266 690.5 213 c 128,-1,2
 661 160 661 160 626 114 c 0,3,4
 519 -19 519 -19 400 -19 c 0,5,6
 208 -19 208 -19 159 214 c 0,7,8
 133 334 133 334 157 451 c 128,-1,9
 181 568 181 568 252 683 c 0,10,11
 325 801 325 801 433 860 c 128,-1,12
 541 919 541 919 684 919 c 0,13,14
 712 919 712 919 746 918.5 c 128,-1,15
 780 918 780 918 815.5 916 c 128,-1,16
 851 914 851 914 886 912 c 128,-1,17
 921 910 921 910 952 908 c 1,18,-1
 946 646 l 1,19,-1
 946 647 l 1,20,-1
 950 254 l 2,21,22
 952 209 952 209 954.5 179.5 c 128,-1,23
 957 150 957 150 958 139 c 0,24,25
 961 114 961 114 985 114 c 0,26,27
 1053 114 1053 114 1214 346 c 1,28,-1
 1218 179 l 1,29,30
 1073 -19 1073 -19 925 -19 c 0,31,32
 785 -19 785 -19 753 126 c 0,33,34
 749 146 749 146 747 182 c 128,-1,35
 745 218 745 218 745 264 c 2,36,-1
 741 331 l 1,0,1
737 758 m 1,37,38
 688 775 688 775 647 783.5 c 128,-1,39
 606 792 606 792 561 792 c 0,40,41
 497 792 497 792 453.5 749.5 c 128,-1,42
 410 707 410 707 387 625 c 0,43,44
 362 522 362 522 357 425 c 128,-1,45
 352 328 352 328 368 248 c 0,46,47
 388 146 388 146 437 146 c 0,48,49
 493 146 493 146 589 280 c 0,50,51
 637 352 637 352 674 430 c 128,-1,52
 711 508 711 508 739 599 c 1,53,-1
 737 758 l 1,37,38
641 537 m 1,54,-1
 372 706 l 2,55,56
 349 723 349 723 335.5 741.5 c 128,-1,57
 322 760 322 760 322 781 c 0,58,59
 322 806 322 806 338 821 c 128,-1,60
 354 836 354 836 382 836 c 0,61,62
 400 836 400 836 415.5 827 c 128,-1,63
 431 818 431 818 455 795 c 2,64,-1
 711 537 l 1,65,-1
 641 537 l 1,54,-1
EndSplineSet
EndChar

StartChar: ocircumflex.001
Encoding: 65539 -1 26
Width: 1112
Flags: W
LayerCount: 2
Fore
SplineSet
416 -19 m 0,0,1
 301 -19 301 -19 205 70 c 0,2,3
 110 160 110 160 85 288 c 0,4,5
 32 528 32 528 170 726 c 0,6,7
 307 928 307 928 522 928 c 0,8,9
 643 928 643 928 742 842 c 1,10,11
 837 753 837 753 864 626 c 0,12,13
 890 499 890 499 869 388.5 c 128,-1,14
 848 278 848 278 781 179 c 0,15,16
 711 79 711 79 619.5 30 c 128,-1,17
 528 -19 528 -19 416 -19 c 0,0,1
483 98 m 0,18,19
 536 98 536 98 573.5 133 c 128,-1,20
 611 168 611 168 637 236 c 0,21,22
 665 310 665 310 668.5 393.5 c 128,-1,23
 672 477 672 477 652 574 c 0,24,25
 602 813 602 813 466 813 c 0,26,27
 365 813 365 813 313 670 c 0,28,29
 284 595 284 595 281 510.5 c 128,-1,30
 278 426 278 426 298 332 c 0,31,32
 324 213 324 213 370 155.5 c 128,-1,33
 416 98 416 98 483 98 c 0,18,19
EndSplineSet
EndChar

StartChar: dagger
Encoding: 8224 8224 30
Width: 932
Flags: W
LayerCount: 2
Fore
SplineSet
347 -231 m 1,0,-1
 567 622 l 1,1,-1
 248 592 l 1,2,-1
 297 700 l 1,3,-1
 576 668 l 1,4,-1
 607 1066 l 1,5,-1
 755 1093 l 1,6,-1
 621 668 l 1,7,-1
 941 700 l 1,8,-1
 895 592 l 1,9,-1
 612 622 l 1,10,-1
 496 -213 l 1,11,-1
 347 -231 l 1,0,-1
EndSplineSet
EndChar

StartChar: degree
Encoding: 176 176 31
Width: 409
Flags: W
LayerCount: 2
Fore
SplineSet
395 844 m 0,0,1
 344 844 344 844 307.5 880 c 128,-1,2
 271 916 271 916 271 968 c 0,3,4
 271 1021 271 1021 307.5 1057 c 128,-1,5
 344 1093 344 1093 395 1093 c 0,6,7
 447 1093 447 1093 483 1057 c 128,-1,8
 519 1021 519 1021 519 968 c 0,9,10
 519 916 519 916 483 880 c 128,-1,11
 447 844 447 844 395 844 c 0,0,1
395 888 m 256,12,13
 427 888 427 888 450.5 912 c 128,-1,14
 474 936 474 936 474 968 c 256,15,16
 474 1000 474 1000 450.5 1024 c 128,-1,17
 427 1048 427 1048 395 1048 c 256,18,19
 363 1048 363 1048 339 1024 c 128,-1,20
 315 1000 315 1000 315 968 c 256,21,22
 315 936 315 936 339 912 c 128,-1,23
 363 888 363 888 395 888 c 256,12,13
EndSplineSet
EndChar

StartChar: bullet
Encoding: 8226 8226 32
Width: 931
Flags: W
LayerCount: 2
Fore
SplineSet
817 662 m 256,0,1
 817 517 817 517 713.5 414 c 128,-1,2
 610 311 610 311 465 311 c 256,3,4
 320 311 320 311 217 414 c 128,-1,5
 114 517 114 517 114 662 c 256,6,7
 114 807 114 807 217 910 c 128,-1,8
 320 1013 320 1013 465 1013 c 256,9,10
 610 1013 610 1013 713.5 910 c 128,-1,11
 817 807 817 807 817 662 c 256,0,1
EndSplineSet
EndChar

StartChar: registered
Encoding: 174 174 33
Width: 897
Flags: W
LayerCount: 2
Fore
SplineSet
580 445 m 0,0,1
 448 445 448 445 354.5 538.5 c 128,-1,2
 261 632 261 632 261 764 c 256,3,4
 261 896 261 896 354.5 990 c 128,-1,5
 448 1084 448 1084 580 1084 c 0,6,7
 714 1084 714 1084 807 990 c 128,-1,8
 900 896 900 896 900 764 c 256,9,10
 900 632 900 632 806.5 538.5 c 128,-1,11
 713 445 713 445 580 445 c 0,0,1
580 484 m 0,12,13
 695 484 695 484 777.5 567 c 128,-1,14
 860 650 860 650 860 764 c 256,15,16
 860 878 860 878 777.5 961 c 128,-1,17
 695 1044 695 1044 580 1044 c 0,18,19
 466 1044 466 1044 383.5 961 c 128,-1,20
 301 878 301 878 301 764 c 256,21,22
 301 650 301 650 383.5 567 c 128,-1,23
 466 484 466 484 580 484 c 0,12,13
529 737 m 1,24,-1
 501 596 l 1,25,-1
 394 596 l 1,26,-1
 403 639 l 1,27,-1
 456 639 l 1,28,-1
 511 915 l 1,29,-1
 458 915 l 1,30,-1
 466 959 l 1,31,-1
 598 959 l 2,32,33
 751 959 751 959 751 875 c 0,34,35
 751 800 751 800 650 750 c 1,36,-1
 685 639 l 1,37,-1
 747 639 l 1,38,-1
 738 596 l 1,39,-1
 641 596 l 1,40,-1
 591 737 l 1,41,-1
 529 737 l 1,24,-1
538 782 m 1,42,-1
 574 782 l 2,43,44
 697 782 697 782 697 866 c 0,45,46
 697 915 697 915 607 915 c 2,47,-1
 564 915 l 1,48,-1
 538 782 l 1,42,-1
EndSplineSet
EndChar

StartChar: copyright
Encoding: 169 169 34
Width: 1244
Flags: W
LayerCount: 2
Fore
SplineSet
725 -27 m 0,0,1
 495 -27 495 -27 330.5 137 c 128,-1,2
 166 301 166 301 166 533 c 256,3,4
 166 765 166 765 330.5 929 c 128,-1,5
 495 1093 495 1093 725 1093 c 0,6,7
 958 1093 958 1093 1122 929 c 128,-1,8
 1286 765 1286 765 1286 533 c 256,9,10
 1286 301 1286 301 1122 137 c 128,-1,11
 958 -27 958 -27 725 -27 c 0,0,1
725 18 m 0,12,13
 939 18 939 18 1090 169 c 128,-1,14
 1241 320 1241 320 1241 533 c 256,15,16
 1241 746 1241 746 1090 897 c 128,-1,17
 939 1048 939 1048 725 1048 c 0,18,19
 513 1048 513 1048 362 897 c 128,-1,20
 211 746 211 746 211 533 c 256,21,22
 211 320 211 320 362 169 c 128,-1,23
 513 18 513 18 725 18 c 0,12,13
890 246 m 1,24,25
 785 213 785 213 704 213 c 0,26,27
 580 213 580 213 508 279.5 c 128,-1,28
 436 346 436 346 436 462 c 0,29,30
 436 625 436 625 541 734.5 c 128,-1,31
 646 844 646 844 805 844 c 0,32,33
 896 844 896 844 1003 814 c 1,34,-1
 967 675 l 1,35,-1
 915 684 l 1,36,-1
 923 766 l 1,37,38
 854 798 854 798 792 798 c 0,39,40
 688 798 688 798 616 700 c 128,-1,41
 544 602 544 602 544 462 c 0,42,43
 544 271 544 271 722 271 c 0,44,45
 823 271 823 271 902 307 c 1,46,-1
 890 246 l 1,24,25
EndSplineSet
EndChar

StartChar: trademark
Encoding: 8482 8482 35
Width: 1333
Flags: W
LayerCount: 2
Fore
SplineSet
440 1021 m 1,0,-1
 307 1021 l 1,1,-1
 288 923 l 1,2,-1
 225 923 l 1,3,-1
 254 1066 l 1,4,-1
 751 1066 l 1,5,-1
 723 923 l 1,6,-1
 661 923 l 1,7,-1
 679 1021 l 1,8,-1
 546 1021 l 1,9,-1
 456 569 l 1,10,-1
 554 569 l 1,11,-1
 545 524 l 1,12,-1
 243 524 l 1,13,-1
 253 569 l 1,14,-1
 350 569 l 1,15,-1
 440 1021 l 1,0,-1
1011 569 m 1,16,-1
 942 956 l 1,17,-1
 857 524 l 1,18,-1
 688 524 l 1,19,-1
 697 569 l 1,20,-1
 794 569 l 1,21,-1
 884 1021 l 1,22,-1
 787 1021 l 1,23,-1
 796 1066 l 1,24,-1
 1036 1066 l 1,25,-1
 1092 747 l 1,26,-1
 1265 1066 l 1,27,-1
 1481 1066 l 1,28,-1
 1473 1021 l 1,29,-1
 1375 1021 l 1,30,-1
 1285 569 l 1,31,-1
 1383 569 l 1,32,-1
 1373 524 l 1,33,-1
 1178 524 l 1,34,-1
 1270 985 l 1,35,-1
 1041 569 l 1,36,-1
 1011 569 l 1,16,-1
EndSplineSet
EndChar

StartChar: logicalnot
Encoding: 172 172 39
Width: 932
Flags: W
LayerCount: 2
Fore
SplineSet
177 510 m 1,0,-1
 193 590 l 1,1,-1
 975 590 l 1,2,-1
 906 248 l 1,3,-1
 814 248 l 1,4,-1
 866 510 l 1,5,-1
 177 510 l 1,0,-1
EndSplineSet
EndChar

StartChar: florin
Encoding: 402 402 40
Width: 679
Flags: W
LayerCount: 2
Fore
SplineSet
158 -231 m 1,0,-1
 210 -18 l 1,1,-1
 286 364 l 1,2,-1
 108 364 l 1,3,-1
 117 409 l 1,4,-1
 294 409 l 1,5,-1
 298 427 l 2,6,7
 330 586 330 586 463 692.5 c 128,-1,8
 596 799 596 799 761 799 c 0,9,10
 818 799 818 799 860 784 c 1,11,-1
 764 678 l 1,12,13
 712 729 712 729 643 729 c 0,14,15
 500 729 500 729 457 512 c 2,16,-1
 436 409 l 1,17,-1
 623 409 l 1,18,-1
 614 364 l 1,19,-1
 427 364 l 1,20,-1
 313 -213 l 1,21,-1
 158 -231 l 1,0,-1
EndSplineSet
EndChar

StartChar: ellipsis
Encoding: 8230 8230 41
Width: 1827
Flags: W
LayerCount: 2
Fore
SplineSet
758 113 m 0,0,1
 758 144 758 144 809.5 245.5 c 128,-1,2
 861 347 861 347 876 355 c 0,3,4
 907 369 907 369 964.5 307.5 c 128,-1,5
 1022 246 1022 246 1026 211 c 1,6,7
 1026 166 1026 166 977.5 79.5 c 128,-1,8
 929 -7 929 -7 908 -7 c 0,9,10
 899 -7 899 -7 851 26.5 c 128,-1,11
 803 60 803 60 778 79 c 0,12,13
 758 96 758 96 758 113 c 0,0,1
1308 113 m 0,14,15
 1308 144 1308 144 1359 245.5 c 128,-1,16
 1410 347 1410 347 1426 355 c 0,17,18
 1457 369 1457 369 1514.5 307.5 c 128,-1,19
 1572 246 1572 246 1575 211 c 0,20,21
 1575 166 1575 166 1527 79.5 c 128,-1,22
 1479 -7 1479 -7 1458 -7 c 0,23,24
 1449 -7 1449 -7 1401 26.5 c 128,-1,25
 1353 60 1353 60 1328 79 c 0,26,27
 1308 96 1308 96 1308 113 c 0,14,15
211 113 m 0,28,29
 211 144 211 144 262 245.5 c 128,-1,30
 313 347 313 347 329 355 c 0,31,32
 360 369 360 369 417.5 307.5 c 128,-1,33
 475 246 475 246 478 211 c 0,34,35
 478 166 478 166 430 79.5 c 128,-1,36
 382 -7 382 -7 361 -7 c 0,37,38
 352 -7 352 -7 304 26.5 c 128,-1,39
 256 60 256 60 231 79 c 0,40,41
 211 96 211 96 211 113 c 0,28,29
EndSplineSet
EndChar

StartChar: endash
Encoding: 8211 8211 42
Width: 434
Flags: W
LayerCount: 2
Fore
SplineSet
434 154 m 1,0,-1
 0 154 l 1,1,-1
 0 234 l 1,2,-1
 434 234 l 1,3,-1
 434 154 l 1,0,-1
EndSplineSet
EndChar

StartChar: emdash
Encoding: 8212 8212 43
Width: 1862
Flags: W
LayerCount: 2
Fore
SplineSet
1866 572 m 1,0,-1
 -4 572 l 1,1,-1
 -4 732 l 1,2,-1
 1866 732 l 1,3,-1
 1866 572 l 1,0,-1
EndSplineSet
EndChar

StartChar: quotedblleft
Encoding: 8220 8220 44
Width: 613
Flags: W
LayerCount: 2
Fore
SplineSet
314 768 m 0,0,1
 315 833 315 833 359 896.5 c 128,-1,2
 403 960 403 960 457 986 c 1,3,-1
 488 928 l 1,4,5
 472 919 472 919 450 895 c 128,-1,6
 428 871 428 871 418 833 c 1,7,8
 484 805 484 805 481 750 c 0,9,10
 481 734 481 734 474.5 719.5 c 128,-1,11
 468 705 468 705 457.5 694 c 128,-1,12
 447 683 447 683 432 676.5 c 128,-1,13
 417 670 417 670 401 670 c 0,14,15
 380 670 380 670 364 678.5 c 128,-1,16
 348 687 348 687 337 700.5 c 128,-1,17
 326 714 326 714 320 732 c 128,-1,18
 314 750 314 750 314 768 c 0,0,1
95 768 m 0,19,20
 96 833 96 833 140 896.5 c 128,-1,21
 184 960 184 960 239 986 c 1,22,-1
 270 928 l 1,23,24
 254 919 254 919 232 895 c 128,-1,25
 210 871 210 871 200 833 c 1,26,27
 266 805 266 805 263 750 c 0,28,29
 263 734 263 734 256.5 719.5 c 128,-1,30
 250 705 250 705 239 694 c 128,-1,31
 228 683 228 683 213 676.5 c 128,-1,32
 198 670 198 670 182 670 c 0,33,34
 162 670 162 670 145.5 678.5 c 128,-1,35
 129 687 129 687 118 700.5 c 128,-1,36
 107 714 107 714 101 732 c 128,-1,37
 95 750 95 750 95 768 c 0,19,20
EndSplineSet
EndChar

StartChar: quotedblright
Encoding: 8221 8221 45
Width: 597
Flags: W
LayerCount: 2
Fore
SplineSet
265 884 m 0,0,1
 264 819 264 819 220 755.5 c 128,-1,2
 176 692 176 692 122 666 c 1,3,-1
 91 724 l 1,4,5
 107 733 107 733 129 757 c 128,-1,6
 151 781 151 781 161 819 c 1,7,8
 95 847 95 847 98 902 c 0,9,10
 98 918 98 918 104.5 932.5 c 128,-1,11
 111 947 111 947 121.5 958 c 128,-1,12
 132 969 132 969 146.5 975.5 c 128,-1,13
 161 982 161 982 178 982 c 0,14,15
 199 982 199 982 215 973.5 c 128,-1,16
 231 965 231 965 242 951.5 c 128,-1,17
 253 938 253 938 259 920 c 128,-1,18
 265 902 265 902 265 884 c 0,0,1
484 884 m 0,19,20
 483 819 483 819 439 755.5 c 128,-1,21
 395 692 395 692 340 666 c 1,22,-1
 309 724 l 1,23,24
 325 733 325 733 347 757 c 128,-1,25
 369 781 369 781 379 819 c 1,26,27
 313 847 313 847 316 902 c 0,28,29
 316 918 316 918 322.5 932.5 c 128,-1,30
 329 947 329 947 340 958 c 128,-1,31
 351 969 351 969 365.5 975.5 c 128,-1,32
 380 982 380 982 397 982 c 0,33,34
 417 982 417 982 433 973.5 c 128,-1,35
 449 965 449 965 460.5 951.5 c 128,-1,36
 472 938 472 938 478 920 c 128,-1,37
 484 902 484 902 484 884 c 0,19,20
EndSplineSet
EndChar

StartChar: divide
Encoding: 247 247 46
Width: 1005
Flags: W
LayerCount: 2
Fore
SplineSet
562 641 m 1,0,-1
 426 641 l 1,1,-1
 426 797 l 1,2,-1
 562 797 l 1,3,-1
 562 641 l 1,0,-1
829 390 m 1,4,-1
 160 390 l 1,5,-1
 160 482 l 1,6,-1
 829 482 l 1,7,-1
 829 390 l 1,4,-1
562 75 m 1,8,-1
 426 75 l 1,9,-1
 426 231 l 1,10,-1
 562 231 l 1,11,-1
 562 75 l 1,8,-1
EndSplineSet
EndChar

StartChar: lozenge
Encoding: 9674 9674 47
Width: 1118
Flags: W
LayerCount: 2
Fore
SplineSet
1003 699 m 1,0,-1
 560 197 l 1,1,-1
 117 699 l 1,2,-1
 560 1202 l 1,3,-1
 1003 699 l 1,0,-1
848 699 m 1,4,-1
 560 1036 l 1,5,-1
 271 699 l 1,6,-1
 560 364 l 1,7,-1
 848 699 l 1,4,-1
EndSplineSet
EndChar

StartChar: fraction
Encoding: 8260 8260 48
Width: 742
Flags: W
LayerCount: 2
Fore
SplineSet
740 1101 m 1,0,-1
 101 -82 l 1,1,-1
 -9 -82 l 1,2,-1
 629 1101 l 1,3,-1
 740 1101 l 1,0,-1
EndSplineSet
EndChar

StartChar: guilsinglleft
Encoding: 8249 8249 49
Width: 1117
Flags: W
LayerCount: 2
Fore
SplineSet
955 58 m 1,0,-1
 150 444 l 1,1,-1
 150 534 l 1,2,-1
 955 918 l 1,3,-1
 955 784 l 1,4,-1
 331 489 l 1,5,-1
 955 192 l 1,6,-1
 955 58 l 1,0,-1
EndSplineSet
EndChar

StartChar: daggerdbl
Encoding: 8225 8225 52
Width: 932
Flags: W
LayerCount: 2
Fore
SplineSet
349 -231 m 1,0,-1
 481 185 l 1,1,-1
 161 154 l 1,2,-1
 211 261 l 1,3,-1
 490 229 l 1,4,-1
 567 616 l 1,5,-1
 247 586 l 1,6,-1
 297 693 l 1,7,-1
 575 661 l 1,8,-1
 608 1066 l 1,9,-1
 758 1093 l 1,10,-1
 620 661 l 1,11,-1
 940 693 l 1,12,-1
 889 586 l 1,13,-1
 611 616 l 1,14,-1
 535 229 l 1,15,-1
 855 261 l 1,16,-1
 804 154 l 1,17,-1
 525 185 l 1,18,-1
 499 -213 l 1,19,-1
 349 -231 l 1,0,-1
EndSplineSet
EndChar

StartChar: middot.001
Encoding: 8729 8729 53
Width: 620
Flags: W
LayerCount: 2
Fore
SplineSet
429 516 m 1,0,-1
 190 516 l 1,1,-1
 190 789 l 1,2,-1
 429 789 l 1,3,-1
 429 516 l 1,0,-1
EndSplineSet
EndChar

StartChar: quotesinglbase
Encoding: 8218 8218 54
Width: 418
Flags: W
LayerCount: 2
Fore
SplineSet
103 128 m 1,0,-1
 247 231 l 1,1,-1
 353 90 l 1,2,3
 345 -56 345 -56 262.5 -134.5 c 128,-1,4
 180 -213 180 -213 36 -213 c 1,5,-1
 76 -168 l 1,6,7
 189 -158 189 -158 211 -18 c 1,8,-1
 103 128 l 1,0,-1
EndSplineSet
EndChar

StartChar: quotedblbase
Encoding: 8222 8222 55
Width: 684
Flags: W
LayerCount: 2
Fore
SplineSet
91 92 m 1,0,-1
 204 178 l 1,1,-1
 292 64 l 1,2,3
 270 -213 270 -213 31 -213 c 1,4,-1
 60 -168 l 1,5,6
 166 -148 166 -148 179 -16 c 1,7,-1
 91 92 l 1,0,-1
401 92 m 1,8,-1
 516 178 l 1,9,-1
 602 64 l 1,10,11
 581 -213 581 -213 341 -213 c 1,12,-1
 372 -168 l 1,13,14
 476 -148 476 -148 490 -16 c 1,15,-1
 401 92 l 1,8,-1
EndSplineSet
EndChar

StartChar: perthousand
Encoding: 8240 8240 56
Width: 1571
Flags: W
LayerCount: 2
Fore
SplineSet
385 533 m 0,0,1
 304 533 304 533 254.5 584.5 c 128,-1,2
 205 636 205 636 205 722 c 0,3,4
 205 865 205 865 286.5 965.5 c 128,-1,5
 368 1066 368 1066 483 1066 c 0,6,7
 567 1066 567 1066 617.5 1014.5 c 128,-1,8
 668 963 668 963 668 877 c 0,9,10
 668 733 668 733 585.5 633 c 128,-1,11
 503 533 503 533 385 533 c 0,0,1
311 715 m 0,12,13
 311 578 311 578 398 578 c 0,14,15
 463 578 463 578 517 671.5 c 128,-1,16
 571 765 571 765 571 881 c 0,17,18
 571 1022 571 1022 483 1022 c 0,19,20
 416 1022 416 1022 363.5 928 c 128,-1,21
 311 834 311 834 311 715 c 0,12,13
850 0 m 0,22,23
 769 0 769 0 719.5 51.5 c 128,-1,24
 670 103 670 103 670 189 c 0,25,26
 670 331 670 331 751 432 c 128,-1,27
 832 533 832 533 947 533 c 0,28,29
 1031 533 1031 533 1081.5 481.5 c 128,-1,30
 1132 430 1132 430 1132 344 c 0,31,32
 1132 200 1132 200 1049.5 100 c 128,-1,33
 967 0 967 0 850 0 c 0,22,23
776 182 m 0,34,35
 776 44 776 44 862 44 c 0,36,37
 929 44 929 44 982 138 c 128,-1,38
 1035 232 1035 232 1035 348 c 0,39,40
 1035 490 1035 490 948 490 c 0,41,42
 880 490 880 490 828 395.5 c 128,-1,43
 776 301 776 301 776 182 c 0,34,35
131 -27 m 1,44,-1
 1111 1093 l 1,45,-1
 1206 1093 l 1,46,-1
 225 -27 l 1,47,-1
 131 -27 l 1,44,-1
1376 0 m 0,48,49
 1294 0 1294 0 1244.5 51.5 c 128,-1,50
 1195 103 1195 103 1195 189 c 0,51,52
 1195 331 1195 331 1276.5 432 c 128,-1,53
 1358 533 1358 533 1473 533 c 0,54,55
 1557 533 1557 533 1607.5 481.5 c 128,-1,56
 1658 430 1658 430 1658 344 c 0,57,58
 1658 200 1658 200 1575.5 100 c 128,-1,59
 1493 0 1493 0 1376 0 c 0,48,49
1301 183 m 0,60,61
 1301 44 1301 44 1389 44 c 0,62,63
 1453 44 1453 44 1507 138 c 128,-1,64
 1561 232 1561 232 1561 347 c 0,65,66
 1561 490 1561 490 1473 490 c 0,67,68
 1406 490 1406 490 1353.5 395.5 c 128,-1,69
 1301 301 1301 301 1301 183 c 0,60,61
EndSplineSet
EndChar

StartChar: multiply
Encoding: 215 215 60
Width: 946
Flags: W
LayerCount: 2
Fore
SplineSet
802 219 m 1,0,-1
 744 162 l 1,1,-1
 467 437 l 1,2,-1
 190 162 l 1,3,-1
 131 219 l 1,4,-1
 406 497 l 1,5,-1
 131 775 l 1,6,-1
 193 831 l 1,7,-1
 467 555 l 1,8,-1
 744 831 l 1,9,-1
 802 775 l 1,10,-1
 523 497 l 1,11,-1
 802 219 l 1,0,-1
EndSplineSet
EndChar

StartChar: macron
Encoding: 175 175 61
Width: 1118
Flags: W
LayerCount: 2
Fore
SplineSet
1134 1259 m 1,0,-1
 -16 1259 l 1,1,-1
 -16 1389 l 1,2,-1
 1134 1389 l 1,3,-1
 1134 1259 l 1,0,-1
EndSplineSet
EndChar

StartChar: periodcentered
Encoding: 183 183 62
Width: 724
Flags: W
LayerCount: 2
Fore
SplineSet
482 832 m 1,0,-1
 243 832 l 1,1,-1
 243 1117 l 1,2,-1
 482 1117 l 1,3,-1
 482 832 l 1,0,-1
EndSplineSet
EndChar

StartChar: H22073
Encoding: 9633 9633 63
Width: 1237
Flags: W
LayerCount: 2
Fore
SplineSet
146 944 m 1,0,-1
 1090 944 l 1,1,-1
 1090 0 l 1,2,-1
 146 0 l 1,3,-1
 146 944 l 1,0,-1
222 868 m 1,4,-1
 222 76 l 1,5,-1
 1014 76 l 1,6,-1
 1014 868 l 1,7,-1
 222 868 l 1,4,-1
EndSplineSet
EndChar

StartChar: H18543
Encoding: 9642 9642 64
Width: 1089
Flags: W
LayerCount: 2
Fore
SplineSet
886 894 m 1,0,-1
 886 200 l 1,1,-1
 192 200 l 1,2,-1
 192 894 l 1,3,-1
 886 894 l 1,0,-1
EndSplineSet
EndChar

StartChar: H18551
Encoding: 9643 9643 65
Width: 1089
Flags: W
LayerCount: 2
Fore
SplineSet
888 930 m 1,0,-1
 888 235 l 1,1,-1
 193 235 l 1,2,-1
 193 930 l 1,3,-1
 888 930 l 1,0,-1
774 816 m 1,4,-1
 307 816 l 1,5,-1
 307 349 l 1,6,-1
 774 349 l 1,7,-1
 774 816 l 1,4,-1
EndSplineSet
EndChar

StartChar: H18533
Encoding: 9679 9679 66
Width: 1339
Flags: W
LayerCount: 2
Fore
SplineSet
204 775 m 0,0,1
 204 976 204 976 345 1117 c 128,-1,2
 486 1258 486 1258 685 1258 c 0,3,4
 885 1258 885 1258 1026 1117 c 128,-1,5
 1167 976 1167 976 1167 775 c 0,6,7
 1167 577 1167 577 1026 436 c 128,-1,8
 885 295 885 295 685 295 c 0,9,10
 486 295 486 295 345 436 c 128,-1,11
 204 577 204 577 204 775 c 0,0,1
EndSplineSet
EndChar

StartChar: openbullet
Encoding: 9702 9702 67
Width: 1089
Flags: W
LayerCount: 2
Fore
SplineSet
544 1392 m 0,0,1
 700 1392 700 1392 810.5 1281.5 c 128,-1,2
 921 1171 921 1171 921 1015 c 256,3,4
 921 859 921 859 810.5 749 c 128,-1,5
 700 639 700 639 544 639 c 256,6,7
 388 639 388 639 278 749 c 128,-1,8
 168 859 168 859 168 1015 c 256,9,10
 168 1171 168 1171 277.5 1281.5 c 128,-1,11
 387 1392 387 1392 544 1392 c 0,0,1
544 1278 m 0,12,13
 435 1278 435 1278 358.5 1200.5 c 128,-1,14
 282 1123 282 1123 282 1015 c 0,15,16
 282 906 282 906 359 829.5 c 128,-1,17
 436 753 436 753 544 753 c 256,18,19
 652 753 652 753 729.5 829.5 c 128,-1,20
 807 906 807 906 807 1015 c 0,21,22
 807 1123 807 1123 730.5 1200.5 c 128,-1,23
 654 1278 654 1278 544 1278 c 0,12,13
EndSplineSet
EndChar

StartChar: uniFFFC
Encoding: 65532 65532 68
Width: 2048
Flags: W
LayerCount: 2
Fore
SplineSet
2048 1150 m 1,0,-1
 1948 1150 l 1,1,-1
 1948 1373 l 1,2,-1
 1725 1373 l 1,3,-1
 1725 1473 l 1,4,-1
 2048 1473 l 1,5,-1
 2048 1150 l 1,0,-1
1473 1373 m 1,6,-1
 1150 1373 l 1,7,-1
 1150 1473 l 1,8,-1
 1473 1473 l 1,9,-1
 1473 1373 l 1,6,-1
2048 575 m 1,10,-1
 1948 575 l 1,11,-1
 1948 898 l 1,12,-1
 2048 898 l 1,13,-1
 2048 575 l 1,10,-1
1782 611 m 2,14,15
 1782 370 1782 370 1571 370 c 0,16,17
 1485 370 1485 370 1433 415 c 1,18,-1
 1506 494 l 1,19,20
 1531 468 1531 468 1571 468 c 0,21,22
 1666 468 1666 468 1666 606 c 2,23,-1
 1666 1090 l 1,24,-1
 1782 1090 l 1,25,-1
 1782 611 l 2,14,15
898 1373 m 1,26,-1
 575 1373 l 1,27,-1
 575 1473 l 1,28,-1
 898 1473 l 1,29,-1
 898 1373 l 1,26,-1
2048 0 m 1,30,-1
 1725 0 l 1,31,-1
 1725 100 l 1,32,-1
 1948 100 l 1,33,-1
 1948 323 l 1,34,-1
 2048 323 l 1,35,-1
 2048 0 l 1,30,-1
1423 591 m 0,36,37
 1423 382 1423 382 1149 382 c 2,38,-1
 909 382 l 1,39,-1
 909 1090 l 1,40,-1
 1144 1090 l 2,41,42
 1393 1090 1393 1090 1393 904 c 0,43,44
 1393 813 1393 813 1304 759 c 1,45,46
 1423 713 1423 713 1423 591 c 0,36,37
323 1373 m 1,47,-1
 100 1373 l 1,48,-1
 100 1150 l 1,49,-1
 0 1150 l 1,50,-1
 0 1473 l 1,51,-1
 323 1473 l 1,52,-1
 323 1373 l 1,47,-1
1473 0 m 1,53,-1
 1150 0 l 1,54,-1
 1150 100 l 1,55,-1
 1473 100 l 1,56,-1
 1473 0 l 1,53,-1
854 735 m 0,57,58
 854 562 854 562 772 466 c 128,-1,59
 690 370 690 370 537 370 c 256,60,61
 384 370 384 370 303.5 466 c 128,-1,62
 223 562 223 562 223 735 c 0,63,64
 223 910 223 910 303.5 1006 c 128,-1,65
 384 1102 384 1102 537 1102 c 256,66,67
 690 1102 690 1102 772 1006 c 128,-1,68
 854 910 854 910 854 735 c 0,57,58
100 575 m 1,69,-1
 0 575 l 1,70,-1
 0 898 l 1,71,-1
 100 898 l 1,72,-1
 100 575 l 1,69,-1
898 0 m 1,73,-1
 575 0 l 1,74,-1
 575 100 l 1,75,-1
 898 100 l 1,76,-1
 898 0 l 1,73,-1
323 0 m 1,77,-1
 0 0 l 1,78,-1
 0 323 l 1,79,-1
 100 323 l 1,80,-1
 100 100 l 1,81,-1
 323 100 l 1,82,-1
 323 0 l 1,77,-1
1277 893 m 0,83,84
 1277 992 1277 992 1114 992 c 2,85,-1
 1025 992 l 1,86,-1
 1025 798 l 1,87,-1
 1126 798 l 2,88,89
 1277 798 1277 798 1277 893 c 0,83,84
1307 591 m 0,90,91
 1307 700 1307 700 1136 700 c 2,92,-1
 1025 700 l 1,93,-1
 1025 480 l 1,94,-1
 1149 480 l 2,95,96
 1307 480 1307 480 1307 591 c 0,90,91
738 735 m 0,97,98
 738 1004 738 1004 537 1004 c 0,99,100
 339 1004 339 1004 339 735 c 0,101,102
 339 468 339 468 537 468 c 0,103,104
 738 468 738 468 738 735 c 0,97,98
EndSplineSet
EndChar

StartChar: zerowidthnonjoiner
Encoding: 8204 8204 88
Width: 0
GlyphClass: 2
Flags: W
LayerCount: 2
Fore
SplineSet
36 1289 m 1,0,-1
 36 -275 l 1,1,-1
 -36 -275 l 1,2,-1
 -36 1289 l 1,3,-1
 36 1289 l 1,0,-1
EndSplineSet
EndChar

StartChar: zerowidthjoiner
Encoding: 8205 8205 89
Width: 0
GlyphClass: 2
Flags: W
LayerCount: 2
Fore
SplineSet
36 -275 m 1,0,-1
 -36 -275 l 1,1,-1
 -36 1114 l 1,2,-1
 -170 978 l 1,3,-1
 -219 1027 l 1,4,-1
 -48 1196 l 1,5,-1
 -219 1364 l 1,6,-1
 -170 1413 l 1,7,-1
 0 1242 l 1,8,-1
 170 1413 l 1,9,-1
 219 1364 l 1,10,-1
 48 1196 l 1,11,-1
 219 1027 l 1,12,-1
 170 978 l 1,13,-1
 36 1114 l 1,14,-1
 36 -275 l 1,0,-1
EndSplineSet
EndChar

StartChar: lefttorightmark
Encoding: 8206 8206 90
Width: 0
GlyphClass: 2
Flags: W
LayerCount: 2
Fore
SplineSet
430 1198 m 1,0,-1
 213 984 l 1,1,-1
 164 1033 l 1,2,-1
 301 1163 l 1,3,-1
 35 1163 l 1,4,-1
 35 -275 l 1,5,-1
 -36 -275 l 1,6,-1
 -36 1234 l 1,7,-1
 301 1234 l 1,8,-1
 164 1364 l 1,9,-1
 213 1413 l 1,10,-1
 430 1198 l 1,0,-1
EndSplineSet
EndChar

StartChar: righttoleftmark
Encoding: 8207 8207 91
Width: 0
GlyphClass: 2
Flags: W
LayerCount: 2
Fore
SplineSet
35 -275 m 1,0,-1
 -36 -275 l 1,1,-1
 -36 1163 l 1,2,-1
 -302 1163 l 1,3,-1
 -165 1033 l 1,4,-1
 -214 984 l 1,5,-1
 -431 1198 l 1,6,-1
 -214 1413 l 1,7,-1
 -165 1364 l 1,8,-1
 -302 1234 l 1,9,-1
 35 1234 l 1,10,-1
 35 -275 l 1,0,-1
EndSplineSet
EndChar

StartChar: afii57388.001
Encoding: 1644 1644 92
Width: 353
GlyphClass: 2
Flags: W
LayerCount: 2
Fore
SplineSet
210 654 m 0,0,1
 200 627 200 627 185 603 c 0,2,3
 180 597 180 597 173.5 593.5 c 128,-1,4
 167 590 167 590 162 590 c 128,-1,5
 157 590 157 590 154.5 593 c 128,-1,6
 152 596 152 596 155 603 c 0,7,8
 187 660 187 660 202.5 713.5 c 128,-1,9
 218 767 218 767 218 800 c 1,10,11
 194 806 194 806 179 816 c 128,-1,12
 164 826 164 826 155 837.5 c 128,-1,13
 146 849 146 849 143 859 c 128,-1,14
 140 869 140 869 140 874 c 0,15,16
 140 890 140 890 145.5 907 c 128,-1,17
 151 924 151 924 160.5 937.5 c 128,-1,18
 170 951 170 951 183.5 959.5 c 128,-1,19
 197 968 197 968 213 968 c 0,20,21
 272 968 272 968 272 874 c 0,22,23
 272 859 272 859 268 835 c 128,-1,24
 264 811 264 811 256 781.5 c 128,-1,25
 248 752 248 752 236.5 719.5 c 128,-1,26
 225 687 225 687 210 654 c 0,0,1
EndSplineSet
EndChar

StartChar: afii57409
Encoding: 1569 1569 93
Width: 627
GlyphClass: 2
Flags: W
AnchorPoint: "Anchor-1" 375 -240 basechar 0
AnchorPoint: "Anchor-0" 420 510 basechar 0
LayerCount: 2
Fore
SplineSet
611 110 m 0,0,1
 545 68 545 68 408 35 c 0,2,3
 385 29 385 29 326 16 c 2,4,-1
 203 -13 l 2,5,6
 195 -15 195 -15 187 -15 c 0,7,8
 147 -15 147 -15 147 22 c 0,9,10
 147 49 147 49 176 57 c 0,11,12
 227 65 227 65 323 85 c 1,13,14
 286 93 286 93 258.5 124 c 128,-1,15
 231 155 231 155 231 192 c 0,16,17
 231 241 231 241 329 292 c 0,18,19
 418 338 418 338 474 338 c 0,20,21
 548 338 548 338 548 283 c 0,22,23
 548 260 548 260 526 223 c 0,24,25
 501 184 501 184 480 184 c 0,26,27
 465 184 465 184 465 202 c 0,28,29
 465 209 465 209 471.5 224 c 128,-1,30
 478 239 478 239 478 244 c 0,31,32
 478 255 478 255 450 255 c 0,33,34
 412 255 412 255 374 241 c 0,35,36
 323 222 323 222 323 192 c 0,37,38
 323 161 323 161 362 138 c 0,39,40
 397 117 397 117 430 117 c 0,41,42
 467 117 467 117 519 141 c 0,43,44
 539 150 539 150 575 172 c 0,45,46
 585 178 585 178 595 178 c 0,47,48
 627 178 627 178 627 141 c 0,49,50
 627 120 627 120 611 110 c 0,0,1
EndSplineSet
EndChar

StartChar: afii57440
Encoding: 1600 1600 94
Width: 344
GlyphClass: 2
Flags: W
LayerCount: 2
Fore
SplineSet
354 0 m 1,0,-1
 -10 0 l 1,1,-1
 -10 116 l 1,2,-1
 354 116 l 1,3,-1
 354 0 l 1,0,-1
EndSplineSet
EndChar

StartChar: afii57453
Encoding: 1613 1613 95
Width: 0
GlyphClass: 4
Flags: W
AnchorPoint: "Anchor-3" 0 0 mark 0
AnchorPoint: "Anchor-1" 0 0 mark 0
LayerCount: 2
Fore
SplineSet
141 104 m 2,0,-1
 -128 4 l 2,1,2
 -133 2 -133 2 -138 2 c 0,3,4
 -169 2 -169 2 -169 37 c 0,5,6
 -169 56 -169 56 -150 63 c 2,7,-1
 119 162 l 2,8,9
 124 164 124 164 130 164 c 0,10,11
 160 164 160 164 160 131 c 0,12,13
 160 111 160 111 141 104 c 2,0,-1
157 -15 m 2,14,-1
 -112 -113 l 2,15,16
 -118 -115 -118 -115 -123 -115 c 0,17,18
 -154 -115 -154 -115 -154 -81 c 0,19,20
 -154 -61 -154 -61 -134 -54 c 2,21,-1
 134 44 l 2,22,23
 140 46 140 46 145 46 c 0,24,25
 176 46 176 46 176 12 c 0,26,27
 176 -8 176 -8 157 -15 c 2,14,-1
EndSplineSet
EndChar

StartChar: afii57381
Encoding: 1642 1642 96
Width: 616
GlyphClass: 2
Flags: W
LayerCount: 2
Fore
SplineSet
293 745 m 0,0,1
 255 712 255 712 218 718 c 0,2,3
 151 730 151 730 151 802 c 0,4,5
 151 851 151 851 186 891 c 128,-1,6
 221 931 221 931 269 931 c 0,7,8
 341 931 341 931 341 854 c 0,9,10
 341 787 341 787 293 745 c 0,0,1
255 21 m 0,11,12
 240 -5 240 -5 211 -5 c 0,13,14
 154 -5 154 -5 154 46 c 0,15,16
 154 59 154 59 161 71 c 0,17,18
 254 232 254 232 350 477 c 0,19,20
 456 745 456 745 489 926 c 0,21,22
 495 957 495 957 535 957 c 0,23,24
 587 957 587 957 587 910 c 0,25,26
 587 780 587 780 458 459 c 0,27,28
 350 189 350 189 255 21 c 0,11,12
572 48 m 0,29,30
 534 15 534 15 498 21 c 0,31,32
 431 33 431 33 431 105 c 0,33,34
 431 153 431 153 466 193.5 c 128,-1,35
 501 234 501 234 548 234 c 0,36,37
 620 234 620 234 620 157 c 0,38,39
 620 90 620 90 572 48 c 0,29,30
270 820 m 0,40,41
 273 846 273 846 255 849 c 0,42,43
 233 855 233 855 222 827 c 0,44,45
 211 798 211 798 239 793 c 0,46,47
 266 788 266 788 270 820 c 0,40,41
549 123 m 0,48,49
 552 148 552 148 534 152 c 0,50,51
 512 156 512 156 502 130 c 0,52,53
 491 101 491 101 518 96 c 256,54,55
 545 91 545 91 549 123 c 0,48,49
EndSplineSet
EndChar

StartChar: afii57461
Encoding: 1643 1643 97
Width: 536
GlyphClass: 2
Flags: W
LayerCount: 2
Fore
SplineSet
518 521 m 1,0,-1
 115 -382 l 1,1,-1
 19 -352 l 1,2,-1
 425 551 l 1,3,-1
 518 521 l 1,0,-1
EndSplineSet
EndChar

StartChar: afii63167
Encoding: 1645 1645 98
Width: 1118
GlyphClass: 2
Flags: W
LayerCount: 2
Fore
SplineSet
694 729 m 1,0,-1
 1057 733 l 1,1,-1
 1057 610 l 1,2,-1
 702 612 l 1,3,-1
 971 352 l 1,4,-1
 883 264 l 1,5,-1
 616 539 l 1,6,-1
 623 168 l 1,7,-1
 498 168 l 1,8,-1
 502 539 l 1,9,-1
 236 264 l 1,10,-1
 147 352 l 1,11,-1
 422 614 l 1,12,-1
 63 610 l 1,13,-1
 63 733 l 1,14,-1
 420 729 l 1,15,-1
 170 975 l 1,16,-1
 258 1065 l 1,17,-1
 502 817 l 1,18,-1
 498 1176 l 1,19,-1
 623 1176 l 1,20,-1
 616 813 l 1,21,-1
 860 1065 l 1,22,-1
 948 975 l 1,23,-1
 694 729 l 1,0,-1
EndSplineSet
EndChar

StartChar: afii57459
Encoding: 65543 -1 99
Width: 575
GlyphClass: 2
Flags: W
LayerCount: 2
Fore
SplineSet
517 413 m 1,0,1
 527 414 527 414 535 414 c 0,2,3
 572 414 572 414 572 388 c 0,4,5
 572 349 572 349 470 313 c 1,6,7
 402 181 402 181 248 84 c 0,8,9
 114 0 114 0 27 0 c 2,10,-1
 -10 0 l 1,11,-1
 -10 116 l 1,12,-1
 14 116 l 2,13,14
 75 116 75 116 170 160 c 0,15,16
 277 210 277 210 316 272 c 1,17,18
 293 264 293 264 261 264 c 0,19,20
 202 264 202 264 154 288 c 0,21,22
 94 318 94 318 94 371 c 0,23,24
 94 480 94 480 225 597 c 128,-1,25
 356 714 356 714 466 714 c 0,26,27
 485 714 485 714 502 708 c 0,28,29
 569 684 569 684 569 601 c 0,30,31
 569 527 569 527 517 413 c 1,0,1
431 594 m 0,32,33
 386 594 386 594 294.5 516 c 128,-1,34
 203 438 203 438 203 394 c 0,35,36
 203 374 203 374 256 374 c 0,37,38
 318 374 318 374 380 394 c 1,39,40
 452 485 452 485 452 564 c 0,41,42
 452 594 452 594 431 594 c 0,32,33
EndSplineSet
EndChar

StartChar: afii57543
Encoding: 65544 -1 100
Width: 412
Flags: W
LayerCount: 2
Fore
SplineSet
422 0 m 1,0,-1
 402 0 l 2,1,2
 341 0 341 0 293 38 c 0,3,4
 241 78 241 78 239 138 c 1,5,6
 202 90 202 90 139 48 c 0,7,8
 67 0 67 0 16 0 c 2,9,-1
 -10 0 l 1,10,-1
 -10 116 l 1,11,-1
 21 116 l 2,12,13
 117 116 117 116 186 215 c 0,14,15
 244 298 244 298 256 403 c 0,16,17
 261 446 261 446 307 446 c 0,18,19
 359 446 359 446 359 411 c 0,20,21
 359 407 359 407 357 398 c 0,22,23
 324 254 324 254 324 203 c 0,24,25
 324 116 324 116 406 116 c 2,26,-1
 422 116 l 1,27,-1
 422 0 l 1,0,-1
EndSplineSet
EndChar

StartChar: afii57534
Encoding: 1749 1749 101
Width: 574
GlyphClass: 2
Flags: W
LayerCount: 2
Fore
SplineSet
574 150 m 0,0,1
 574 0 574 0 376 0 c 0,2,3
 150 0 150 0 150 188 c 0,4,5
 150 324 150 324 348 461 c 1,6,7
 330 491 330 491 330 518 c 0,8,9
 330 572 330 572 373 572 c 0,10,11
 402 572 402 572 425 535 c 1,12,13
 446 550 446 550 469 550 c 0,14,15
 527 550 527 550 527 497 c 0,16,17
 527 460 527 460 479 429 c 1,18,19
 574 240 574 240 574 150 c 0,0,1
464 188 m 0,20,21
 464 285 464 285 396 376 c 1,22,23
 250 270 250 270 250 178 c 0,24,25
 250 143 250 143 293 123 c 0,26,27
 326 107 326 107 366 107 c 0,28,29
 464 107 464 107 464 188 c 0,20,21
EndSplineSet
EndChar

StartChar: afii64240
Encoding: 65546 -1 103
Width: 286
Flags: W
LayerCount: 2
Fore
SplineSet
193 29 m 0,0,1
 158 -4 158 -4 121 3 c 0,2,3
 55 15 55 15 55 83 c 0,4,5
 55 105 55 105 64 123 c 0,6,7
 91 208 91 208 168 208 c 0,8,9
 240 208 240 208 240 134 c 0,10,11
 240 71 240 71 193 29 c 0,0,1
EndSplineSet
EndChar

StartChar: afii64241
Encoding: 65547 -1 104
Width: 372
Flags: W
LayerCount: 2
Fore
SplineSet
315 33 m 0,0,1
 282 3 282 3 249 9 c 0,2,3
 189 20 189 20 189 84 c 0,4,5
 189 130 189 130 224 167 c 128,-1,6
 259 204 259 204 304 196 c 0,7,8
 356 187 356 187 356 129 c 0,9,10
 356 70 356 70 315 33 c 0,0,1
140 34 m 0,11,12
 108 4 108 4 74 10 c 0,13,14
 14 21 14 21 14 83 c 0,15,16
 14 103 14 103 22 120 c 0,17,18
 47 197 47 197 117 197 c 0,19,20
 182 197 182 197 182 130 c 0,21,22
 182 72 182 72 140 34 c 0,11,12
EndSplineSet
EndChar

StartChar: afii63954
Encoding: 65548 -1 105
Width: 408
Flags: W
LayerCount: 2
Fore
SplineSet
247 228 m 0,0,1
 214 198 214 198 181 204 c 0,2,3
 121 215 121 215 121 279 c 0,4,5
 121 322 121 322 152 357 c 128,-1,6
 183 392 183 392 225 392 c 0,7,8
 288 392 288 392 288 325 c 0,9,10
 288 265 288 265 247 228 c 0,0,1
317 24 m 0,11,12
 284 -7 284 -7 250 -1 c 0,13,14
 190 10 190 10 190 74 c 0,15,16
 190 90 190 90 197 111 c 0,17,18
 223 188 223 188 294 188 c 0,19,20
 357 188 357 188 357 121 c 0,21,22
 357 62 357 62 317 24 c 0,11,12
143 26 m 0,23,24
 109 -5 109 -5 76 1 c 0,25,26
 17 11 17 11 17 75 c 0,27,28
 17 118 17 118 48 153 c 128,-1,29
 79 188 79 188 121 188 c 0,30,31
 184 188 184 188 184 121 c 0,32,33
 184 63 184 63 143 26 c 0,23,24
EndSplineSet
EndChar

StartChar: afii57382
Encoding: 65549 -1 106
Width: 413
Flags: W
LayerCount: 2
Fore
SplineSet
278 -188 m 0,0,1
 215 -188 215 -188 215 -121 c 0,2,3
 215 -62 215 -62 257 -25 c 0,4,5
 289 5 289 5 323 -1 c 0,6,7
 382 -11 382 -11 382 -75 c 0,8,9
 382 -118 382 -118 351 -153 c 128,-1,10
 320 -188 320 -188 278 -188 c 0,0,1
202 -111 m 0,11,12
 176 -188 176 -188 105 -188 c 0,13,14
 42 -188 42 -188 42 -121 c 0,15,16
 42 -63 42 -63 84 -23 c 0,17,18
 115 7 115 7 149 1 c 0,19,20
 209 -10 209 -10 209 -74 c 0,21,22
 209 -90 209 -90 202 -111 c 0,11,12
174 -391 m 0,23,24
 111 -391 111 -391 111 -324 c 0,25,26
 111 -266 111 -266 153 -228 c 0,27,28
 186 -198 186 -198 218 -204 c 0,29,30
 278 -215 278 -215 278 -279 c 0,31,32
 278 -321 278 -321 247 -356 c 128,-1,33
 216 -391 216 -391 174 -391 c 0,23,24
EndSplineSet
EndChar

StartChar: afii64242
Encoding: 65550 -1 107
Width: 512
Flags: W
LayerCount: 2
Fore
SplineSet
389 502 m 0,0,1
 376 330 376 330 271 173 c 0,2,3
 156 0 156 0 17 0 c 2,4,-1
 -10 0 l 1,5,-1
 -10 116 l 1,6,-1
 17 116 l 2,7,8
 123 116 123 116 200 245 c 0,9,10
 264 352 264 352 288 507 c 0,11,12
 295 551 295 551 338 551 c 0,13,14
 393 551 393 551 389 502 c 0,0,1
EndSplineSet
EndChar

StartChar: afii57373
Encoding: 65551 -1 112
Width: 562
Flags: W
LayerCount: 2
Fore
SplineSet
460 1222 m 0,0,1
 405 1187 405 1187 291 1159 c 0,2,3
 272 1154 272 1154 223 1144 c 2,4,-1
 148 1124 l 2,5,6
 141 1122 141 1122 134 1122 c 0,7,8
 101 1122 101 1122 101 1153 c 0,9,10
 101 1175 101 1175 125 1182 c 0,11,12
 141 1184 141 1184 221 1201 c 1,13,14
 190 1208 190 1208 167 1233.5 c 128,-1,15
 144 1259 144 1259 144 1290 c 0,16,17
 144 1330 144 1330 226 1373 c 0,18,19
 299 1411 299 1411 346 1411 c 0,20,21
 407 1411 407 1411 407 1365 c 0,22,23
 407 1346 407 1346 389 1315 c 0,24,25
 368 1283 368 1283 351 1283 c 0,26,27
 339 1283 339 1283 339 1298 c 0,28,29
 339 1304 339 1304 344 1316.5 c 128,-1,30
 349 1329 349 1329 349 1333 c 0,31,32
 349 1342 349 1342 326 1342 c 0,33,34
 294 1342 294 1342 263 1330 c 0,35,36
 221 1315 221 1315 221 1290 c 0,37,38
 221 1264 221 1264 253 1245 c 0,39,40
 282 1227 282 1227 309 1227 c 0,41,42
 340 1227 340 1227 383 1247 c 0,43,44
 400 1255 400 1255 430 1273 c 0,45,46
 438 1278 438 1278 446 1278 c 0,47,48
 473 1278 473 1278 473 1247 c 0,49,50
 473 1230 473 1230 460 1222 c 0,0,1
EndSplineSet
EndChar

StartChar: afii57374
Encoding: 65552 -1 113
Width: 645
GlyphClass: 2
Flags: W
LayerCount: 2
Fore
SplineSet
655 0 m 1,0,-1
 594 0 l 2,1,2
 419 0 419 0 290 87 c 1,3,4
 139 0 139 0 19 0 c 2,5,-1
 -10 0 l 1,6,-1
 -10 116 l 1,7,-1
 31 116 l 2,8,9
 146 116 146 116 212 166 c 1,10,11
 185 204 185 204 185 263 c 0,12,13
 185 368 185 368 255 469 c 0,14,15
 334 583 334 583 448 583 c 0,16,17
 486 583 486 583 521 567 c 0,18,19
 596 532 596 532 596 438 c 0,20,21
 596 376 596 376 558 313 c 0,22,23
 497 211 497 211 394 148 c 1,24,25
 462 116 462 116 614 116 c 2,26,-1
 655 116 l 1,27,-1
 655 0 l 1,0,-1
459 356 m 0,28,29
 485 397 485 397 485 430 c 0,30,31
 485 477 485 477 440 477 c 0,32,33
 399 477 399 477 354 426 c 0,34,35
 296 360 296 360 296 273 c 0,36,37
 296 237 296 237 310 220 c 1,38,39
 394 254 394 254 459 356 c 0,28,29
EndSplineSet
EndChar

StartChar: afii57375
Encoding: 1619 1619 114
Width: 557
GlyphClass: 2
Flags: W
LayerCount: 2
Fore
SplineSet
526 1046 m 0,0,1
 504 950 504 950 426 883 c 128,-1,2
 348 816 348 816 252 816 c 0,3,4
 200 816 200 816 157 842 c 0,5,6
 123 863 123 863 115 883 c 1,7,8
 105 838 105 838 105 765 c 0,9,10
 105 732 105 732 68 732 c 0,11,12
 25 732 25 732 25 776 c 0,13,14
 25 1013 25 1013 81 1013 c 0,15,16
 95 1013 95 1013 152.5 966.5 c 128,-1,17
 210 920 210 920 256 920 c 0,18,19
 397 920 397 920 433 1051 c 0,20,21
 447 1104 447 1104 488 1104 c 0,22,23
 528 1104 528 1104 528 1061 c 0,24,25
 528 1055 528 1055 526 1046 c 0,0,1
EndSplineSet
EndChar

StartChar: afii57391
Encoding: 59450 59450 115
Width: 1024
GlyphClass: 2
Flags: W
LayerCount: 2
Fore
SplineSet
1024 0 m 1,0,-1
 -70 0 l 1,1,-1
 -70 188 l 1,2,-1
 1024 188 l 1,3,-1
 1024 0 l 1,0,-1
EndSplineSet
EndChar

StartChar: afii57471
Encoding: 65553 -1 116
Width: 1764
Flags: W
LayerCount: 2
Fore
SplineSet
1774 0 m 1,0,-1
 1739 0 l 2,1,2
 1646 0 1646 0 1591 72 c 0,3,4
 1541 137 1541 137 1539 233 c 1,5,6
 1313 -52 1313 -52 723 -103 c 0,7,8
 654 -109 654 -109 598 -109 c 0,9,10
 150 -109 150 -109 150 211 c 0,11,12
 150 285 150 285 214 387 c 0,13,14
 306 533 306 533 375 533 c 0,15,16
 419 533 419 533 419 494 c 0,17,18
 419 471 419 471 340 380 c 0,19,20
 330 368 330 368 321 357 c 0,21,22
 270 295 270 295 265 230 c 0,23,24
 249 9 249 9 617 9 c 0,25,26
 667 9 667 9 719 13 c 0,27,28
 1041 38 1041 38 1232 124 c 0,29,30
 1493 242 1493 242 1580 493 c 0,31,32
 1594 534 1594 534 1639 534 c 0,33,34
 1688 534 1688 534 1688 490 c 0,35,36
 1688 478 1688 478 1683 464 c 0,37,38
 1638 341 1638 341 1638 249 c 0,39,40
 1638 116 1638 116 1743 116 c 2,41,-1
 1774 116 l 1,42,-1
 1774 0 l 1,0,-1
EndSplineSet
EndChar

StartChar: afii52258
Encoding: 65554 -1 117
Width: 1473
GlyphClass: 2
Flags: W
LayerCount: 2
Fore
SplineSet
1483 0 m 1,0,-1
 1422 0 l 2,1,2
 1379 0 1379 0 1299 21 c 0,3,4
 1190 50 1190 50 1118 97 c 1,5,6
 950 0 950 0 673 0 c 0,7,8
 487 0 487 0 348 47 c 0,9,10
 145 115 145 115 145 267 c 0,11,12
 145 366 145 366 240 457 c 0,13,14
 259 475 259 475 278 475 c 0,15,16
 323 475 323 475 323 425 c 0,17,18
 323 402 323 402 305 385 c 0,19,20
 257 339 257 339 257 290 c 0,21,22
 257 190 257 190 427 145 c 0,23,24
 536 116 536 116 673 116 c 0,25,26
 791 116 791 116 903 135 c 0,27,28
 1010 153 1010 153 1040 176 c 1,29,30
 1013 214 1013 214 1013 273 c 0,31,32
 1013 378 1013 378 1083 479 c 0,33,34
 1162 593 1162 593 1276 593 c 0,35,36
 1315 593 1315 593 1350 577 c 0,37,38
 1425 542 1425 542 1425 448 c 0,39,40
 1425 386 1425 386 1387 323 c 0,41,42
 1327 222 1327 222 1222 158 c 1,43,44
 1312 116 1312 116 1442 116 c 2,45,-1
 1483 116 l 1,46,-1
 1483 0 l 1,0,-1
1287 366 m 0,47,48
 1313 407 1313 407 1313 440 c 0,49,50
 1313 487 1313 487 1268 487 c 0,51,52
 1227 487 1227 487 1182 436 c 0,53,54
 1124 370 1124 370 1124 283 c 0,55,56
 1124 247 1124 247 1138 230 c 1,57,58
 1222 264 1222 264 1287 366 c 0,47,48
EndSplineSet
EndChar

StartChar: afii62889
Encoding: 65555 -1 123
Width: 1137
Flags: W
LayerCount: 2
Fore
SplineSet
1147 0 m 1,0,-1
 1086 0 l 1,1,2
 1053 -176 1053 -176 897 -283 c 0,3,4
 752 -382 752 -382 566 -382 c 0,5,6
 364 -382 364 -382 256 -268 c 0,7,8
 150 -157 150 -157 150 46 c 0,9,10
 150 119 150 119 191 217 c 0,11,12
 230 312 230 312 282 368 c 0,13,14
 312 401 312 401 342 401 c 0,15,16
 382 401 382 401 382 358 c 0,17,18
 382 335 382 335 366 310 c 0,19,20
 267 157 267 157 267 24 c 0,21,22
 267 -103 267 -103 353 -181 c 0,23,24
 436 -255 436 -255 565 -255 c 0,25,26
 716 -255 716 -255 821 -202 c 0,27,28
 951 -137 951 -137 978 -4 c 1,29,30
 661 2 661 2 661 211 c 0,31,32
 661 297 661 297 725.5 367 c 128,-1,33
 790 437 790 437 875 437 c 0,34,35
 981 437 981 437 1040 323 c 0,36,37
 1085 237 1085 237 1092 116 c 1,38,-1
 1147 116 l 1,39,-1
 1147 0 l 1,0,-1
983 119 m 1,40,41
 967 320 967 320 871 320 c 0,42,43
 825 320 825 320 794 287 c 128,-1,44
 763 254 763 254 763 208 c 0,45,46
 763 159 763 159 854 135 c 0,47,48
 914 119 914 119 983 119 c 1,40,41
EndSplineSet
EndChar

StartChar: afii62887
Encoding: 65556 -1 124
Width: 1688
Flags: W
LayerCount: 2
Fore
SplineSet
1684 402 m 0,0,1
 1686 380 1686 380 1686 366 c 0,2,3
 1686 113 1686 113 1345 -15 c 0,4,5
 1158 -85 1158 -85 891 -109 c 0,6,7
 780 -119 780 -119 679 -119 c 0,8,9
 483 -119 483 -119 351 -79 c 0,10,11
 141 -15 141 -15 151 138 c 0,12,13
 156 210 156 210 227 308 c 0,14,15
 327 445 327 445 392 445 c 0,16,17
 438 445 438 445 438 404 c 0,18,19
 438 376 438 376 407 346 c 0,20,21
 358 298 358 298 329 264 c 0,22,23
 264 186 264 186 264 135 c 0,24,25
 264 -4 264 -4 656 -4 c 0,26,27
 764 -4 764 -4 891 7 c 0,28,29
 1111 26 1111 26 1288 82 c 0,30,31
 1565 170 1565 170 1582 314 c 0,32,33
 1590 384 1590 384 1574 467 c 0,34,35
 1555 564 1555 564 1555 568 c 0,36,37
 1555 601 1555 601 1585 610 c 0,38,39
 1590 612 1590 612 1596 612 c 0,40,41
 1665 612 1665 612 1684 402 c 0,0,1
EndSplineSet
EndChar

StartChar: afii62888
Encoding: 1697 1697 125
Width: 1469
GlyphClass: 2
Flags: W
LayerCount: 2
Fore
SplineSet
1422 391 m 1,0,1
 1395 234 1395 234 1088 108 c 0,2,3
 825 0 825 0 634 0 c 0,4,5
 436 0 436 0 309 42 c 0,6,7
 155 93 155 93 155 194 c 0,8,9
 155 275 155 275 234 356 c 0,10,11
 298 422 298 422 371 451 c 0,12,13
 394 460 394 460 412 460 c 0,14,15
 460 460 460 460 460 418 c 0,16,17
 460 384 460 384 420 361 c 0,18,19
 264 272 264 272 264 186 c 0,20,21
 264 116 264 116 634 116 c 0,22,23
 785 116 785 116 968 173 c 0,24,25
 1170 236 1170 236 1265 328 c 1,26,27
 1224 316 1224 316 1172 316 c 0,28,29
 996 316 996 316 996 429 c 0,30,31
 996 522 996 522 1082 595 c 0,32,33
 1165 666 1165 666 1259 666 c 0,34,35
 1404 666 1404 666 1422 489 c 1,36,37
 1435 492 1435 492 1445 492 c 0,38,39
 1474 492 1474 492 1474 468 c 0,40,41
 1474 433 1474 433 1422 391 c 1,0,1
1326 453 m 1,42,43
 1326 551 1326 551 1259 551 c 0,44,45
 1213 551 1213 551 1159 520 c 0,46,47
 1097 484 1097 484 1097 443 c 0,48,49
 1097 420 1097 420 1186 420 c 0,50,51
 1307 420 1307 420 1326 453 c 1,42,43
EndSplineSet
Substitution2: "'medi' Medial Forms in Arabic lookup 3 subtable" afii57374
Substitution2: "'fina' Terminal Forms in Arabic lookup 2 subtable" afii52258
Substitution2: "'init' Initial Forms in Arabic lookup 1 subtable" afii57459
EndChar

StartChar: afii57567
Encoding: 1705 1705 132
Width: 1344
GlyphClass: 2
Flags: W
AnchorPoint: "Anchor-1" 600 -435 basechar 0
AnchorPoint: "Anchor-0" 660 1035 basechar 0
LayerCount: 2
Fore
SplineSet
2070 1518 m 0,0,1
 1761 1205 1761 1205 1277 929 c 0,2,3
 1268 924 1268 924 1256 924 c 0,4,5
 1205 924 1205 924 1205 970 c 0,6,7
 1205 999 1205 999 1247 1022 c 0,8,9
 1428 1121 1428 1121 1652 1285 c 0,10,11
 1890 1459 1890 1459 2002 1582 c 0,12,13
 2028 1610 2028 1610 2058 1610 c 0,14,15
 2099 1610 2099 1610 2099 1573 c 0,16,17
 2099 1547 2099 1547 2070 1518 c 0,0,1
1292 818 m 0,18,19
 1292 532 1292 532 1267 401 c 0,20,21
 1225 181 1225 181 1015 66 c 0,22,23
 841 -29 841 -29 608 -29 c 0,24,25
 152 -29 152 -29 152 236 c 0,26,27
 152 320 152 320 197 435 c 0,28,29
 219 491 219 491 269 491 c 0,30,31
 307 491 307 491 307 445 c 0,32,33
 307 424 307 424 297 395 c 0,34,35
 268 312 268 312 268 264 c 0,36,37
 268 96 268 96 618 96 c 0,38,39
 1103 96 1103 96 1158 425 c 0,40,41
 1177 538 1177 538 1177 816 c 0,42,43
 1177 880 1177 880 1236 880 c 0,44,45
 1292 880 1292 880 1292 818 c 0,18,19
EndSplineSet
Substitution2: "'medi' Medial Forms in Arabic lookup 3 subtable" afii52306
Substitution2: "'fina' Terminal Forms in Arabic lookup 2 subtable" afii62964
Substitution2: "'init' Initial Forms in Arabic lookup 1 subtable" afii52305
EndChar

StartChar: afii62964
Encoding: 64399 64399 133
Width: 1360
GlyphClass: 2
Flags: W
AnchorPoint: "Anchor-1" 615 -420 basechar 0
AnchorPoint: "Anchor-0" 720 915 basechar 0
LayerCount: 2
Fore
SplineSet
2130 1518 m 0,0,1
 1821 1205 1821 1205 1337 929 c 0,2,3
 1328 924 1328 924 1316 924 c 0,4,5
 1265 924 1265 924 1265 970 c 0,6,7
 1265 999 1265 999 1307 1022 c 0,8,9
 1488 1121 1488 1121 1712 1285 c 0,10,11
 1950 1459 1950 1459 2062 1582 c 0,12,13
 2088 1610 2088 1610 2118 1610 c 0,14,15
 2159 1610 2159 1610 2159 1573 c 0,16,17
 2159 1547 2159 1547 2130 1518 c 0,0,1
1370 0 m 1,18,-1
 1351 0 l 2,19,20
 1270 0 1270 0 1217 67 c 0,21,22
 1169 127 1169 127 1162 211 c 1,23,24
 1004 -29 1004 -29 608 -29 c 0,25,26
 152 -29 152 -29 152 236 c 0,27,28
 152 320 152 320 197 435 c 0,29,30
 219 491 219 491 269 491 c 0,31,32
 307 491 307 491 307 445 c 0,33,34
 307 424 307 424 297 395 c 0,35,36
 268 312 268 312 268 264 c 0,37,38
 268 96 268 96 618 96 c 0,39,40
 817 96 817 96 962 176 c 0,41,42
 1134 270 1134 270 1162 451 c 0,43,44
 1174 524 1174 524 1220 835 c 0,45,46
 1226 876 1226 876 1276 876 c 0,47,48
 1330 876 1330 876 1330 832 c 256,49,50
 1330 788 1330 788 1314 696 c 0,51,52
 1301 627 1301 627 1289 558 c 0,53,54
 1260 362 1260 362 1260 266 c 0,55,56
 1260 116 1260 116 1355 116 c 2,57,-1
 1370 116 l 1,58,-1
 1370 0 l 1,18,-1
EndSplineSet
EndChar

StartChar: afii52305
Encoding: 64400 64400 134
Width: 447
GlyphClass: 2
Flags: W
AnchorPoint: "Anchor-1" 165 -480 basechar 0
AnchorPoint: "Anchor-0" 390 1320 basechar 0
LayerCount: 2
Fore
SplineSet
1181 1508 m 0,0,1
 872 1195 872 1195 388 919 c 0,2,3
 379 914 379 914 367 914 c 0,4,5
 316 914 316 914 316 959 c 0,6,7
 316 989 316 989 358 1012 c 0,8,9
 536 1109 536 1109 762 1275 c 0,10,11
 1002 1451 1002 1451 1113 1572 c 0,12,13
 1139 1600 1139 1600 1169 1600 c 0,14,15
 1210 1600 1210 1600 1210 1563 c 0,16,17
 1210 1537 1210 1537 1181 1508 c 0,0,1
391 797 m 0,18,19
 391 291 391 291 246 112 c 0,20,21
 155 0 155 0 27 0 c 2,22,-1
 -10 0 l 1,23,-1
 -10 116 l 1,24,-1
 17 116 l 2,25,26
 209 116 209 116 257 454 c 0,27,28
 276 588 276 588 276 795 c 0,29,30
 276 859 276 859 335 859 c 0,31,32
 391 859 391 859 391 797 c 0,18,19
EndSplineSet
EndChar

StartChar: afii52306
Encoding: 64401 64401 135
Width: 501
GlyphClass: 2
Flags: W
AnchorPoint: "Anchor-1" 315 -450 basechar 0
AnchorPoint: "Anchor-0" 405 1305 basechar 0
LayerCount: 2
Fore
SplineSet
1271 1518 m 0,0,1
 962 1205 962 1205 478 929 c 0,2,3
 469 924 469 924 457 924 c 0,4,5
 406 924 406 924 406 969 c 0,6,7
 406 999 406 999 448 1022 c 0,8,9
 626 1119 626 1119 852 1285 c 0,10,11
 1092 1461 1092 1461 1203 1582 c 0,12,13
 1229 1610 1229 1610 1259 1610 c 0,14,15
 1300 1610 1300 1610 1300 1573 c 0,16,17
 1300 1547 1300 1547 1271 1518 c 0,0,1
511 0 m 1,18,-1
 492 0 l 2,19,20
 413 0 413 0 360.5 58.5 c 128,-1,21
 308 117 308 117 308 196 c 1,22,23
 259 109 259 109 155 49 c 0,24,25
 70 0 70 0 17 0 c 2,26,-1
 -10 0 l 1,27,-1
 -10 116 l 1,28,-1
 17 116 l 2,29,30
 113 116 113 116 206 224 c 0,31,32
 291 324 291 324 305 425 c 0,33,34
 320 533 320 533 361 835 c 0,35,36
 367 876 367 876 418 876 c 0,37,38
 471 876 471 876 471 832 c 256,39,40
 471 788 471 788 455 696 c 0,41,42
 442 627 442 627 430 558 c 0,43,44
 401 362 401 362 401 266 c 0,45,46
 401 116 401 116 496 116 c 2,47,-1
 511 116 l 1,48,-1
 511 0 l 1,18,-1
EndSplineSet
EndChar

StartChar: afii57509
Encoding: 1711 1711 136
Width: 1360
GlyphClass: 2
Flags: W
AnchorPoint: "Anchor-1" 540 -450 basechar 0
AnchorPoint: "Anchor-0" 615 990 basechar 0
LayerCount: 2
Fore
SplineSet
2054 1508 m 0,0,1
 1926 1347 1926 1347 1690 1162 c 0,2,3
 1422 952 1422 952 1266 922 c 0,4,5
 1245 918 1245 918 1230.5 932 c 128,-1,6
 1216 946 1216 946 1216 967 c 0,7,8
 1216 1012 1216 1012 1278 1033 c 0,9,10
 1289 1037 1289 1037 1319 1048 c 1,11,12
 1273 1045 1273 1045 1273 1085 c 0,13,14
 1273 1109 1273 1109 1300 1128 c 2,15,-1
 1465 1245 l 2,16,17
 1550 1305 1550 1305 1621 1377 c 0,18,19
 1653 1409 1653 1409 1678 1409 c 0,20,21
 1705 1409 1705 1409 1705 1380 c 256,22,23
 1705 1351 1705 1351 1674 1319 c 0,24,25
 1547 1186 1547 1186 1360 1065 c 1,26,27
 1701 1218 1701 1218 1985 1572 c 0,28,29
 2009 1602 2009 1602 2039 1602 c 0,30,31
 2078 1602 2078 1602 2078 1564 c 0,32,33
 2078 1538 2078 1538 2054 1508 c 0,0,1
1292 818 m 0,34,35
 1292 532 1292 532 1267 401 c 0,36,37
 1225 181 1225 181 1015 66 c 0,38,39
 841 -29 841 -29 608 -29 c 0,40,41
 152 -29 152 -29 152 236 c 0,42,43
 152 320 152 320 197 435 c 0,44,45
 219 491 219 491 269 491 c 0,46,47
 307 491 307 491 307 445 c 0,48,49
 307 424 307 424 297 395 c 0,50,51
 268 312 268 312 268 264 c 0,52,53
 268 96 268 96 618 96 c 0,54,55
 1103 96 1103 96 1158 425 c 0,56,57
 1177 538 1177 538 1177 816 c 0,58,59
 1177 880 1177 880 1236 880 c 0,60,61
 1292 880 1292 880 1292 818 c 0,34,35
EndSplineSet
Substitution2: "'medi' Medial Forms in Arabic lookup 3 subtable" afii62966
Substitution2: "'fina' Terminal Forms in Arabic lookup 2 subtable" afii62967
Substitution2: "'init' Initial Forms in Arabic lookup 1 subtable" afii62965
EndChar

StartChar: afii62967
Encoding: 64403 64403 137
Width: 1360
GlyphClass: 2
Flags: W
AnchorPoint: "Anchor-1" 570 -390 basechar 0
AnchorPoint: "Anchor-0" 675 915 basechar 0
LayerCount: 2
Fore
SplineSet
2091 1499 m 0,0,1
 1963 1338 1963 1338 1727 1153 c 0,2,3
 1459 943 1459 943 1303 913 c 0,4,5
 1282 909 1282 909 1267.5 923 c 128,-1,6
 1253 937 1253 937 1253 958 c 0,7,8
 1253 1003 1253 1003 1315 1024 c 0,9,10
 1326 1028 1326 1028 1356 1039 c 1,11,12
 1310 1036 1310 1036 1310 1076 c 0,13,14
 1310 1100 1310 1100 1337 1119 c 2,15,-1
 1502 1235 l 2,16,17
 1585 1293 1585 1293 1658 1368 c 0,18,19
 1689 1400 1689 1400 1715 1400 c 0,20,21
 1742 1400 1742 1400 1742 1371 c 256,22,23
 1742 1342 1742 1342 1711 1310 c 0,24,25
 1584 1177 1584 1177 1397 1056 c 1,26,27
 1738 1209 1738 1209 2022 1563 c 0,28,29
 2046 1593 2046 1593 2076 1593 c 0,30,31
 2115 1593 2115 1593 2115 1555 c 0,32,33
 2115 1529 2115 1529 2091 1499 c 0,0,1
1370 0 m 1,34,-1
 1351 0 l 2,35,36
 1270 0 1270 0 1217 67 c 0,37,38
 1169 127 1169 127 1162 211 c 1,39,40
 1004 -29 1004 -29 608 -29 c 0,41,42
 152 -29 152 -29 152 236 c 0,43,44
 152 320 152 320 197 435 c 0,45,46
 219 491 219 491 269 491 c 0,47,48
 307 491 307 491 307 445 c 0,49,50
 307 424 307 424 297 395 c 0,51,52
 268 312 268 312 268 264 c 0,53,54
 268 96 268 96 618 96 c 0,55,56
 817 96 817 96 962 176 c 0,57,58
 1134 270 1134 270 1162 451 c 0,59,60
 1174 524 1174 524 1220 835 c 0,61,62
 1226 876 1226 876 1276 876 c 0,63,64
 1330 876 1330 876 1330 832 c 256,65,66
 1330 788 1330 788 1314 696 c 0,67,68
 1301 627 1301 627 1289 558 c 0,69,70
 1260 362 1260 362 1260 266 c 0,71,72
 1260 116 1260 116 1355 116 c 2,73,-1
 1370 116 l 1,74,-1
 1370 0 l 1,34,-1
EndSplineSet
EndChar

StartChar: afii62965
Encoding: 64404 64404 138
Width: 437
GlyphClass: 2
Flags: W
AnchorPoint: "Anchor-1" 165 -375 basechar 0
AnchorPoint: "Anchor-0" 435 1410 basechar 0
LayerCount: 2
Fore
SplineSet
1172 1488 m 0,0,1
 1045 1329 1045 1329 807 1142 c 0,2,3
 540 932 540 932 384 902 c 0,4,5
 364 898 364 898 349 912 c 128,-1,6
 334 926 334 926 334 947 c 0,7,8
 334 992 334 992 396 1013 c 0,9,10
 407 1017 407 1017 437 1028 c 1,11,12
 391 1025 391 1025 391 1065 c 0,13,14
 391 1089 391 1089 418 1108 c 2,15,-1
 582 1224 l 2,16,17
 664 1282 664 1282 739 1357 c 0,18,19
 771 1389 771 1389 796 1389 c 0,20,21
 823 1389 823 1389 823 1360 c 256,22,23
 823 1331 823 1331 792 1299 c 0,24,25
 669 1172 669 1172 478 1045 c 1,26,27
 819 1198 819 1198 1103 1552 c 0,28,29
 1127 1582 1127 1582 1157 1582 c 0,30,31
 1196 1582 1196 1582 1196 1544 c 0,32,33
 1196 1518 1196 1518 1172 1488 c 0,0,1
391 797 m 0,34,35
 391 291 391 291 246 112 c 0,36,37
 155 0 155 0 27 0 c 2,38,-1
 -10 0 l 1,39,-1
 -10 116 l 1,40,-1
 17 116 l 2,41,42
 209 116 209 116 257 454 c 0,43,44
 276 588 276 588 276 795 c 0,45,46
 276 859 276 859 335 859 c 0,47,48
 391 859 391 859 391 797 c 0,34,35
EndSplineSet
EndChar

StartChar: afii62966
Encoding: 64405 64405 139
Width: 501
GlyphClass: 2
Flags: W
AnchorPoint: "Anchor-1" 300 -465 basechar 0
AnchorPoint: "Anchor-0" 465 1380 basechar 0
LayerCount: 2
Fore
SplineSet
1232 1498 m 0,0,1
 1105 1339 1105 1339 867 1152 c 0,2,3
 600 942 600 942 444 912 c 0,4,5
 424 908 424 908 409 922 c 128,-1,6
 394 936 394 936 394 957 c 0,7,8
 394 1002 394 1002 456 1023 c 0,9,10
 467 1027 467 1027 497 1038 c 1,11,12
 451 1035 451 1035 451 1075 c 0,13,14
 451 1099 451 1099 478 1118 c 2,15,-1
 642 1234 l 2,16,17
 724 1292 724 1292 799 1367 c 0,18,19
 831 1399 831 1399 856 1399 c 0,20,21
 883 1399 883 1399 883 1370 c 256,22,23
 883 1341 883 1341 852 1309 c 0,24,25
 727 1178 727 1178 537 1055 c 1,26,27
 879 1208 879 1208 1163 1562 c 0,28,29
 1187 1592 1187 1592 1217 1592 c 0,30,31
 1256 1592 1256 1592 1256 1554 c 0,32,33
 1256 1528 1256 1528 1232 1498 c 0,0,1
511 0 m 1,34,-1
 492 0 l 2,35,36
 413 0 413 0 360.5 58.5 c 128,-1,37
 308 117 308 117 308 196 c 1,38,39
 259 109 259 109 155 49 c 0,40,41
 70 0 70 0 17 0 c 2,42,-1
 -10 0 l 1,43,-1
 -10 116 l 1,44,-1
 17 116 l 2,45,46
 113 116 113 116 206 224 c 0,47,48
 291 324 291 324 305 425 c 0,49,50
 320 533 320 533 361 835 c 0,51,52
 367 876 367 876 418 876 c 0,53,54
 471 876 471 876 471 832 c 256,55,56
 471 788 471 788 455 696 c 0,57,58
 442 627 442 627 430 558 c 0,59,60
 401 362 401 362 401 266 c 0,61,62
 401 116 401 116 496 116 c 2,63,-1
 511 116 l 1,64,-1
 511 0 l 1,34,-1
EndSplineSet
EndChar

StartChar: afii57555
Encoding: 1740 1740 140
Width: 1196
GlyphClass: 2
Flags: W
AnchorPoint: "Anchor-1" 495 -675 basechar 0
AnchorPoint: "Anchor-0" 705 855 basechar 0
LayerCount: 2
Fore
SplineSet
1230 592 m 1,0,1
 1230 554 1230 554 1176 480 c 0,2,3
 1121 403 1121 403 1086 403 c 0,4,5
 1071 403 1071 403 1071 420 c 0,6,7
 1071 436 1071 436 1096 470 c 0,8,9
 1128 513 1128 513 1131 521 c 1,10,11
 833 389 833 389 818 303 c 0,12,13
 813 272 813 272 880 249 c 0,14,15
 985 213 985 213 1010 198 c 0,16,17
 1081 155 1081 155 1081 76 c 0,18,19
 1081 -74 1081 -74 905 -205 c 0,20,21
 744 -325 744 -325 552 -325 c 0,22,23
 504 -325 504 -325 457 -317 c 0,24,25
 318 -293 318 -293 237 -205 c 0,26,27
 153 -114 153 -114 153 25 c 0,28,29
 153 240 153 240 343 463 c 0,30,31
 369 494 369 494 399 494 c 0,32,33
 449 494 449 494 449 443 c 0,34,35
 449 421 449 421 432 401 c 0,36,37
 264 201 264 201 264 44 c 0,38,39
 264 -151 264 -151 498 -192 c 0,40,41
 538 -199 538 -199 577 -199 c 0,42,43
 690 -199 690 -199 814 -135 c 0,44,45
 961 -59 961 -59 961 45 c 0,46,47
 961 87 961 87 817.5 148 c 128,-1,48
 674 209 674 209 674 255 c 0,49,50
 674 367 674 367 861 499 c 0,51,52
 1015 608 1015 608 1153 648 c 0,53,54
 1163 651 1163 651 1173 651 c 0,55,56
 1198 651 1198 651 1216 634 c 128,-1,57
 1234 617 1234 617 1230 592 c 1,0,1
EndSplineSet
Substitution2: "'medi' Medial Forms in Arabic lookup 3 subtable" afii62832
Substitution2: "'fina' Terminal Forms in Arabic lookup 2 subtable" afii52364
Substitution2: "'init' Initial Forms in Arabic lookup 1 subtable" uniFBFE
EndChar

StartChar: afii52364
Encoding: 64509 64509 141
Width: 1003
GlyphClass: 2
Flags: W
AnchorPoint: "Anchor-1" 450 -930 basechar 0
AnchorPoint: "Anchor-0" 510 555 basechar 0
LayerCount: 2
Fore
SplineSet
1017 -63 m 0,0,1
 1017 -270 1017 -270 846 -396 c 0,2,3
 692 -509 692 -509 478 -509 c 0,4,5
 325 -509 325 -509 237.5 -419 c 128,-1,6
 150 -329 150 -329 150 -175 c 0,7,8
 150 55 150 55 334 271 c 0,9,10
 360 302 360 302 390 302 c 0,11,12
 440 302 440 302 440 251 c 0,13,14
 440 229 440 229 423 209 c 0,15,16
 257 12 257 12 257 -159 c 0,17,18
 257 -264 257 -264 320 -324 c 128,-1,19
 383 -384 383 -384 489 -384 c 0,20,21
 669 -384 669 -384 792 -299 c 0,22,23
 903 -222 903 -222 903 -130 c 0,24,25
 903 -105 903 -105 850 -104 c 0,26,27
 830 -104 830 -104 777 -104 c 0,28,29
 651 -103 651 -103 651 -31 c 0,30,31
 651 65 651 65 745 96 c 0,32,33
 805 116 805 116 957 116 c 2,34,-1
 1013 116 l 1,35,-1
 1013 0 l 1,36,-1
 761 0 l 1,37,38
 768 -9 768 -9 807 -9 c 0,39,40
 822 -9 822 -9 852 -7.5 c 128,-1,41
 882 -6 882 -6 897 -6 c 0,42,43
 1017 -6 1017 -6 1017 -63 c 0,0,1
EndSplineSet
EndChar

StartChar: afii62945
Encoding: 65557 -1 147
Width: 1357
GlyphClass: 3
Flags: W
AnchorPoint: "Anchor-3" 1140 -255 baselig 0
AnchorPoint: "Anchor-2" 1335 870 baselig 0
AnchorPoint: "Anchor-3" 690 -330 baselig 1
AnchorPoint: "Anchor-2" 930 675 baselig 1
AnchorPoint: "Anchor-3" 270 -270 baselig 2
AnchorPoint: "Anchor-2" 375 555 baselig 2
LayerCount: 2
Fore
SplineSet
1357 711 m 0,0,1
 1337 440 1337 440 1258 251 c 0,2,3
 1154 0 1154 0 981 0 c 0,4,5
 928 0 928 0 882 43 c 128,-1,6
 836 86 836 86 836 138 c 1,7,8
 747 0 747 0 651 0 c 0,9,10
 518 0 518 0 476 116 c 1,11,12
 455 113 455 113 432 113 c 0,13,14
 345 113 345 113 281 146 c 0,15,16
 200 188 200 188 200 267 c 0,17,18
 200 337 200 337 268 383 c 0,19,20
 308 410 308 410 406 443 c 0,21,22
 493 472 493 472 512 489 c 0,23,24
 520 496 520 496 531 532 c 0,25,26
 540 560 540 560 575 560 c 0,27,28
 622 560 622 560 622 522 c 0,29,30
 622 515 622 515 618 505 c 0,31,32
 562 362 562 362 562 247 c 0,33,34
 562 116 562 116 655 116 c 0,35,36
 792 116 792 116 856 536 c 0,37,38
 862 578 862 578 908 578 c 0,39,40
 955 578 955 578 955 541 c 0,41,42
 955 493 955 493 935 399.5 c 128,-1,43
 915 306 915 306 915 258 c 0,44,45
 915 116 915 116 985 116 c 0,46,47
 1107 116 1107 116 1184 331 c 0,48,49
 1243 495 1243 495 1256 716 c 0,50,51
 1259 761 1259 761 1303 761 c 0,52,53
 1361 761 1361 761 1357 711 c 0,0,1
486 379 m 1,54,55
 453 369 453 369 369 341 c 0,56,57
 297 316 297 316 297 267 c 0,58,59
 297 206 297 206 422 206 c 0,60,61
 449 206 449 206 467 211 c 1,62,63
 467 283 467 283 486 379 c 1,54,55
EndSplineSet
EndChar

StartChar: afii64184
Encoding: 65010 65010 148
Width: 1357
GlyphClass: 3
Flags: W
AnchorPoint: "Anchor-3" 1095 -255 baselig 0
AnchorPoint: "Anchor-2" 1335 870 baselig 0
AnchorPoint: "Anchor-3" 720 -360 baselig 1
AnchorPoint: "Anchor-2" 930 645 baselig 1
AnchorPoint: "Anchor-3" 330 -285 baselig 2
AnchorPoint: "Anchor-2" 375 690 baselig 2
LayerCount: 2
Fore
SplineSet
947 910 m 0,0,1
 939 881 939 881 909 881 c 0,2,3
 878 881 878 881 884 909 c 0,4,5
 904 1003 904 1003 884 1075 c 0,6,7
 876 1103 876 1103 912 1103 c 0,8,9
 941 1103 941 1103 947 1076 c 0,10,11
 968 987 968 987 947 910 c 0,0,1
1055 816 m 0,12,13
 1066 786 1066 786 1066 755 c 0,14,15
 1066 643 1066 643 978 641 c 0,16,17
 938 640 938 640 917 668 c 1,18,19
 899 639 899 639 857 640 c 0,20,21
 770 643 770 643 770 752 c 0,22,23
 770 783 770 783 781 815 c 0,24,25
 786 830 786 830 807 830 c 0,26,27
 835 830 835 830 835 807 c 0,28,29
 835 802 835 802 833 796 c 0,30,31
 823 769 823 769 826 741 c 0,32,33
 830 704 830 704 858 704 c 0,34,35
 895 704 895 704 895 747 c 0,36,37
 895 751 895 751 893 762 c 0,38,39
 886 800 886 800 917 800 c 0,40,41
 946 800 946 800 943 765 c 0,42,43
 938 704 938 704 982 704 c 0,44,45
 987 704 987 704 991 705 c 0,46,47
 1013 714 1013 714 1013 744 c 0,48,49
 1013 765 1013 765 1001 798 c 0,50,51
 999 804 999 804 999 809 c 0,52,53
 999 832 999 832 1028 832 c 0,54,55
 1049 832 1049 832 1055 816 c 0,12,13
1357 711 m 0,56,57
 1337 440 1337 440 1258 251 c 0,58,59
 1154 0 1154 0 981 0 c 0,60,61
 928 0 928 0 882 43 c 128,-1,62
 836 86 836 86 836 138 c 1,63,64
 747 0 747 0 651 0 c 0,65,66
 518 0 518 0 476 116 c 1,67,68
 455 113 455 113 432 113 c 0,69,70
 345 113 345 113 281 146 c 0,71,72
 200 188 200 188 200 267 c 0,73,74
 200 337 200 337 268 383 c 0,75,76
 308 410 308 410 406 443 c 0,77,78
 493 472 493 472 512 489 c 0,79,80
 520 496 520 496 531 532 c 0,81,82
 540 560 540 560 575 560 c 0,83,84
 622 560 622 560 622 522 c 0,85,86
 622 515 622 515 618 505 c 0,87,88
 562 362 562 362 562 247 c 0,89,90
 562 116 562 116 655 116 c 0,91,92
 792 116 792 116 856 536 c 0,93,94
 862 578 862 578 908 578 c 0,95,96
 955 578 955 578 955 541 c 0,97,98
 955 493 955 493 935 399.5 c 128,-1,99
 915 306 915 306 915 258 c 0,100,101
 915 116 915 116 985 116 c 0,102,103
 1107 116 1107 116 1184 331 c 0,104,105
 1243 495 1243 495 1256 716 c 0,106,107
 1259 761 1259 761 1303 761 c 0,108,109
 1361 761 1361 761 1357 711 c 0,56,57
486 379 m 1,110,111
 453 369 453 369 369 341 c 0,112,113
 297 316 297 316 297 267 c 0,114,115
 297 206 297 206 422 206 c 0,116,117
 449 206 449 206 467 211 c 1,118,119
 467 283 467 283 486 379 c 1,110,111
EndSplineSet
Ligature2: "'rlig' Required Ligatures in Arabic lookup 5 subtable" afii62817 afii62818 uniFC63 afii62828
Ligature2: "'rlig' Required Ligatures in Arabic lookup 5 subtable" afii62817 afii62818 afii57457 uni0670 afii62828
EndChar

StartChar: afii57415.001
Encoding: 1575 1575 162
Width: 396
GlyphClass: 2
Flags: W
AnchorPoint: "Anchor-1" 195 -330 basechar 0
AnchorPoint: "Anchor-0" 375 1125 basechar 0
LayerCount: 2
Fore
SplineSet
396 891 m 0,0,1
 387 648 387 648 361 485 c 0,2,3
 333 310 333 310 255 49 c 0,4,5
 241 1 241 1 195 1 c 0,6,7
 153 1 153 1 153 53 c 0,8,9
 153 73 153 73 160 96 c 0,10,11
 287 522 287 522 299 925 c 0,12,13
 300 973 300 973 341 973 c 0,14,15
 399 973 399 973 396 891 c 0,0,1
EndSplineSet
Substitution2: "'fina' Terminal Forms in Arabic lookup 2 subtable" afii62760
EndChar

StartChar: afii62760.001
Encoding: 65558 -1 163
Width: 373
GlyphClass: 2
Flags: W
LayerCount: 2
Fore
SplineSet
447 885 m 2,0,-1
 337 573 l 2,1,2
 259 352 259 352 259 266 c 0,3,4
 259 191 259 191 275 160 c 0,5,6
 298 116 298 116 368 116 c 2,7,-1
 383 116 l 1,8,-1
 383 0 l 1,9,-1
 364 0 l 2,10,11
 160 0 160 0 160 236 c 0,12,13
 160 403 160 403 352 928 c 0,14,15
 367 970 367 970 407 970 c 0,16,17
 453 970 453 970 453 918 c 0,18,19
 453 902 453 902 447 885 c 2,0,-1
EndSplineSet
EndChar

StartChar: afii57421
Encoding: 1581 1581 182
Width: 860
GlyphClass: 2
Flags: W
AnchorPoint: "Anchor-1" 480 -1065 basechar 0
AnchorPoint: "Anchor-0" 600 810 basechar 0
LayerCount: 2
Fore
SplineSet
1035 -517 m 0,0,1
 902 -589 902 -589 836 -613 c 0,2,3
 699 -663 699 -663 540 -663 c 0,4,5
 366 -663 366 -663 262 -578 c 0,6,7
 150 -487 150 -487 150 -316 c 0,8,9
 150 -154 150 -154 257 4 c 0,10,11
 347 138 347 138 460 211 c 1,12,13
 476 227 476 227 644 331 c 1,14,15
 583 331 583 331 503 364 c 128,-1,16
 423 397 423 397 376 439 c 1,17,18
 357 415 357 415 347 365.5 c 128,-1,19
 337 316 337 316 343 284 c 0,20,21
 348 259 348 259 331 239 c 128,-1,22
 314 219 314 219 288 219 c 0,23,24
 245 219 245 219 245 294 c 0,25,26
 245 389 245 389 275 476 c 0,27,28
 310 578 310 578 363 578 c 0,29,30
 378 578 378 578 497 501 c 0,31,32
 620 422 620 422 833 422 c 0,33,34
 888 422 888 422 888 368 c 0,35,36
 888 336 888 336 865 325 c 0,37,38
 723 256 723 256 651 210 c 0,39,40
 263 -38 263 -38 263 -315 c 0,41,42
 263 -431 263 -431 345 -493 c 0,43,44
 419 -550 419 -550 538 -550 c 0,45,46
 779 -550 779 -550 993 -415 c 0,47,48
 1004 -408 1004 -408 1016 -408 c 0,49,50
 1063 -408 1063 -408 1063 -468 c 0,51,52
 1063 -502 1063 -502 1035 -517 c 0,0,1
EndSplineSet
Substitution2: "'medi' Medial Forms in Arabic lookup 3 subtable" afii62775
Substitution2: "'fina' Terminal Forms in Arabic lookup 2 subtable" afii62776
Substitution2: "'init' Initial Forms in Arabic lookup 1 subtable" afii62774
EndChar

StartChar: afii62776
Encoding: 65186 65186 183
Width: 860
GlyphClass: 2
Flags: W
AnchorPoint: "Anchor-1" 510 -975 basechar 0
AnchorPoint: "Anchor-0" 585 795 basechar 0
LayerCount: 2
Fore
SplineSet
887 -592 m 0,0,1
 721 -663 721 -663 540 -663 c 0,2,3
 365 -663 365 -663 262 -578 c 0,4,5
 150 -487 150 -487 150 -316 c 0,6,7
 150 -154 150 -154 257 4 c 0,8,9
 347 138 347 138 460 211 c 1,10,11
 476 227 476 227 644 331 c 1,12,13
 582 331 582 331 502 364 c 0,14,15
 426 396 426 396 376 439 c 1,16,17
 357 415 357 415 347 365.5 c 128,-1,18
 337 316 337 316 343 284 c 0,19,20
 348 259 348 259 331 239 c 128,-1,21
 314 219 314 219 288 219 c 0,22,23
 245 219 245 219 245 294 c 0,24,25
 245 389 245 389 275 476 c 0,26,27
 310 578 310 578 363 578 c 0,28,29
 378 578 378 578 497 501 c 0,30,31
 620 422 620 422 833 422 c 0,32,33
 888 422 888 422 888 368 c 0,34,35
 888 336 888 336 865 325 c 0,36,37
 817 303 817 303 753 267 c 1,38,39
 746 241 746 241 746 217 c 0,40,41
 746 116 746 116 836 116 c 2,42,-1
 870 116 l 1,43,-1
 870 0 l 1,44,-1
 822 0 l 2,45,46
 747 0 747 0 697 69 c 0,47,48
 651 133 651 133 651 210 c 1,49,50
 263 -33 263 -33 263 -315 c 0,51,52
 263 -431 263 -431 345 -493 c 0,53,54
 419 -550 419 -550 538 -550 c 0,55,56
 701 -550 701 -550 860 -485 c 0,57,58
 870 -481 870 -481 882 -481 c 0,59,60
 936 -481 936 -481 936 -533 c 0,61,62
 936 -571 936 -571 887 -592 c 0,0,1
EndSplineSet
EndChar

StartChar: afii62774
Encoding: 65187 65187 184
Width: 534
GlyphClass: 2
Flags: W
AnchorPoint: "Anchor-1" 225 -510 basechar 0
AnchorPoint: "Anchor-0" 315 945 basechar 0
LayerCount: 2
Fore
SplineSet
533 186 m 0,0,1
 533 128 533 128 383 73 c 0,2,3
 183 0 183 0 58 0 c 2,4,-1
 -10 0 l 1,5,-1
 -10 116 l 1,6,-1
 66 116 l 2,7,8
 193 116 193 116 352 181 c 1,9,10
 347 231 347 231 316 515 c 1,11,12
 187 315 187 315 155 236 c 0,13,14
 135 187 135 187 95 187 c 0,15,16
 49 187 49 187 49 240 c 0,17,18
 49 301 49 301 160 484 c 0,19,20
 276 676 276 676 335 676 c 0,21,22
 389 676 389 676 418 557 c 0,23,24
 433 495 433 495 443 392 c 0,25,26
 447 345 447 345 458 221 c 1,27,28
 503 244 503 244 525 212 c 0,29,30
 533 200 533 200 533 186 c 0,0,1
EndSplineSet
EndChar

StartChar: afii62775
Encoding: 65188 65188 185
Width: 519
GlyphClass: 2
Flags: W
AnchorPoint: "Anchor-1" 225 -450 basechar 0
AnchorPoint: "Anchor-0" 300 945 basechar 0
LayerCount: 2
Fore
SplineSet
535 182 m 0,0,1
 535 161 535 161 484 120 c 1,2,3
 486 116 486 116 508 116 c 2,4,-1
 529 116 l 1,5,-1
 529 0 l 1,6,-1
 491 0 l 2,7,8
 403 0 403 0 383 73 c 1,9,10
 215 0 215 0 58 0 c 2,11,-1
 -10 0 l 1,12,-1
 -10 116 l 1,13,-1
 66 116 l 2,14,15
 194 116 194 116 351 181 c 1,16,17
 350 199 350 199 316 515 c 1,18,19
 187 315 187 315 155 236 c 0,20,21
 135 187 135 187 95 187 c 0,22,23
 49 187 49 187 49 240 c 0,24,25
 49 301 49 301 160 484 c 0,26,27
 276 676 276 676 335 676 c 0,28,29
 389 676 389 676 418 557 c 0,30,31
 431 503 431 503 443 392 c 0,32,33
 447 347 447 347 459 226 c 1,34,35
 474 231 474 231 487 231 c 0,36,37
 535 231 535 231 535 182 c 0,0,1
EndSplineSet
EndChar

StartChar: afii57423
Encoding: 1583 1583 190
Width: 600
GlyphClass: 2
Flags: W
AnchorPoint: "Anchor-1" 165 -735 basechar 0
AnchorPoint: "Anchor-0" 270 705 basechar 0
LayerCount: 2
Fore
SplineSet
600 152 m 0,0,1
 600 57 600 57 469 -98 c 0,2,3
 359 -228 359 -228 213 -338 c 0,4,5
 197 -350 197 -350 180 -350 c 0,6,7
 157 -350 157 -350 139 -330.5 c 128,-1,8
 121 -311 121 -311 121 -288 c 0,9,10
 121 -264 121 -264 142 -250 c 0,11,12
 230 -191 230 -191 349 -72 c 0,13,14
 495 73 495 73 495 139 c 0,15,16
 495 184 495 184 297 355 c 0,17,18
 277 372 277 372 277 394 c 0,19,20
 277 419 277 419 297 438 c 128,-1,21
 317 457 317 457 342 457 c 0,22,23
 360 457 360 457 374 445 c 0,24,25
 600 254 600 254 600 152 c 0,0,1
EndSplineSet
Substitution2: "'fina' Terminal Forms in Arabic lookup 2 subtable" afii62780
PairPos2: "'kern' Horizontal Kerning in Arabic lookup 0 subtable" afii57410 dx=0 dy=0 dh=0 dv=0 dx=0 dy=0 dh=-100 dv=0
PairPos2: "'kern' Horizontal Kerning in Arabic lookup 0 subtable" afii57434 dx=0 dy=0 dh=0 dv=0 dx=0 dy=0 dh=200 dv=0
PairPos2: "'kern' Horizontal Kerning in Arabic lookup 0 subtable" afii57433 dx=0 dy=0 dh=0 dv=0 dx=0 dy=0 dh=200 dv=0
PairPos2: "'kern' Horizontal Kerning in Arabic lookup 0 subtable" afii57422 dx=0 dy=0 dh=0 dv=0 dx=0 dy=0 dh=100 dv=0
PairPos2: "'kern' Horizontal Kerning in Arabic lookup 0 subtable" afii57421 dx=0 dy=0 dh=0 dv=0 dx=0 dy=0 dh=100 dv=0
PairPos2: "'kern' Horizontal Kerning in Arabic lookup 0 subtable" afii57420 dx=0 dy=0 dh=0 dv=0 dx=0 dy=0 dh=100 dv=0
PairPos2: "'kern' Horizontal Kerning in Arabic lookup 0 subtable" afii62965 dx=0 dy=0 dh=0 dv=0 dx=0 dy=0 dh=-100 dv=0
PairPos2: "'kern' Horizontal Kerning in Arabic lookup 0 subtable" afii57509 dx=0 dy=0 dh=0 dv=0 dx=0 dy=0 dh=-100 dv=0
PairPos2: "'kern' Horizontal Kerning in Arabic lookup 0 subtable" afii52305 dx=0 dy=0 dh=0 dv=0 dx=0 dy=0 dh=-100 dv=0
PairPos2: "'kern' Horizontal Kerning in Arabic lookup 0 subtable" afii57567 dx=0 dy=0 dh=0 dv=0 dx=0 dy=0 dh=-100 dv=0
PairPos2: "'kern' Horizontal Kerning in Arabic lookup 0 subtable" afii57507 dx=0 dy=0 dh=0 dv=0 dx=0 dy=0 dh=100 dv=0
EndChar

StartChar: afii62780
Encoding: 65194 65194 191
Width: 673
GlyphClass: 2
Flags: W
AnchorPoint: "Anchor-1" 165 -525 basechar 0
AnchorPoint: "Anchor-0" 480 720 basechar 0
LayerCount: 2
Fore
SplineSet
683 0 m 1,0,-1
 663 0 l 2,1,2
 599 0 599 0 554 33 c 0,3,4
 505 68 505 68 495 129 c 1,5,6
 407 -49 407 -49 185 -205 c 0,7,8
 171 -215 171 -215 154 -215 c 0,9,10
 130 -215 130 -215 112 -195.5 c 128,-1,11
 94 -176 94 -176 94 -152 c 256,12,13
 94 -128 94 -128 115 -116 c 0,14,15
 260 -32 260 -32 366 132 c 0,16,17
 453 266 453 266 495 483 c 0,18,19
 504 528 504 528 545 528 c 0,20,21
 569 528 569 528 587.5 513 c 128,-1,22
 606 498 606 498 600 475 c 0,23,24
 572 365 572 365 572 277 c 0,25,26
 572 116 572 116 667 116 c 2,27,-1
 683 116 l 1,28,-1
 683 0 l 1,0,-1
EndSplineSet
PairPos2: "'kern' Horizontal Kerning in Arabic lookup 0 subtable" afii57410 dx=0 dy=0 dh=0 dv=0 dx=0 dy=0 dh=-100 dv=0
PairPos2: "'kern' Horizontal Kerning in Arabic lookup 0 subtable" afii57434 dx=0 dy=0 dh=0 dv=0 dx=0 dy=0 dh=200 dv=0
PairPos2: "'kern' Horizontal Kerning in Arabic lookup 0 subtable" afii57433 dx=0 dy=0 dh=0 dv=0 dx=0 dy=0 dh=200 dv=0
PairPos2: "'kern' Horizontal Kerning in Arabic lookup 0 subtable" afii57422 dx=0 dy=0 dh=0 dv=0 dx=0 dy=0 dh=100 dv=0
PairPos2: "'kern' Horizontal Kerning in Arabic lookup 0 subtable" afii57421 dx=0 dy=0 dh=0 dv=0 dx=0 dy=0 dh=100 dv=0
PairPos2: "'kern' Horizontal Kerning in Arabic lookup 0 subtable" afii57420 dx=0 dy=0 dh=0 dv=0 dx=0 dy=0 dh=100 dv=0
PairPos2: "'kern' Horizontal Kerning in Arabic lookup 0 subtable" afii62965 dx=0 dy=0 dh=0 dv=0 dx=0 dy=0 dh=-100 dv=0
PairPos2: "'kern' Horizontal Kerning in Arabic lookup 0 subtable" afii57509 dx=0 dy=0 dh=0 dv=0 dx=0 dy=0 dh=-100 dv=0
PairPos2: "'kern' Horizontal Kerning in Arabic lookup 0 subtable" afii52305 dx=0 dy=0 dh=0 dv=0 dx=0 dy=0 dh=-100 dv=0
PairPos2: "'kern' Horizontal Kerning in Arabic lookup 0 subtable" afii57567 dx=0 dy=0 dh=0 dv=0 dx=0 dy=0 dh=-100 dv=0
PairPos2: "'kern' Horizontal Kerning in Arabic lookup 0 subtable" afii57507 dx=0 dy=0 dh=0 dv=0 dx=0 dy=0 dh=100 dv=0
EndChar

StartChar: afii57425
Encoding: 1585 1585 194
Width: 557
GlyphClass: 2
Flags: W
AnchorPoint: "Anchor-1" 165 -720 basechar 0
AnchorPoint: "Anchor-0" 525 630 basechar 0
LayerCount: 2
Fore
SplineSet
553 198 m 0,0,1
 447 -89 447 -89 177 -352 c 0,2,3
 149 -379 149 -379 119 -379 c 0,4,5
 64 -379 64 -379 64 -328 c 0,6,7
 64 -304 64 -304 86 -285 c 0,8,9
 346 -55 346 -55 454 226 c 0,10,11
 470 268 470 268 510 268 c 0,12,13
 558 268 558 268 558 222 c 0,14,15
 558 212 558 212 553 198 c 0,0,1
EndSplineSet
Substitution2: "'fina' Terminal Forms in Arabic lookup 2 subtable" afii62782
PairPos2: "'kern' Horizontal Kerning in Arabic lookup 0 subtable" afii57415 dx=0 dy=0 dh=0 dv=0 dx=0 dy=0 dh=-50 dv=0
PairPos2: "'kern' Horizontal Kerning in Arabic lookup 0 subtable" uni0675 dx=0 dy=0 dh=0 dv=0 dx=0 dy=0 dh=-50 dv=0
PairPos2: "'kern' Horizontal Kerning in Arabic lookup 0 subtable" uni0672 dx=0 dy=0 dh=0 dv=0 dx=0 dy=0 dh=-50 dv=0
PairPos2: "'kern' Horizontal Kerning in Arabic lookup 0 subtable" afii57410 dx=0 dy=0 dh=0 dv=0 dx=0 dy=0 dh=-100 dv=0
PairPos2: "'kern' Horizontal Kerning in Arabic lookup 0 subtable" afii57422 dx=0 dy=0 dh=0 dv=0 dx=0 dy=0 dh=200 dv=0
PairPos2: "'kern' Horizontal Kerning in Arabic lookup 0 subtable" afii57421 dx=0 dy=0 dh=0 dv=0 dx=0 dy=0 dh=200 dv=0
PairPos2: "'kern' Horizontal Kerning in Arabic lookup 0 subtable" afii57420 dx=0 dy=0 dh=0 dv=0 dx=0 dy=0 dh=200 dv=0
PairPos2: "'kern' Horizontal Kerning in Arabic lookup 0 subtable" afii57411 dx=0 dy=0 dh=0 dv=0 dx=0 dy=0 dh=-50 dv=0
PairPos2: "'kern' Horizontal Kerning in Arabic lookup 0 subtable" afii62965 dx=0 dy=0 dh=0 dv=0 dx=0 dy=0 dh=-100 dv=0
PairPos2: "'kern' Horizontal Kerning in Arabic lookup 0 subtable" afii57509 dx=0 dy=0 dh=0 dv=0 dx=0 dy=0 dh=-100 dv=0
PairPos2: "'kern' Horizontal Kerning in Arabic lookup 0 subtable" afii52305 dx=0 dy=0 dh=0 dv=0 dx=0 dy=0 dh=-100 dv=0
PairPos2: "'kern' Horizontal Kerning in Arabic lookup 0 subtable" afii57567 dx=0 dy=0 dh=0 dv=0 dx=0 dy=0 dh=-100 dv=0
PairPos2: "'kern' Horizontal Kerning in Arabic lookup 0 subtable" afii57507 dx=0 dy=0 dh=0 dv=0 dx=0 dy=0 dh=200 dv=0
EndChar

StartChar: afii62782
Encoding: 65198 65198 195
Width: 632
GlyphClass: 2
Flags: W
AnchorPoint: "Anchor-1" 135 -735 basechar 0
AnchorPoint: "Anchor-0" 510 645 basechar 0
LayerCount: 2
Fore
SplineSet
642 0 m 1,0,-1
 622 0 l 2,1,2
 528 0 528 0 471 94 c 1,3,4
 376 -129 376 -129 174 -358 c 0,5,6
 156 -378 156 -378 131 -378 c 0,7,8
 108 -378 108 -378 88.5 -363 c 128,-1,9
 69 -348 69 -348 69 -326 c 0,10,11
 69 -309 69 -309 83 -294 c 0,12,13
 199 -171 199 -171 302 1 c 0,14,15
 411 181 411 181 456 334 c 0,16,17
 470 382 470 382 514 382 c 0,18,19
 561 382 561 382 561 337 c 0,20,21
 561 317 561 317 552.5 273.5 c 128,-1,22
 544 230 544 230 544 208 c 0,23,24
 544 116 544 116 626 116 c 2,25,-1
 642 116 l 1,26,-1
 642 0 l 1,0,-1
EndSplineSet
PairPos2: "'kern' Horizontal Kerning in Arabic lookup 0 subtable" afii57415 dx=0 dy=0 dh=0 dv=0 dx=0 dy=0 dh=-100 dv=0
PairPos2: "'kern' Horizontal Kerning in Arabic lookup 0 subtable" afii62817 dx=0 dy=0 dh=0 dv=0 dx=0 dy=0 dh=-70 dv=0
PairPos2: "'kern' Horizontal Kerning in Arabic lookup 0 subtable" afii57410 dx=0 dy=0 dh=0 dv=0 dx=0 dy=0 dh=-100 dv=0
PairPos2: "'kern' Horizontal Kerning in Arabic lookup 0 subtable" afii57443 dx=0 dy=0 dh=0 dv=0 dx=0 dy=0 dh=-70 dv=0
PairPos2: "'kern' Horizontal Kerning in Arabic lookup 0 subtable" afii57422 dx=0 dy=0 dh=0 dv=0 dx=0 dy=0 dh=200 dv=0
PairPos2: "'kern' Horizontal Kerning in Arabic lookup 0 subtable" afii57421 dx=0 dy=0 dh=0 dv=0 dx=0 dy=0 dh=200 dv=0
PairPos2: "'kern' Horizontal Kerning in Arabic lookup 0 subtable" afii57420 dx=0 dy=0 dh=0 dv=0 dx=0 dy=0 dh=200 dv=0
PairPos2: "'kern' Horizontal Kerning in Arabic lookup 0 subtable" afii62965 dx=0 dy=0 dh=0 dv=0 dx=0 dy=0 dh=-100 dv=0
PairPos2: "'kern' Horizontal Kerning in Arabic lookup 0 subtable" afii57509 dx=0 dy=0 dh=0 dv=0 dx=0 dy=0 dh=-100 dv=0
PairPos2: "'kern' Horizontal Kerning in Arabic lookup 0 subtable" afii52305 dx=0 dy=0 dh=0 dv=0 dx=0 dy=0 dh=-100 dv=0
PairPos2: "'kern' Horizontal Kerning in Arabic lookup 0 subtable" afii57567 dx=0 dy=0 dh=0 dv=0 dx=0 dy=0 dh=-100 dv=0
PairPos2: "'kern' Horizontal Kerning in Arabic lookup 0 subtable" afii57507 dx=0 dy=0 dh=0 dv=0 dx=0 dy=0 dh=200 dv=0
EndChar

StartChar: afii57427
Encoding: 1587 1587 198
Width: 1737
GlyphClass: 2
Flags: W
AnchorPoint: "Anchor-1" 885 -735 basechar 0
AnchorPoint: "Anchor-0" 1215 930 basechar 0
LayerCount: 2
Fore
SplineSet
1737 438 m 0,0,1
 1721 285 1721 285 1642 148 c 0,2,3
 1557 0 1557 0 1465 0 c 0,4,5
 1417 0 1417 0 1378.5 35 c 128,-1,6
 1340 70 1340 70 1340 118 c 1,7,8
 1319 71 1319 71 1274 37 c 0,9,10
 1226 0 1226 0 1178 0 c 0,11,12
 1112 0 1112 0 1069 46 c 1,13,14
 1007 -147 1007 -147 884 -258 c 0,15,16
 747 -382 747 -382 556 -382 c 0,17,18
 362 -382 362 -382 256 -275 c 128,-1,19
 150 -168 150 -168 150 26 c 0,20,21
 150 170 150 170 237 333 c 0,22,23
 331 509 331 509 468 586 c 0,24,25
 489 598 489 598 507 598 c 0,26,27
 553 598 553 598 553 551 c 0,28,29
 553 523 553 523 529 507 c 0,30,31
 411 428 411 428 340 297 c 128,-1,32
 269 166 269 166 269 24 c 0,33,34
 269 -105 269 -105 359 -182 c 0,35,36
 444 -255 444 -255 575 -255 c 0,37,38
 789 -255 789 -255 901 -71 c 0,39,40
 994 82 994 82 994 311 c 0,41,42
 994 363 994 363 988 432 c 0,43,44
 984 480 984 480 1038 480 c 0,45,46
 1094 480 1094 480 1099 432 c 0,47,48
 1112 314 1112 314 1101 181 c 1,49,50
 1127 116 1127 116 1182 116 c 0,51,52
 1234 116 1234 116 1290 228 c 0,53,54
 1337 321 1337 321 1350 403 c 0,55,56
 1357 445 1357 445 1403 445 c 0,57,58
 1452 445 1452 445 1452 407 c 0,59,60
 1452 373 1452 373 1437 305.5 c 128,-1,61
 1422 238 1422 238 1422 204 c 0,62,63
 1422 116 1422 116 1469 116 c 0,64,65
 1521 116 1521 116 1575 239 c 0,66,67
 1620 341 1620 341 1636 443 c 0,68,69
 1642 480 1642 480 1680 480 c 0,70,71
 1699 480 1699 480 1719 468 c 128,-1,72
 1739 456 1739 456 1737 438 c 0,0,1
EndSplineSet
Substitution2: "'medi' Medial Forms in Arabic lookup 3 subtable" afii62785
Substitution2: "'fina' Terminal Forms in Arabic lookup 2 subtable" afii62786
Substitution2: "'init' Initial Forms in Arabic lookup 1 subtable" afii62784
EndChar

StartChar: afii62786
Encoding: 65202 65202 199
Width: 1775
GlyphClass: 2
Flags: W
AnchorPoint: "Anchor-1" 885 -735 basechar 0
AnchorPoint: "Anchor-0" 1290 840 basechar 0
LayerCount: 2
Fore
SplineSet
1786 0 m 1,0,-1
 1747 0 l 2,1,2
 1699 0 1699 0 1660.5 35 c 128,-1,3
 1622 70 1622 70 1622 118 c 1,4,5
 1601 71 1601 71 1557 37 c 0,6,7
 1510 0 1510 0 1461 0 c 0,8,9
 1413 0 1413 0 1374.5 35 c 128,-1,10
 1336 70 1336 70 1336 118 c 1,11,12
 1315 71 1315 71 1270 37 c 0,13,14
 1222 0 1222 0 1174 0 c 0,15,16
 1117 0 1117 0 1069 46 c 1,17,18
 1007 -147 1007 -147 884 -258 c 0,19,20
 747 -382 747 -382 556 -382 c 0,21,22
 362 -382 362 -382 256 -275 c 128,-1,23
 150 -168 150 -168 150 26 c 0,24,25
 150 170 150 170 237 333 c 0,26,27
 331 509 331 509 468 586 c 0,28,29
 489 598 489 598 507 598 c 0,30,31
 553 598 553 598 553 551 c 0,32,33
 553 523 553 523 529 507 c 0,34,35
 411 428 411 428 340 297 c 128,-1,36
 269 166 269 166 269 24 c 0,37,38
 269 -105 269 -105 359 -182 c 0,39,40
 444 -255 444 -255 575 -255 c 0,41,42
 775 -255 775 -255 892 -68 c 0,43,44
 992 92 992 92 992 304 c 0,45,46
 992 345 992 345 988 392 c 0,47,48
 984 440 984 440 1038 440 c 0,49,50
 1094 440 1094 440 1099 392 c 0,51,52
 1110 291 1110 291 1101 181 c 1,53,54
 1124 116 1124 116 1178 116 c 0,55,56
 1230 116 1230 116 1286 228 c 0,57,58
 1333 321 1333 321 1346 403 c 0,59,60
 1353 445 1353 445 1399 445 c 0,61,62
 1448 445 1448 445 1448 407 c 0,63,64
 1448 373 1448 373 1433 305.5 c 128,-1,65
 1418 238 1418 238 1418 204 c 0,66,67
 1418 116 1418 116 1465 116 c 0,68,69
 1517 116 1517 116 1572 228 c 0,70,71
 1619 323 1619 323 1632 403 c 0,72,73
 1639 445 1639 445 1685 445 c 0,74,75
 1734 445 1734 445 1734 407 c 0,76,77
 1734 373 1734 373 1719 306.5 c 128,-1,78
 1704 240 1704 240 1704 206 c 0,79,80
 1704 116 1704 116 1752 116 c 2,81,-1
 1786 116 l 1,82,-1
 1786 0 l 1,0,-1
EndSplineSet
EndChar

StartChar: afii62784
Encoding: 65203 65203 200
Width: 848
GlyphClass: 2
Flags: W
AnchorPoint: "Anchor-1" 375 -405 basechar 0
AnchorPoint: "Anchor-0" 570 840 basechar 0
LayerCount: 2
Fore
SplineSet
848 438 m 0,0,1
 832 285 832 285 753 148 c 0,2,3
 668 0 668 0 575 0 c 0,4,5
 527 0 527 0 489 35.5 c 128,-1,6
 451 71 451 71 451 118 c 1,7,8
 430 71 430 71 385 37 c 0,9,10
 337 0 337 0 289 0 c 0,11,12
 242 0 242 0 203 34.5 c 128,-1,13
 164 69 164 69 164 116 c 1,14,15
 143 70 143 70 98 36 c 0,16,17
 50 0 50 0 2 0 c 2,18,-1
 -10 0 l 1,19,-1
 -10 116 l 1,20,-1
 6 116 l 2,21,22
 72 116 72 116 130 231 c 0,23,24
 168 306 168 306 191 403 c 0,25,26
 201 444 201 444 250 444 c 0,27,28
 294 444 294 444 294 411 c 0,29,30
 294 404 294 404 292 398 c 0,31,32
 248 274 248 274 248 193 c 0,33,34
 248 116 248 116 293 116 c 0,35,36
 345 116 345 116 401 228 c 0,37,38
 448 321 448 321 461 403 c 0,39,40
 468 445 468 445 514 445 c 0,41,42
 562 445 562 445 562 407 c 0,43,44
 562 373 562 373 547 306 c 128,-1,45
 532 239 532 239 532 205 c 0,46,47
 532 116 532 116 579 116 c 0,48,49
 632 116 632 116 686 239 c 0,50,51
 731 341 731 341 747 443 c 0,52,53
 753 480 753 480 791 480 c 0,54,55
 810 480 810 480 830 468 c 128,-1,56
 850 456 850 456 848 438 c 0,0,1
EndSplineSet
EndChar

StartChar: afii62785
Encoding: 65204 65204 201
Width: 891
GlyphClass: 2
Flags: W
AnchorPoint: "Anchor-1" 360 -450 basechar 0
AnchorPoint: "Anchor-0" 615 780 basechar 0
LayerCount: 2
Fore
SplineSet
901 0 m 1,0,-1
 862 0 l 2,1,2
 814 0 814 0 775.5 35 c 128,-1,3
 737 70 737 70 737 118 c 1,4,5
 716 71 716 71 671 37 c 0,6,7
 623 0 623 0 575 0 c 256,8,9
 527 0 527 0 489 35.5 c 128,-1,10
 451 71 451 71 451 118 c 1,11,12
 430 71 430 71 385 37 c 0,13,14
 337 0 337 0 289 0 c 0,15,16
 242 0 242 0 203 34.5 c 128,-1,17
 164 69 164 69 164 116 c 1,18,19
 143 70 143 70 98 36 c 0,20,21
 50 0 50 0 2 0 c 2,22,-1
 -10 0 l 1,23,-1
 -10 116 l 1,24,-1
 6 116 l 2,25,26
 72 116 72 116 130 231 c 0,27,28
 168 306 168 306 191 403 c 0,29,30
 201 444 201 444 250 444 c 0,31,32
 294 444 294 444 294 411 c 0,33,34
 294 404 294 404 292 398 c 0,35,36
 248 274 248 274 248 193 c 0,37,38
 248 116 248 116 293 116 c 0,39,40
 345 116 345 116 401 228 c 0,41,42
 448 321 448 321 461 403 c 0,43,44
 468 445 468 445 514 445 c 0,45,46
 562 445 562 445 562 407 c 0,47,48
 562 373 562 373 547 306 c 128,-1,49
 532 239 532 239 532 205 c 0,50,51
 532 116 532 116 579 116 c 0,52,53
 631 116 631 116 687 228 c 0,54,55
 734 321 734 321 747 403 c 0,56,57
 754 445 754 445 800 445 c 0,58,59
 849 445 849 445 849 407 c 0,60,61
 849 373 849 373 834 306.5 c 128,-1,62
 819 240 819 240 819 206 c 0,63,64
 819 116 819 116 867 116 c 2,65,-1
 901 116 l 1,66,-1
 901 0 l 1,0,-1
EndSplineSet
EndChar

StartChar: afii57429
Encoding: 1589 1589 206
Width: 1770
GlyphClass: 2
Flags: W
AnchorPoint: "Anchor-1" 840 -720 basechar 0
AnchorPoint: "Anchor-0" 1035 810 basechar 0
LayerCount: 2
Fore
SplineSet
1595 149 m 0,0,1
 1488 55 1488 55 1369 20 c 1,2,3
 1346 -61 1346 -61 1292 -61 c 0,4,5
 1248 -61 1248 -61 1251 0 c 1,6,7
 1132 -7 1132 -7 1069 46 c 1,8,9
 1007 -147 1007 -147 884 -258 c 0,10,11
 747 -382 747 -382 556 -382 c 0,12,13
 362 -382 362 -382 256 -275 c 128,-1,14
 150 -168 150 -168 150 26 c 0,15,16
 150 170 150 170 237 333 c 0,17,18
 331 509 331 509 468 586 c 0,19,20
 489 598 489 598 507 598 c 0,21,22
 553 598 553 598 553 551 c 0,23,24
 553 523 553 523 529 507 c 0,25,26
 411 428 411 428 340 297 c 128,-1,27
 269 166 269 166 269 24 c 0,28,29
 269 -105 269 -105 359 -182 c 0,30,31
 444 -255 444 -255 575 -255 c 0,32,33
 772 -255 772 -255 890 -73 c 0,34,35
 992 85 992 85 992 292 c 0,36,37
 992 325 992 325 988 372 c 0,38,39
 984 420 984 420 1038 420 c 0,40,41
 1094 420 1094 420 1099 372 c 0,42,43
 1109 279 1109 279 1101 181 c 1,44,45
 1128 116 1128 116 1233 116 c 0,46,47
 1254 116 1254 116 1270 120 c 1,48,49
 1302 310 1302 310 1420 505 c 0,50,51
 1530 687 1530 687 1628 687 c 0,52,53
 1698 687 1698 687 1738 621 c 0,54,55
 1772 565 1772 565 1772 490 c 0,56,57
 1772 305 1772 305 1595 149 c 0,0,1
1668 490 m 0,58,59
 1668 573 1668 573 1620 573 c 0,60,61
 1569 573 1569 573 1505 462 c 0,62,63
 1414 304 1414 304 1382 138 c 1,64,65
 1499 178 1499 178 1580 272 c 0,66,67
 1668 373 1668 373 1668 490 c 0,58,59
EndSplineSet
Substitution2: "'medi' Medial Forms in Arabic lookup 3 subtable" afii62791
Substitution2: "'fina' Terminal Forms in Arabic lookup 2 subtable" afii62792
Substitution2: "'init' Initial Forms in Arabic lookup 1 subtable" afii62790
EndChar

StartChar: afii62792
Encoding: 65210 65210 207
Width: 1799
GlyphClass: 2
Flags: W
AnchorPoint: "Anchor-1" 735 -690 basechar 0
AnchorPoint: "Anchor-0" 1140 945 basechar 0
LayerCount: 2
Fore
SplineSet
1809 0 m 1,0,-1
 1761 0 l 2,1,2
 1696 0 1696 0 1647 33 c 0,3,4
 1595 68 1595 68 1582 129 c 1,5,6
 1498 57 1498 57 1369 20 c 1,7,8
 1346 -61 1346 -61 1292 -61 c 0,9,10
 1248 -61 1248 -61 1251 0 c 1,11,12
 1132 -7 1132 -7 1069 46 c 1,13,14
 1007 -147 1007 -147 884 -258 c 0,15,16
 747 -382 747 -382 556 -382 c 0,17,18
 362 -382 362 -382 256 -275 c 128,-1,19
 150 -168 150 -168 150 26 c 0,20,21
 150 170 150 170 237 333 c 0,22,23
 331 509 331 509 468 586 c 0,24,25
 489 598 489 598 507 598 c 0,26,27
 553 598 553 598 553 551 c 0,28,29
 553 523 553 523 529 507 c 0,30,31
 411 428 411 428 340 297 c 128,-1,32
 269 166 269 166 269 24 c 0,33,34
 269 -105 269 -105 359 -182 c 0,35,36
 444 -255 444 -255 575 -255 c 0,37,38
 772 -255 772 -255 890 -73 c 0,39,40
 992 85 992 85 992 292 c 0,41,42
 992 325 992 325 988 372 c 0,43,44
 984 420 984 420 1038 420 c 0,45,46
 1094 420 1094 420 1099 372 c 0,47,48
 1109 279 1109 279 1101 181 c 1,49,50
 1128 116 1128 116 1233 116 c 0,51,52
 1254 116 1254 116 1270 120 c 1,53,54
 1302 310 1302 310 1420 505 c 0,55,56
 1530 687 1530 687 1628 687 c 0,57,58
 1698 687 1698 687 1738 621 c 0,59,60
 1772 565 1772 565 1772 490 c 0,61,62
 1772 414 1772 414 1737 334 c 0,63,64
 1707 265 1707 265 1681 234 c 1,65,66
 1677 210 1677 210 1677 193 c 0,67,68
 1677 116 1677 116 1765 116 c 2,69,-1
 1809 116 l 1,70,-1
 1809 0 l 1,0,-1
1668 490 m 0,71,72
 1668 573 1668 573 1620 573 c 0,73,74
 1569 573 1569 573 1505 462 c 0,75,76
 1414 304 1414 304 1382 138 c 1,77,78
 1499 178 1499 178 1580 272 c 0,79,80
 1668 373 1668 373 1668 490 c 0,71,72
EndSplineSet
EndChar

StartChar: afii62790
Encoding: 65211 65211 208
Width: 1001
GlyphClass: 2
Flags: W
AnchorPoint: "Anchor-1" 270 -540 basechar 0
AnchorPoint: "Anchor-0" 645 975 basechar 0
LayerCount: 2
Fore
SplineSet
818 145 m 0,0,1
 711 51 711 51 591 16 c 1,2,3
 568 -65 568 -65 514 -65 c 0,4,5
 471 -65 471 -65 474 -4 c 1,6,7
 267 -4 267 -4 239 138 c 1,8,9
 202 90 202 90 139 48 c 0,10,11
 67 0 67 0 16 0 c 2,12,-1
 -10 0 l 1,13,-1
 -10 116 l 1,14,-1
 21 116 l 2,15,16
 191 116 191 116 256 403 c 0,17,18
 266 445 266 445 310 445 c 0,19,20
 359 445 359 445 359 411 c 0,21,22
 359 407 359 407 357 398 c 0,23,24
 340 322 340 322 331 270 c 0,25,26
 328 252 328 252 328 239 c 0,27,28
 328 114 328 114 463 114 c 0,29,30
 477 114 477 114 493 116 c 1,31,32
 525 307 525 307 642 501 c 0,33,34
 752 683 752 683 851 683 c 0,35,36
 921 683 921 683 961 617 c 0,37,38
 995 561 995 561 995 486 c 0,39,40
 995 301 995 301 818 145 c 0,0,1
891 486 m 0,41,42
 891 569 891 569 843 569 c 0,43,44
 791 569 791 569 727 458 c 0,45,46
 637 302 637 302 604 134 c 1,47,48
 721 174 721 174 802 268 c 0,49,50
 891 370 891 370 891 486 c 0,41,42
EndSplineSet
EndChar

StartChar: afii62791
Encoding: 65212 65212 209
Width: 1022
GlyphClass: 2
Flags: W
AnchorPoint: "Anchor-1" 285 -555 basechar 0
AnchorPoint: "Anchor-0" 570 855 basechar 0
LayerCount: 2
Fore
SplineSet
1032 0 m 1,0,-1
 984 0 l 2,1,2
 832 0 832 0 805 125 c 1,3,4
 719 53 719 53 591 16 c 1,5,6
 568 -65 568 -65 514 -65 c 0,7,8
 471 -65 471 -65 474 -4 c 1,9,10
 399 -4 399 -4 330 30 c 0,11,12
 246 71 246 71 239 138 c 1,13,14
 202 90 202 90 139 48 c 0,15,16
 67 0 67 0 16 0 c 2,17,-1
 -10 0 l 1,18,-1
 -10 116 l 1,19,-1
 21 116 l 2,20,21
 113 116 113 116 181 218 c 0,22,23
 231 294 231 294 256 403 c 0,24,25
 266 446 266 446 310 446 c 0,26,27
 359 446 359 446 359 412 c 0,28,29
 359 407 359 407 357 398 c 0,30,31
 328 270 328 270 328 239 c 0,32,33
 328 116 328 116 458 116 c 0,34,35
 475 116 475 116 493 119 c 1,36,37
 525 308 525 308 642 503 c 0,38,39
 753 688 753 688 851 688 c 0,40,41
 921 688 921 688 961 621 c 0,42,43
 995 565 995 565 995 490 c 0,44,45
 995 413 995 413 960 333 c 0,46,47
 930 264 930 264 904 233 c 1,48,49
 900 208 900 208 900 190 c 0,50,51
 900 116 900 116 988 116 c 2,52,-1
 1032 116 l 1,53,-1
 1032 0 l 1,0,-1
891 489 m 0,54,55
 891 572 891 572 843 572 c 0,56,57
 791 572 791 572 727 461 c 0,58,59
 637 305 637 305 604 137 c 1,60,61
 721 177 721 177 802 271 c 0,62,63
 891 373 891 373 891 489 c 0,54,55
EndSplineSet
EndChar

StartChar: afii57431
Encoding: 1591 1591 214
Width: 948
GlyphClass: 2
Flags: W
AnchorPoint: "Anchor-1" 495 -480 basechar 0
AnchorPoint: "Anchor-0" 840 1065 basechar 0
LayerCount: 2
Fore
SplineSet
850 213 m 0,0,1
 688 0 688 0 417 0 c 1,2,3
 385 -57 385 -57 344 -57 c 256,4,5
 303 -57 303 -57 303 -14 c 0,6,7
 303 -5 303 -5 306 4 c 1,8,9
 232 10 232 10 150 40 c 0,10,11
 117 52 117 52 117 106 c 0,12,13
 117 176 117 176 150 176 c 1,14,15
 133 176 133 176 132 173 c 0,16,17
 132 167 132 167 200 149 c 0,18,19
 303 122 303 122 356 122 c 1,20,21
 380 180 380 180 435 258 c 1,22,23
 484 414 484 414 523 602 c 0,24,25
 566 811 566 811 564 911 c 0,26,27
 563 972 563 972 626 972 c 0,28,29
 654 972 654 972 655 946 c 0,30,31
 662 759 662 759 581 440 c 1,32,33
 728 590 728 590 816 590 c 0,34,35
 873 590 873 590 906 541 c 0,36,37
 935 499 935 499 935 439 c 0,38,39
 935 325 935 325 850 213 c 0,0,1
806 476 m 0,40,41
 749 476 749 476 655 377 c 0,42,43
 542 258 542 258 477 125 c 1,44,45
 668 139 668 139 770 274 c 0,46,47
 841 368 841 368 841 436 c 0,48,49
 841 476 841 476 806 476 c 0,40,41
EndSplineSet
Substitution2: "'medi' Medial Forms in Arabic lookup 3 subtable" afii62797
Substitution2: "'fina' Terminal Forms in Arabic lookup 2 subtable" afii62798
Substitution2: "'init' Initial Forms in Arabic lookup 1 subtable" afii62796
EndChar

StartChar: afii62798
Encoding: 65218 65218 215
Width: 1008
GlyphClass: 2
Flags: W
AnchorPoint: "Anchor-1" 525 -450 basechar 0
AnchorPoint: "Anchor-0" 885 1020 basechar 0
LayerCount: 2
Fore
SplineSet
1018 0 m 1,0,-1
 970 0 l 2,1,2
 916 0 916 0 852 39 c 0,3,4
 783 80 783 80 771 129 c 1,5,6
 614 0 614 0 417 0 c 1,7,8
 385 -57 385 -57 344 -57 c 256,9,10
 303 -57 303 -57 303 -14 c 0,11,12
 303 -5 303 -5 306 4 c 1,13,14
 249 4 249 4 150 40 c 0,15,16
 117 52 117 52 117 106 c 0,17,18
 117 176 117 176 150 176 c 1,19,20
 133 176 133 176 132 173 c 0,21,22
 132 167 132 167 200 149 c 0,23,24
 303 122 303 122 356 122 c 1,25,26
 380 180 380 180 435 258 c 1,27,28
 484 414 484 414 523 602 c 0,29,30
 566 811 566 811 564 911 c 0,31,32
 563 972 563 972 626 972 c 0,33,34
 654 972 654 972 655 946 c 0,35,36
 662 759 662 759 581 440 c 1,37,38
 728 590 728 590 816 590 c 0,39,40
 873 590 873 590 906 541 c 0,41,42
 935 499 935 499 935 439 c 0,43,44
 935 325 935 325 850 213 c 1,45,46
 855 170 855 170 899 142 c 0,47,48
 939 116 939 116 984 116 c 2,49,-1
 1018 116 l 1,50,-1
 1018 0 l 1,0,-1
806 476 m 0,51,52
 749 476 749 476 655 377 c 0,53,54
 542 258 542 258 477 125 c 1,55,56
 668 139 668 139 770 274 c 0,57,58
 841 368 841 368 841 436 c 0,59,60
 841 476 841 476 806 476 c 0,51,52
EndSplineSet
EndChar

StartChar: afii62796
Encoding: 65219 65219 216
Width: 638
GlyphClass: 2
Flags: W
AnchorPoint: "Anchor-1" 135 -480 basechar 0
AnchorPoint: "Anchor-0" 570 1005 basechar 0
LayerCount: 2
Fore
SplineSet
554 213 m 0,0,1
 392 0 392 0 121 0 c 1,2,3
 88 -56 88 -56 46 -56 c 0,4,5
 7 -56 7 -56 7 -17 c 0,6,7
 7 -9 7 -9 10 0 c 1,8,-1
 -10 0 l 1,9,-1
 -10 116 l 1,10,-1
 52 116 l 1,11,12
 71 160 71 160 139 258 c 1,13,14
 188 413 188 413 227 602 c 0,15,16
 271 812 271 812 269 911 c 0,17,18
 268 972 268 972 331 972 c 0,19,20
 359 972 359 972 360 946 c 0,21,22
 367 759 367 759 286 440 c 1,23,24
 433 590 433 590 520 590 c 0,25,26
 577 590 577 590 610 541 c 0,27,28
 639 499 639 499 639 439 c 0,29,30
 639 325 639 325 554 213 c 0,0,1
510 476 m 0,31,32
 454 476 454 476 360 377 c 0,33,34
 245 256 245 256 181 125 c 1,35,36
 374 139 374 139 475 274 c 0,37,38
 545 368 545 368 545 435 c 0,39,40
 545 476 545 476 510 476 c 0,31,32
EndSplineSet
EndChar

StartChar: afii62797
Encoding: 65220 65220 217
Width: 712
GlyphClass: 2
Flags: W
AnchorPoint: "Anchor-1" 285 -435 basechar 0
AnchorPoint: "Anchor-0" 510 1080 basechar 0
LayerCount: 2
Fore
SplineSet
722 0 m 1,0,-1
 674 0 l 2,1,2
 620 0 620 0 556 38 c 0,3,4
 488 80 488 80 476 129 c 1,5,6
 317 -2 317 -2 121 5 c 1,7,8
 87 -56 87 -56 44 -56 c 0,9,10
 7 -56 7 -56 7 -17 c 0,11,12
 7 -9 7 -9 10 0 c 1,13,-1
 -10 0 l 1,14,-1
 -10 116 l 1,15,-1
 52 116 l 1,16,17
 71 160 71 160 139 258 c 1,18,19
 188 413 188 413 227 602 c 0,20,21
 271 812 271 812 269 911 c 0,22,23
 268 972 268 972 331 972 c 0,24,25
 359 972 359 972 360 946 c 0,26,27
 367 759 367 759 286 440 c 1,28,29
 433 590 433 590 520 590 c 0,30,31
 577 590 577 590 610 541 c 0,32,33
 639 499 639 499 639 439 c 0,34,35
 639 325 639 325 554 213 c 1,36,37
 549 171 549 171 600 141 c 0,38,39
 643 116 643 116 688 116 c 2,40,-1
 722 116 l 1,41,-1
 722 0 l 1,0,-1
510 476 m 0,42,43
 454 476 454 476 360 377 c 0,44,45
 245 256 245 256 181 125 c 1,46,47
 374 139 374 139 475 274 c 0,48,49
 545 368 545 368 545 435 c 0,50,51
 545 476 545 476 510 476 c 0,42,43
EndSplineSet
EndChar

StartChar: afii57433
Encoding: 1593 1593 222
Width: 771
GlyphClass: 2
Flags: W
AnchorPoint: "Anchor-1" 495 -945 basechar 0
AnchorPoint: "Anchor-0" 615 900 basechar 0
LayerCount: 2
Fore
SplineSet
1035 -506 m 0,0,1
 905 -576 905 -576 836 -601 c 0,2,3
 698 -651 698 -651 540 -651 c 0,4,5
 366 -651 366 -651 262 -566 c 0,6,7
 150 -475 150 -475 150 -304 c 0,8,9
 150 -146 150 -146 260 14 c 0,10,11
 342 133 342 133 460 223 c 1,12,13
 295 223 295 223 295 358 c 0,14,15
 295 426 295 426 434 559 c 0,16,17
 579 698 579 698 673 698 c 0,18,19
 715 698 715 698 736 663 c 0,20,21
 740 656 740 656 740 643 c 0,22,23
 740 604 740 604 694 522.5 c 128,-1,24
 648 441 648 441 620 441 c 0,25,26
 603 441 603 441 603 459 c 256,27,28
 603 477 603 477 627 523.5 c 128,-1,29
 651 570 651 570 651 577 c 0,30,31
 650 584 650 584 641 584 c 0,32,33
 611 584 611 584 520 509 c 0,34,35
 411 420 411 420 411 367 c 256,36,37
 411 314 411 314 545 314 c 0,38,39
 607 314 607 314 648 334 c 0,40,41
 677 348 677 348 754 401 c 0,42,43
 814 442 814 442 834 442 c 0,44,45
 885 442 885 442 885 393 c 0,46,47
 885 381 885 381 881 369 c 0,48,49
 873 345 873 345 707 250 c 0,50,51
 515 140 515 140 417 40 c 0,52,53
 263 -117 263 -117 263 -303 c 0,54,55
 263 -418 263 -418 345 -481 c 0,56,57
 420 -539 420 -539 538 -539 c 0,58,59
 777 -539 777 -539 993 -403 c 0,60,61
 1004 -396 1004 -396 1016 -396 c 0,62,63
 1063 -396 1063 -396 1063 -457 c 0,64,65
 1063 -491 1063 -491 1035 -506 c 0,0,1
EndSplineSet
Substitution2: "'medi' Medial Forms in Arabic lookup 3 subtable" afii62803
Substitution2: "'fina' Terminal Forms in Arabic lookup 2 subtable" afii62804
Substitution2: "'init' Initial Forms in Arabic lookup 1 subtable" afii62802
EndChar

StartChar: afii62804
Encoding: 65226 65226 223
Width: 829
GlyphClass: 2
Flags: W
AnchorPoint: "Anchor-1" 435 -1005 basechar 0
AnchorPoint: "Anchor-0" 660 870 basechar 0
LayerCount: 2
Fore
SplineSet
886 -592 m 0,0,1
 720 -663 720 -663 539 -663 c 0,2,3
 364 -663 364 -663 261 -578 c 0,4,5
 149 -487 149 -487 149 -316 c 0,6,7
 149 -96 149 -96 327 92 c 0,8,9
 438 209 438 209 598 296 c 0,10,11
 603 300 603 300 603 304 c 0,12,13
 603 313 603 313 491.5 354.5 c 128,-1,14
 380 396 380 396 382 410 c 0,15,16
 397 496 397 496 525 555 c 0,17,18
 638 607 638 607 751 607 c 256,19,20
 864 607 864 607 864 525 c 0,21,22
 864 460 864 460 806 362 c 0,23,24
 757 279 757 279 707 232 c 1,25,26
 702 212 702 212 702 195 c 0,27,28
 702 116 702 116 805 116 c 2,29,-1
 839 116 l 1,30,-1
 839 0 l 1,31,-1
 791 0 l 2,32,33
 715 0 715 0 660 49.5 c 128,-1,34
 605 99 605 99 605 175 c 1,35,36
 262 -39 262 -39 262 -315 c 0,37,38
 262 -431 262 -431 344 -493 c 0,39,40
 418 -550 418 -550 537 -550 c 0,41,42
 700 -550 700 -550 859 -485 c 0,43,44
 869 -481 869 -481 881 -481 c 0,45,46
 935 -481 935 -481 935 -533 c 0,47,48
 935 -571 935 -571 886 -592 c 0,0,1
711 489 m 0,49,50
 661 489 661 489 606 476 c 0,51,52
 543 461 543 461 540 441 c 0,53,54
 538 431 538 431 605 419 c 0,55,56
 677 406 677 406 687 372 c 1,57,58
 746 416 746 416 746 476 c 0,59,60
 746 489 746 489 711 489 c 0,49,50
EndSplineSet
EndChar

StartChar: afii62802
Encoding: 65227 65227 224
Width: 781
GlyphClass: 2
Flags: W
AnchorPoint: "Anchor-1" 210 -420 basechar 0
AnchorPoint: "Anchor-0" 495 810 basechar 0
LayerCount: 2
Fore
SplineSet
774 312 m 0,0,1
 682 217 682 217 432 108.5 c 128,-1,2
 182 0 182 0 52 0 c 2,3,-1
 -10 0 l 1,4,-1
 -10 116 l 1,5,-1
 48 116 l 2,6,7
 155 116 155 116 302 165 c 1,8,9
 186 190 186 190 186 306 c 0,10,11
 186 374 186 374 325 507 c 0,12,13
 470 646 470 646 564 646 c 0,14,15
 606 646 606 646 627 611 c 0,16,17
 631 604 631 604 631 591 c 0,18,19
 631 556 631 556 587 475 c 0,20,21
 541 389 541 389 512 389 c 0,22,23
 495 389 495 389 495 408 c 0,24,25
 495 426 495 426 518.5 472 c 128,-1,26
 542 518 542 518 542 525 c 256,27,28
 542 532 542 532 532 532 c 0,29,30
 502 532 502 532 411 457 c 0,31,32
 302 368 302 368 302 315 c 256,33,34
 302 262 302 262 437 262 c 0,35,36
 498 262 498 262 539 282 c 0,37,38
 570 297 570 297 645 349 c 0,39,40
 705 390 705 390 725 390 c 0,41,42
 746 390 746 390 764 371.5 c 128,-1,43
 782 353 782 353 782 332 c 0,44,45
 782 320 782 320 774 312 c 0,0,1
EndSplineSet
EndChar

StartChar: afii62803
Encoding: 65228 65228 225
Width: 505
GlyphClass: 2
Flags: W
AnchorPoint: "Anchor-1" 165 -450 basechar 0
AnchorPoint: "Anchor-0" 300 915 basechar 0
LayerCount: 2
Fore
SplineSet
519 0 m 1,0,-1
 495 0 l 2,1,2
 310 0 310 0 280 133 c 1,3,4
 229 86 229 86 154 46 c 0,5,6
 67 0 67 0 10 0 c 2,7,-1
 -15 0 l 1,8,-1
 -15 116 l 1,9,-1
 27 116 l 2,10,11
 101 116 101 116 194 182 c 0,12,13
 279 243 279 243 279 274 c 0,14,15
 279 300 279 300 202 300 c 2,16,-1
 172 300 l 2,17,18
 154 300 154 300 144 300 c 0,19,20
 133 299 133 299 141 299 c 1,21,22
 38 299 38 299 38 341 c 0,23,24
 38 440 38 440 184 526 c 0,25,26
 315 603 315 603 423 603 c 0,27,28
 503 603 503 603 503 525 c 0,29,30
 503 410 503 410 380 250 c 1,31,32
 370 225 370 225 370 204 c 0,33,34
 370 116 370 116 499 116 c 2,35,-1
 519 116 l 1,36,-1
 519 0 l 1,0,-1
377 479 m 0,37,38
 336 479 336 479 270 456 c 0,39,40
 196 430 196 430 196 407 c 0,41,42
 196 395 196 395 234 395 c 1,43,44
 225 395 225 395 257 396 c 0,45,46
 269 396 269 396 281 396 c 0,47,48
 338 394 338 394 352 364 c 1,49,50
 393 416 393 416 393 464 c 0,51,52
 393 479 393 479 377 479 c 0,37,38
EndSplineSet
EndChar

StartChar: afii57443
Encoding: 1603 1603 238
Width: 1300
GlyphClass: 2
Flags: W
AnchorPoint: "Anchor-1" 555 -435 basechar 0
AnchorPoint: "Anchor-0" 825 1050 basechar 0
LayerCount: 2
Fore
SplineSet
1292 818 m 0,0,1
 1292 532 1292 532 1267 401 c 0,2,3
 1225 181 1225 181 1015 66 c 0,4,5
 841 -29 841 -29 608 -29 c 0,6,7
 152 -29 152 -29 152 236 c 0,8,9
 152 320 152 320 197 435 c 0,10,11
 219 491 219 491 269 491 c 0,12,13
 307 491 307 491 307 445 c 0,14,15
 307 424 307 424 297 395 c 0,16,17
 268 312 268 312 268 264 c 0,18,19
 268 96 268 96 618 96 c 0,20,21
 1103 96 1103 96 1158 425 c 0,22,23
 1177 538 1177 538 1177 816 c 0,24,25
 1177 880 1177 880 1236 880 c 0,26,27
 1292 880 1292 880 1292 818 c 0,0,1
899 670 m 0,28,29
 844 635 844 635 730 607 c 0,30,31
 711 602 711 602 662 592 c 2,32,-1
 587 572 l 2,33,34
 580 570 580 570 573 570 c 0,35,36
 540 570 540 570 540 601 c 0,37,38
 540 623 540 623 564 630 c 0,39,40
 580 632 580 632 660 649 c 1,41,42
 629 656 629 656 606 681.5 c 128,-1,43
 583 707 583 707 583 738 c 0,44,45
 583 778 583 778 665 821 c 0,46,47
 738 859 738 859 785 859 c 0,48,49
 846 859 846 859 846 813 c 0,50,51
 846 794 846 794 828 763 c 0,52,53
 807 731 807 731 790 731 c 0,54,55
 778 731 778 731 778 746 c 0,56,57
 778 752 778 752 783 764.5 c 128,-1,58
 788 777 788 777 788 781 c 0,59,60
 788 790 788 790 765 790 c 0,61,62
 733 790 733 790 702 778 c 0,63,64
 660 763 660 763 660 738 c 0,65,66
 660 712 660 712 692 693 c 0,67,68
 721 675 721 675 748 675 c 0,69,70
 779 675 779 675 822 695 c 0,71,72
 839 703 839 703 869 721 c 0,73,74
 877 726 877 726 885 726 c 0,75,76
 912 726 912 726 912 695 c 0,77,78
 912 678 912 678 899 670 c 0,28,29
EndSplineSet
Substitution2: "'medi' Medial Forms in Arabic lookup 3 subtable" afii52306
Substitution2: "'fina' Terminal Forms in Arabic lookup 2 subtable" afii62816
Substitution2: "'init' Initial Forms in Arabic lookup 1 subtable" afii52305
EndChar

StartChar: afii62816
Encoding: 65242 65242 239
Width: 1360
GlyphClass: 2
Flags: W
AnchorPoint: "Anchor-1" 630 -405 basechar 0
AnchorPoint: "Anchor-0" 765 915 basechar 0
LayerCount: 2
Fore
SplineSet
1370 0 m 1,0,-1
 1351 0 l 2,1,2
 1270 0 1270 0 1217 67 c 0,3,4
 1169 127 1169 127 1162 211 c 1,5,6
 1004 -29 1004 -29 608 -29 c 0,7,8
 152 -29 152 -29 152 236 c 0,9,10
 152 320 152 320 197 435 c 0,11,12
 219 491 219 491 269 491 c 0,13,14
 307 491 307 491 307 445 c 0,15,16
 307 424 307 424 297 395 c 0,17,18
 268 312 268 312 268 264 c 0,19,20
 268 96 268 96 618 96 c 0,21,22
 817 96 817 96 962 176 c 0,23,24
 1134 270 1134 270 1162 451 c 0,25,26
 1174 524 1174 524 1220 835 c 0,27,28
 1226 876 1226 876 1276 876 c 0,29,30
 1330 876 1330 876 1330 832 c 256,31,32
 1330 788 1330 788 1314 696 c 0,33,34
 1301 627 1301 627 1289 558 c 0,35,36
 1260 362 1260 362 1260 266 c 0,37,38
 1260 116 1260 116 1355 116 c 2,39,-1
 1370 116 l 1,40,-1
 1370 0 l 1,0,-1
929 677 m 0,41,42
 874 642 874 642 760 614 c 0,43,44
 741 609 741 609 692 599 c 2,45,-1
 617 579 l 2,46,47
 610 577 610 577 603 577 c 0,48,49
 570 577 570 577 570 608 c 0,50,51
 570 630 570 630 594 637 c 0,52,53
 610 639 610 639 690 656 c 1,54,55
 659 663 659 663 636 688.5 c 128,-1,56
 613 714 613 714 613 745 c 0,57,58
 613 785 613 785 695 828 c 0,59,60
 768 866 768 866 815 866 c 0,61,62
 876 866 876 866 876 820 c 0,63,64
 876 801 876 801 858 770 c 0,65,66
 837 738 837 738 820 738 c 0,67,68
 808 738 808 738 808 753 c 0,69,70
 808 759 808 759 813 771.5 c 128,-1,71
 818 784 818 784 818 788 c 0,72,73
 818 797 818 797 795 797 c 0,74,75
 763 797 763 797 732 785 c 0,76,77
 690 770 690 770 690 745 c 0,78,79
 690 719 690 719 722 700 c 0,80,81
 751 682 751 682 778 682 c 0,82,83
 809 682 809 682 852 702 c 0,84,85
 869 710 869 710 899 728 c 0,86,87
 907 733 907 733 915 733 c 0,88,89
 942 733 942 733 942 702 c 0,90,91
 942 685 942 685 929 677 c 0,41,42
EndSplineSet
EndChar

StartChar: afii57444
Encoding: 1604 1604 242
Width: 1179
GlyphClass: 2
Flags: W
AnchorPoint: "Anchor-1" 540 -600 basechar 0
AnchorPoint: "Anchor-0" 1035 1200 basechar 0
LayerCount: 2
Fore
SplineSet
1179 1037 m 0,0,1
 1179 669 1179 669 1129 311 c 0,2,3
 1095 69 1095 69 955 -88 c 0,4,5
 799 -262 799 -262 566 -262 c 0,6,7
 375 -262 375 -262 264 -159 c 0,8,9
 150 -54 150 -54 150 136 c 0,10,11
 150 244 150 244 197 351 c 0,12,13
 246 463 246 463 328 525 c 0,14,15
 349 541 349 541 373 541 c 0,16,17
 429 541 429 541 429 491 c 0,18,19
 429 467 429 467 406 448 c 0,20,21
 267 330 267 330 267 134 c 0,22,23
 267 10 267 10 361 -65 c 0,24,25
 448 -135 448 -135 575 -135 c 0,26,27
 778 -135 778 -135 898 28 c 0,28,29
 999 165 999 165 1025 381 c 0,30,31
 1070 761 1070 761 1070 1053 c 0,32,33
 1070 1094 1070 1094 1120 1094 c 0,34,35
 1179 1094 1179 1094 1179 1037 c 0,0,1
EndSplineSet
Substitution2: "'medi' Medial Forms in Arabic lookup 3 subtable" afii62818
Substitution2: "'fina' Terminal Forms in Arabic lookup 2 subtable" afii62819
Substitution2: "'init' Initial Forms in Arabic lookup 1 subtable" afii62817
EndChar

StartChar: afii62817
Encoding: 65247 65247 243
Width: 453
GlyphClass: 2
Flags: W
AnchorPoint: "Anchor-1" 210 -390 basechar 0
AnchorPoint: "Anchor-0" 390 1065 basechar 0
LayerCount: 2
Fore
SplineSet
417 848 m 2,0,-1
 395 538 l 2,1,2
 384 376 384 376 350 279 c 0,3,4
 305 149 305 149 198 70 c 0,5,6
 103 0 103 0 17 0 c 2,7,-1
 -10 0 l 1,8,-1
 -10 116 l 1,9,-1
 17 116 l 2,10,11
 69 116 69 116 133 160 c 0,12,13
 213 215 213 215 250 311 c 0,14,15
 278 385 278 385 291 560 c 0,16,17
 295 609 295 609 309 864 c 0,18,19
 311 905 311 905 361 905 c 0,20,21
 421 905 421 905 417 848 c 2,0,-1
EndSplineSet
EndChar

StartChar: afii62818
Encoding: 65248 65248 244
Width: 501
GlyphClass: 2
Flags: W
AnchorPoint: "Anchor-1" 195 -420 basechar 0
AnchorPoint: "Anchor-0" 375 1050 basechar 0
LayerCount: 2
Fore
SplineSet
511 0 m 1,0,-1
 492 0 l 2,1,2
 412 0 412 0 360 58 c 128,-1,3
 308 116 308 116 308 196 c 1,4,5
 259 109 259 109 155 49 c 0,6,7
 70 0 70 0 17 0 c 2,8,-1
 -10 0 l 1,9,-1
 -10 116 l 1,10,-1
 17 116 l 2,11,12
 113 116 113 116 206 224 c 0,13,14
 291 325 291 325 304.5 426 c 128,-1,15
 318 527 318 527 355 802 c 2,16,-1
 364 865 l 2,17,18
 370 906 370 906 421 906 c 0,19,20
 474 906 474 906 474 862 c 0,21,22
 474 856 474 856 473 849 c 2,23,-1
 432 573 l 2,24,25
 401 364 401 364 401 266 c 0,26,27
 401 116 401 116 496 116 c 2,28,-1
 511 116 l 1,29,-1
 511 0 l 1,0,-1
EndSplineSet
EndChar

StartChar: afii57445
Encoding: 1605 1605 245
Width: 887
GlyphClass: 2
Flags: W
AnchorPoint: "Anchor-1" 630 -600 basechar 0
AnchorPoint: "Anchor-0" 510 1005 basechar 0
LayerCount: 2
Fore
SplineSet
887 546 m 0,0,1
 887 387 887 387 613 378 c 1,2,3
 625 354 625 354 625 335 c 0,4,5
 625 300 625 300 595 300 c 0,6,7
 546 300 546 300 492 385 c 1,8,9
 454 390 454 390 382 407 c 0,10,11
 331 419 331 419 311 419 c 0,12,13
 297 419 297 419 289 415 c 0,14,15
 257 398 257 398 257 136 c 0,16,17
 257 -220 257 -220 289 -516 c 0,18,19
 294 -562 294 -562 245 -562 c 0,20,21
 199 -562 199 -562 192 -516 c 0,22,23
 152 -256 152 -256 152 117 c 0,24,25
 152 500 152 500 222 544 c 0,26,27
 244 558 244 558 268 558 c 256,28,29
 292 558 292 558 353 534 c 128,-1,30
 414 510 414 510 446 510 c 1,31,32
 438 535 438 535 438 564 c 0,33,34
 438 647 438 647 491 707 c 0,35,36
 546 771 546 771 627 771 c 0,37,38
 740 771 740 771 810 716 c 0,39,40
 887 656 887 656 887 546 c 0,0,1
775 554 m 0,41,42
 775 597 775 597 721 629 c 0,43,44
 673 658 673 658 627 658 c 0,45,46
 549 658 549 658 549 550 c 0,47,48
 549 518 549 518 559 490 c 1,49,50
 577 487 577 487 605 487 c 0,51,52
 775 487 775 487 775 554 c 0,41,42
EndSplineSet
Substitution2: "'medi' Medial Forms in Arabic lookup 3 subtable" afii62821
Substitution2: "'fina' Terminal Forms in Arabic lookup 2 subtable" afii62822
Substitution2: "'init' Initial Forms in Arabic lookup 1 subtable" afii62820
EndChar

StartChar: afii62822
Encoding: 65250 65250 246
Width: 887
GlyphClass: 2
Flags: W
AnchorPoint: "Anchor-1" 570 -720 basechar 0
AnchorPoint: "Anchor-0" 615 870 basechar 0
LayerCount: 2
Fore
SplineSet
897 0 m 1,0,-1
 846 0 l 2,1,2
 756 0 756 0 661 53 c 0,3,4
 550 115 550 115 499 216 c 1,5,6
 463 221 463 221 390 239 c 0,7,8
 340 251 340 251 320 251 c 0,9,10
 307 251 307 251 299 247 c 0,11,12
 267 230 267 230 267 -32 c 0,13,14
 267 -390 267 -390 299 -684 c 0,15,16
 304 -730 304 -730 255 -730 c 0,17,18
 209 -730 209 -730 202 -684 c 0,19,20
 162 -424 162 -424 162 -52 c 0,21,22
 162 332 162 332 232 376 c 0,23,24
 254 390 254 390 278 390 c 256,25,26
 302 390 302 390 363 366 c 128,-1,27
 424 342 424 342 456 342 c 1,28,29
 451 364 451 364 451 388 c 0,30,31
 451 474 451 474 500 536 c 0,32,33
 553 602 553 602 637 602 c 0,34,35
 751 602 751 602 820 548 c 0,36,37
 897 489 897 489 897 378 c 0,38,39
 897 291 897 291 800 246 c 0,40,41
 728 213 728 213 628 209 c 1,42,43
 710 116 710 116 870 116 c 2,44,-1
 897 116 l 1,45,-1
 897 0 l 1,0,-1
785 386 m 0,46,47
 785 429 785 429 731 461 c 0,48,49
 683 490 683 490 637 490 c 0,50,51
 559 490 559 490 559 382 c 0,52,53
 559 350 559 350 569 322 c 1,54,55
 587 319 587 319 615 319 c 0,56,57
 785 319 785 319 785 386 c 0,46,47
EndSplineSet
EndChar

StartChar: afii62820
Encoding: 65251 65251 247
Width: 554
GlyphClass: 2
Flags: W
AnchorPoint: "Anchor-1" 315 -480 basechar 0
AnchorPoint: "Anchor-0" 420 810 basechar 0
LayerCount: 2
Fore
SplineSet
465 543 m 0,0,1
 551 357 551 357 551 201 c 0,2,3
 551 40 551 40 433 40 c 0,4,5
 287 40 287 40 243 163 c 1,6,7
 163 0 163 0 17 0 c 2,8,-1
 -10 0 l 1,9,-1
 -10 116 l 1,10,-1
 22 116 l 2,11,12
 99 116 99 116 165 206 c 0,13,14
 198 251 198 251 261 380 c 0,15,16
 311 483 311 483 340 498 c 1,17,18
 334 508 334 508 334 519 c 0,19,20
 334 545 334 545 357.5 564.5 c 128,-1,21
 381 584 381 584 408 584 c 0,22,23
 446 584 446 584 465 543 c 0,0,1
414 154 m 0,24,25
 455 154 455 154 455 210 c 0,26,27
 455 250 455 250 435 310 c 128,-1,28
 415 370 415 370 391 400 c 1,29,30
 366 384 366 384 345 338 c 128,-1,31
 324 292 324 292 324 260 c 0,32,33
 324 217 324 217 347 187 c 0,34,35
 372 154 372 154 414 154 c 0,24,25
EndSplineSet
EndChar

StartChar: afii57446
Encoding: 1606 1606 248
Width: 1099
GlyphClass: 2
Flags: W
AnchorPoint: "Anchor-1" 525 -615 basechar 0
AnchorPoint: "Anchor-0" 720 975 basechar 0
LayerCount: 2
Fore
SplineSet
1099 551 m 0,0,1
 1107 477 1107 477 1107 417 c 0,2,3
 1107 100 1107 100 939 -89 c 0,4,5
 785 -262 785 -262 556 -262 c 0,6,7
 363 -262 363 -262 256.5 -154.5 c 128,-1,8
 150 -47 150 -47 150 146 c 0,9,10
 150 290 150 290 237 453 c 0,11,12
 331 629 331 629 468 706 c 0,13,14
 489 718 489 718 507 718 c 0,15,16
 553 718 553 718 553 670 c 0,17,18
 553 642 553 642 529 626 c 0,19,20
 412 548 412 548 340.5 415.5 c 128,-1,21
 269 283 269 283 269 144 c 0,22,23
 269 15 269 15 359 -62 c 0,24,25
 444 -135 444 -135 575 -135 c 0,26,27
 788 -135 788 -135 900 49 c 0,28,29
 994 203 994 203 994 430 c 0,30,31
 994 482 994 482 988 551 c 0,32,33
 984 599 984 599 1038 599 c 0,34,35
 1094 599 1094 599 1099 551 c 0,0,1
687 202 m 0,36,37
 652 169 652 169 615 176 c 0,38,39
 549 188 549 188 549 256 c 0,40,41
 549 278 549 278 558 296 c 0,42,43
 585 381 585 381 662 381 c 0,44,45
 734 381 734 381 734 307 c 0,46,47
 734 244 734 244 687 202 c 0,36,37
EndSplineSet
Substitution2: "'medi' Medial Forms in Arabic lookup 3 subtable" afii62824
Substitution2: "'fina' Terminal Forms in Arabic lookup 2 subtable" afii62825
Substitution2: "'init' Initial Forms in Arabic lookup 1 subtable" afii62823
EndChar

StartChar: afii62825
Encoding: 65254 65254 249
Width: 1211
GlyphClass: 2
Flags: W
AnchorPoint: "Anchor-1" 540 -765 basechar 0
AnchorPoint: "Anchor-0" 735 915 basechar 0
LayerCount: 2
Fore
SplineSet
1221 0 m 1,0,-1
 1201 0 l 2,1,2
 1124 0 1124 0 1069 46 c 1,3,4
 1007 -147 1007 -147 884 -258 c 0,5,6
 747 -382 747 -382 556 -382 c 0,7,8
 362 -382 362 -382 256 -275 c 128,-1,9
 150 -168 150 -168 150 26 c 0,10,11
 150 170 150 170 237 333 c 0,12,13
 331 509 331 509 468 586 c 0,14,15
 489 598 489 598 507 598 c 0,16,17
 553 598 553 598 553 551 c 0,18,19
 553 523 553 523 529 507 c 0,20,21
 411 428 411 428 340 297 c 128,-1,22
 269 166 269 166 269 24 c 0,23,24
 269 -105 269 -105 359 -182 c 0,25,26
 444 -255 444 -255 575 -255 c 0,27,28
 789 -255 789 -255 901 -71 c 0,29,30
 994 82 994 82 994 311 c 0,31,32
 994 363 994 363 988 432 c 0,33,34
 984 480 984 480 1038 480 c 0,35,36
 1094 480 1094 480 1099 432 c 0,37,38
 1112 314 1112 314 1101 181 c 1,39,40
 1105 116 1105 116 1205 116 c 2,41,-1
 1221 116 l 1,42,-1
 1221 0 l 1,0,-1
683 81 m 0,43,44
 648 48 648 48 611 55 c 0,45,46
 545 67 545 67 545 135 c 0,47,48
 545 157 545 157 554 175 c 0,49,50
 581 260 581 260 658 260 c 0,51,52
 730 260 730 260 730 186 c 0,53,54
 730 123 730 123 683 81 c 0,43,44
EndSplineSet
EndChar

StartChar: afii62828
Encoding: 65258 65258 253
Width: 654
GlyphClass: 2
Flags: W
AnchorPoint: "Anchor-1" 240 -480 basechar 0
AnchorPoint: "Anchor-0" 450 900 basechar 0
LayerCount: 2
Fore
SplineSet
664 0 m 1,0,-1
 628 0 l 2,1,2
 490 0 490 0 434 152 c 1,3,4
 399 120 399 120 325 120 c 0,5,6
 255 120 255 120 204 163 c 0,7,8
 150 209 150 209 150 277 c 0,9,10
 150 312 150 312 167 343 c 0,11,12
 239 476 239 476 484 590 c 0,13,14
 501 598 501 598 526 665 c 1,15,16
 538 685 538 685 564 685 c 0,17,18
 617 685 617 685 617 639 c 0,19,20
 617 629 617 629 612 618 c 0,21,22
 524 420 524 420 524 265 c 0,23,24
 524 116 524 116 632 116 c 2,25,-1
 664 116 l 1,26,-1
 664 0 l 1,0,-1
456 481 m 1,27,28
 391 450 391 450 328 400 c 0,29,30
 244 333 244 333 244 284 c 0,31,32
 244 253 244 253 269 233 c 128,-1,33
 294 213 294 213 326 213 c 0,34,35
 391 213 391 213 425 253 c 1,36,37
 425 324 425 324 456 481 c 1,27,28
EndSplineSet
EndChar

StartChar: afii57448
Encoding: 1608 1608 254
Width: 619
GlyphClass: 2
Flags: W
AnchorPoint: "Anchor-1" 210 -750 basechar 0
AnchorPoint: "Anchor-0" 390 675 basechar 0
LayerCount: 2
Fore
SplineSet
552 49 m 0,0,1
 412 -204 412 -204 165 -368 c 0,2,3
 148 -379 148 -379 131 -379 c 0,4,5
 77 -379 77 -379 77 -322 c 0,6,7
 77 -292 77 -292 105 -274 c 0,8,9
 282 -162 282 -162 416 19 c 1,10,11
 328 11 328 11 253 75 c 0,12,13
 175 142 175 142 182 230 c 0,14,15
 189 317 189 317 277 390 c 0,16,17
 363 460 363 460 452 460 c 0,18,19
 486 460 486 460 512 448 c 0,20,21
 619 398 619 398 619 270 c 0,22,23
 619 170 619 170 552 49 c 0,0,1
469 118 m 1,24,25
 510 194 510 194 510 259 c 256,26,27
 510 324 510 324 464 345 c 0,28,29
 451 351 451 351 436 351 c 0,30,31
 387 351 387 351 341 310 c 128,-1,32
 295 269 295 269 291 221 c 0,33,34
 287 169 287 169 343 140 c 0,35,36
 388 117 388 117 445 117 c 0,37,38
 457 117 457 117 469 118 c 1,24,25
EndSplineSet
Substitution2: "'fina' Terminal Forms in Arabic lookup 2 subtable" afii62829
PairPos2: "'kern' Horizontal Kerning in Arabic lookup 0 subtable" afii57434 dx=0 dy=0 dh=0 dv=0 dx=0 dy=0 dh=250 dv=0
PairPos2: "'kern' Horizontal Kerning in Arabic lookup 0 subtable" afii57433 dx=0 dy=0 dh=0 dv=0 dx=0 dy=0 dh=250 dv=0
PairPos2: "'kern' Horizontal Kerning in Arabic lookup 0 subtable" afii57422 dx=0 dy=0 dh=0 dv=0 dx=0 dy=0 dh=200 dv=0
PairPos2: "'kern' Horizontal Kerning in Arabic lookup 0 subtable" afii57421 dx=0 dy=0 dh=0 dv=0 dx=0 dy=0 dh=200 dv=0
PairPos2: "'kern' Horizontal Kerning in Arabic lookup 0 subtable" afii57420 dx=0 dy=0 dh=0 dv=0 dx=0 dy=0 dh=200 dv=0
PairPos2: "'kern' Horizontal Kerning in Arabic lookup 0 subtable" afii57507 dx=0 dy=0 dh=0 dv=0 dx=0 dy=0 dh=200 dv=0
EndChar

StartChar: afii62829
Encoding: 65262 65262 255
Width: 602
GlyphClass: 2
Flags: W
AnchorPoint: "Anchor-1" 210 -690 basechar 0
AnchorPoint: "Anchor-0" 375 645 basechar 0
LayerCount: 2
Fore
SplineSet
611 0 m 1,0,-1
 523 0 l 1,1,2
 380 -226 380 -226 165 -368 c 0,3,4
 148 -379 148 -379 131 -379 c 0,5,6
 77 -379 77 -379 77 -322 c 0,7,8
 77 -292 77 -292 105 -274 c 0,9,10
 297 -152 297 -152 410 0 c 1,11,12
 333 0 333 0 262 55 c 0,13,14
 174 123 174 123 182 230 c 0,15,16
 189 316 189 316 276.5 388.5 c 128,-1,17
 364 461 364 461 451 461 c 0,18,19
 484 461 484 461 512 448 c 0,20,21
 619 398 619 398 619 269 c 0,22,23
 619 199 619 199 585 116 c 1,24,-1
 611 116 l 1,25,-1
 611 0 l 1,0,-1
469 116 m 1,26,27
 510 192 510 192 510 258 c 0,28,29
 510 323 510 323 464 345 c 0,30,31
 452 351 452 351 436 351 c 0,32,33
 387 351 387 351 341.5 310.5 c 128,-1,34
 296 270 296 270 291 221 c 0,35,36
 281 116 281 116 469 116 c 1,26,27
EndSplineSet
PairPos2: "'kern' Horizontal Kerning in Arabic lookup 0 subtable" afii57434 dx=0 dy=0 dh=0 dv=0 dx=0 dy=0 dh=270 dv=0
PairPos2: "'kern' Horizontal Kerning in Arabic lookup 0 subtable" afii57433 dx=0 dy=0 dh=0 dv=0 dx=0 dy=0 dh=270 dv=0
PairPos2: "'kern' Horizontal Kerning in Arabic lookup 0 subtable" afii57422 dx=0 dy=0 dh=0 dv=0 dx=0 dy=0 dh=200 dv=0
PairPos2: "'kern' Horizontal Kerning in Arabic lookup 0 subtable" afii57421 dx=0 dy=0 dh=0 dv=0 dx=0 dy=0 dh=200 dv=0
PairPos2: "'kern' Horizontal Kerning in Arabic lookup 0 subtable" afii57420 dx=0 dy=0 dh=0 dv=0 dx=0 dy=0 dh=200 dv=0
PairPos2: "'kern' Horizontal Kerning in Arabic lookup 0 subtable" afii57507 dx=0 dy=0 dh=0 dv=0 dx=0 dy=0 dh=200 dv=0
EndChar

StartChar: afii62840
Encoding: 65275 65275 268
Width: 790
GlyphClass: 3
Flags: W
AnchorPoint: "Anchor-3" 615 -285 baselig 0
AnchorPoint: "Anchor-2" 720 1095 baselig 0
AnchorPoint: "Anchor-3" 210 -255 baselig 1
AnchorPoint: "Anchor-2" 240 1065 baselig 1
LayerCount: 2
Fore
SplineSet
473 336 m 0,0,1
 478 270 478 270 422 270 c 0,2,3
 370 270 370 270 367 338 c 0,4,5
 352 630 352 630 259 893 c 0,6,7
 255 904 255 904 255 916 c 0,8,9
 255 960 255 960 297 960 c 256,10,11
 339 960 339 960 360 904 c 0,12,13
 449 665 449 665 473 336 c 0,0,1
789 919 m 0,14,15
 764 739 764 739 764 405 c 0,16,17
 764 235 764 235 655 119 c 0,18,19
 543 0 543 0 374 0 c 0,20,21
 150 0 150 0 150 103 c 0,22,23
 151 143 151 143 170 140 c 0,24,25
 182 136 182 136 251 129 c 0,26,27
 368 116 368 116 409 116 c 0,28,29
 526 116 526 116 597 215 c 0,30,31
 661 303 661 303 661 425 c 0,32,33
 661 803 661 803 681 935 c 0,34,35
 687 976 687 976 737 976 c 0,36,37
 797 976 797 976 789 919 c 0,14,15
EndSplineSet
Ligature2: "'rlig' Required Ligatures in Arabic lookup 6 subtable" afii62817 afii62760
Substitution2: "'fina' Terminal Forms in Arabic lookup 2 subtable" afii62841
EndChar

StartChar: afii62841
Encoding: 65276 65276 269
Width: 857
GlyphClass: 3
Flags: W
AnchorPoint: "Anchor-3" 660 -315 baselig 0
AnchorPoint: "Anchor-2" 675 1080 baselig 0
AnchorPoint: "Anchor-3" 270 -330 baselig 1
AnchorPoint: "Anchor-2" 240 1065 baselig 1
LayerCount: 2
Fore
SplineSet
867 0 m 1,0,-1
 848 0 l 2,1,2
 788 0 788 0 739.5 48 c 128,-1,3
 691 96 691 96 683 156 c 1,4,5
 572 0 572 0 404 0 c 0,6,7
 260 0 260 0 187 64 c 0,8,9
 148 98 148 98 148 135 c 0,10,11
 148 188 148 188 194 188 c 0,12,13
 207 188 207 188 217 181 c 0,14,15
 267 146 267 146 275 143 c 0,16,17
 330 116 330 116 409 116 c 0,18,19
 526 116 526 116 597 215 c 0,20,21
 661 303 661 303 661 425 c 0,22,23
 661 803 661 803 681 935 c 0,24,25
 687 976 687 976 737 976 c 0,26,27
 797 976 797 976 789 919 c 0,28,29
 758 694 758 694 758 335 c 0,30,31
 758 116 758 116 852 116 c 2,32,-1
 867 116 l 1,33,-1
 867 0 l 1,0,-1
473 336 m 0,34,35
 478 270 478 270 422 270 c 0,36,37
 370 270 370 270 367 338 c 0,38,39
 352 630 352 630 259 893 c 0,40,41
 255 904 255 904 255 916 c 0,42,43
 255 960 255 960 297 960 c 256,44,45
 339 960 339 960 360 904 c 0,46,47
 449 665 449 665 473 336 c 0,34,35
EndSplineSet
Ligature2: "'rlig' Required Ligatures in Arabic lookup 6 subtable" afii62818 afii62760
PairPos2: "'kern' Horizontal Kerning in Arabic lookup 0 subtable" afii57434 dx=0 dy=0 dh=0 dv=0 dx=0 dy=0 dh=300 dv=0
PairPos2: "'kern' Horizontal Kerning in Arabic lookup 0 subtable" afii57433 dx=0 dy=0 dh=0 dv=0 dx=0 dy=0 dh=300 dv=0
PairPos2: "'kern' Horizontal Kerning in Arabic lookup 0 subtable" afii57422 dx=0 dy=0 dh=0 dv=0 dx=0 dy=0 dh=200 dv=0
PairPos2: "'kern' Horizontal Kerning in Arabic lookup 0 subtable" afii57421 dx=0 dy=0 dh=0 dv=0 dx=0 dy=0 dh=200 dv=0
PairPos2: "'kern' Horizontal Kerning in Arabic lookup 0 subtable" afii57420 dx=0 dy=0 dh=0 dv=0 dx=0 dy=0 dh=200 dv=0
PairPos2: "'kern' Horizontal Kerning in Arabic lookup 0 subtable" afii57507 dx=0 dy=0 dh=0 dv=0 dx=0 dy=0 dh=200 dv=0
EndChar

StartChar: afii59759
Encoding: 3663 3663 276
Width: 1233
GlyphClass: 2
Flags: W
LayerCount: 2
Fore
SplineSet
616 983 m 0,0,1
 823 983 823 983 969.5 836.5 c 128,-1,2
 1116 690 1116 690 1116 483 c 0,3,4
 1116 277 1116 277 969.5 130.5 c 128,-1,5
 823 -16 823 -16 616 -16 c 0,6,7
 410 -16 410 -16 263.5 130.5 c 128,-1,8
 117 277 117 277 117 483 c 0,9,10
 117 690 117 690 263.5 836.5 c 128,-1,11
 410 983 410 983 616 983 c 0,0,1
616 147 m 0,12,13
 758 147 758 147 849 242 c 128,-1,14
 940 337 940 337 940 483 c 256,15,16
 940 629 940 629 849 724 c 128,-1,17
 758 819 758 819 616 819 c 0,18,19
 475 819 475 819 384 724 c 128,-1,20
 293 629 293 629 293 483 c 256,21,22
 293 337 293 337 384 242 c 128,-1,23
 475 147 475 147 616 147 c 0,12,13
616 598 m 0,24,25
 664 598 664 598 697.5 565 c 128,-1,26
 731 532 731 532 731 485 c 256,27,28
 731 438 731 438 697.5 404.5 c 128,-1,29
 664 371 664 371 616 371 c 0,30,31
 569 371 569 371 535.5 404.5 c 128,-1,32
 502 438 502 438 502 485 c 256,33,34
 502 532 502 532 535.5 565 c 128,-1,35
 569 598 569 598 616 598 c 0,24,25
EndSplineSet
EndChar

StartChar: afii59760
Encoding: 3664 3664 277
Width: 1233
GlyphClass: 2
Flags: W
LayerCount: 2
Fore
SplineSet
616 924 m 0,0,1
 834 924 834 924 975 794.5 c 128,-1,2
 1116 665 1116 665 1116 453 c 0,3,4
 1116 242 1116 242 975 113 c 128,-1,5
 834 -16 834 -16 616 -16 c 0,6,7
 399 -16 399 -16 258 113 c 128,-1,8
 117 242 117 242 117 453 c 0,9,10
 117 665 117 665 258 794.5 c 128,-1,11
 399 924 399 924 616 924 c 0,0,1
616 150 m 0,12,13
 765 150 765 150 852.5 231 c 128,-1,14
 940 312 940 312 940 453 c 256,15,16
 940 594 940 594 852 677 c 128,-1,17
 764 760 764 760 616 760 c 0,18,19
 469 760 469 760 381 677 c 128,-1,20
 293 594 293 594 293 453 c 0,21,22
 293 310 293 310 381.5 230 c 128,-1,23
 470 150 470 150 616 150 c 0,12,13
EndSplineSet
EndChar

StartChar: glyph279
Encoding: 65559 -1 279
Width: 0
GlyphClass: 2
Flags: W
LayerCount: 2
Fore
SplineSet
36 1831 m 1,0,-1
 36 863 l 1,1,-1
 -36 863 l 1,2,-1
 -36 1831 l 1,3,-1
 36 1831 l 1,0,-1
36 543 m 1,4,-1
 36 -423 l 1,5,-1
 -36 -423 l 1,6,-1
 -36 543 l 1,7,-1
 36 543 l 1,4,-1
EndSplineSet
EndChar

StartChar: glyph280
Encoding: 65560 -1 280
Width: 0
GlyphClass: 2
Flags: W
LayerCount: 2
Fore
SplineSet
-234 -423 m 1,0,-1
 -234 -352 l 1,1,-1
 -36 -352 l 1,2,-1
 -36 1760 l 1,3,-1
 -234 1760 l 1,4,-1
 -234 1831 l 1,5,-1
 234 1831 l 1,6,-1
 234 1760 l 1,7,-1
 36 1760 l 1,8,-1
 36 -352 l 1,9,-1
 234 -352 l 1,10,-1
 234 -423 l 1,11,-1
 -234 -423 l 1,0,-1
EndSplineSet
EndChar

StartChar: glyph281
Encoding: 65561 -1 281
Width: 0
GlyphClass: 2
Flags: W
LayerCount: 2
Fore
SplineSet
224 1646 m 1,0,-1
 36 1504 l 1,1,-1
 36 -423 l 1,2,-1
 -36 -423 l 1,3,-1
 -36 1831 l 1,4,-1
 224 1646 l 1,0,-1
EndSplineSet
EndChar

StartChar: glyph282
Encoding: 65562 -1 282
Width: 0
GlyphClass: 2
Flags: W
LayerCount: 2
Fore
SplineSet
36 1831 m 1,0,-1
 36 -423 l 1,1,-1
 -36 -423 l 1,2,-1
 -36 1504 l 1,3,-1
 -224 1646 l 1,4,-1
 36 1831 l 1,0,-1
EndSplineSet
EndChar

StartChar: glyph283
Encoding: 65563 -1 283
Width: 0
GlyphClass: 2
Flags: W
LayerCount: 2
Fore
SplineSet
36 1831 m 1,0,-1
 36 -352 l 1,1,-1
 234 -352 l 1,2,-1
 234 -423 l 1,3,-1
 -36 -423 l 1,4,-1
 -36 1831 l 1,5,-1
 36 1831 l 1,0,-1
EndSplineSet
EndChar

StartChar: glyph284
Encoding: 65564 -1 284
Width: 0
GlyphClass: 2
Flags: W
LayerCount: 2
Fore
SplineSet
224 1646 m 1,0,-1
 36 1504 l 1,1,-1
 36 -423 l 1,2,-1
 -36 -423 l 1,3,-1
 -36 1504 l 1,4,-1
 -224 1641 l 1,5,-1
 0 1831 l 1,6,-1
 224 1646 l 1,0,-1
EndSplineSet
EndChar

StartChar: uni0670
Encoding: 1648 1648 297
Width: 0
GlyphClass: 4
Flags: W
AnchorPoint: "Anchor-2" 0 0 mark 0
AnchorPoint: "Anchor-0" 0 0 mark 0
LayerCount: 2
Fore
SplineSet
34 38 m 0,0,1
 26 9 26 9 -4 9 c 0,2,3
 -35 9 -35 9 -29 37 c 0,4,5
 -9 131 -9 131 -33 255 c 0,6,7
 -41 283 -41 283 -5 283 c 0,8,9
 24 283 24 283 30 256 c 0,10,11
 55 115 55 115 34 38 c 0,0,1
EndSplineSet
EndChar

StartChar: glyph298
Encoding: 65565 -1 298
Width: 458
GlyphClass: 2
Flags: W
LayerCount: 2
Fore
SplineSet
235 1433 m 2,0,1
 266 1457 266 1457 294 1461.5 c 128,-1,2
 322 1466 322 1466 343 1455 c 128,-1,3
 364 1444 364 1444 377 1419 c 128,-1,4
 390 1394 390 1394 390 1357 c 2,5,-1
 389 1277 l 1,6,-1
 69 1277 l 1,7,-1
 69 1335 l 1,8,-1
 123 1335 l 1,9,-1
 235 1433 l 2,0,1
203 1335 m 1,10,-1
 331 1335 l 1,11,-1
 331 1365 l 2,12,13
 329 1394 329 1394 311 1402 c 128,-1,14
 293 1410 293 1410 263 1388 c 2,15,-1
 203 1335 l 1,10,-1
EndSplineSet
EndChar

StartChar: glyph299
Encoding: 65566 -1 299
Width: 1093
GlyphClass: 2
Flags: W
LayerCount: 2
Fore
SplineSet
1093 78 m 0,0,1
 1093 -125 1093 -125 928 -258 c 0,2,3
 774 -382 774 -382 566 -382 c 0,4,5
 364 -382 364 -382 256 -268 c 0,6,7
 150 -157 150 -157 150 46 c 0,8,9
 150 119 150 119 190 216 c 128,-1,10
 230 313 230 313 282 368 c 0,11,12
 310 398 310 398 338 398 c 0,13,14
 382 398 382 398 382 351 c 0,15,16
 382 329 382 329 366 310 c 0,17,18
 265 188 265 188 265 28 c 0,19,20
 265 -100 265 -100 352 -179 c 0,21,22
 436 -255 436 -255 565 -255 c 0,23,24
 714 -255 714 -255 837 -186 c 0,25,26
 985 -103 985 -103 985 35 c 1,27,28
 940 -8 940 -8 864 -8 c 0,29,30
 772 -8 772 -8 716.5 50.5 c 128,-1,31
 661 109 661 109 661 201 c 0,32,33
 661 288 661 288 725 362.5 c 128,-1,34
 789 437 789 437 875 437 c 0,35,36
 981 437 981 437 1041 319 c 0,37,38
 1093 217 1093 217 1093 78 c 0,0,1
986 147 m 1,39,40
 986 206 986 206 958 258 c 0,41,42
 925 320 925 320 871 320 c 0,43,44
 825 320 825 320 794 282.5 c 128,-1,45
 763 245 763 245 763 198 c 0,46,47
 763 102 763 102 870 102 c 0,48,49
 952 102 952 102 986 147 c 1,39,40
EndSplineSet
EndChar

StartChar: uni06DD
Encoding: 1757 1757 388
Width: 2300
GlyphClass: 2
Flags: W
LayerCount: 2
Fore
SplineSet
2250 715 m 256,0,1
 2250 469 2250 469 2146 249 c 0,2,3
 2046 35 2046 35 1867 -119 c 1,4,5
 1870 -133 1870 -133 1870 -148 c 0,6,7
 1870 -203 1870 -203 1831 -241.5 c 128,-1,8
 1792 -280 1792 -280 1737 -280 c 0,9,10
 1697 -280 1697 -280 1664 -258 c 1,11,12
 1424 -385 1424 -385 1149 -385 c 0,13,14
 876 -385 876 -385 636 -258 c 1,15,16
 603 -280 603 -280 563 -280 c 0,17,18
 508 -280 508 -280 469 -241.5 c 128,-1,19
 430 -203 430 -203 430 -148 c 0,20,21
 430 -133 430 -133 433 -119 c 1,22,23
 254 35 254 35 154 249 c 0,24,25
 50 469 50 469 50 715 c 256,26,27
 50 961 50 961 154 1181 c 0,28,29
 254 1394 254 1394 433 1548 c 1,30,31
 430 1562 430 1562 430 1577 c 0,32,33
 430 1632 430 1632 469 1670.5 c 128,-1,34
 508 1709 508 1709 563 1709 c 0,35,36
 603 1709 603 1709 636 1687 c 1,37,38
 876 1814 876 1814 1151 1814 c 0,39,40
 1424 1814 1424 1814 1664 1687 c 1,41,42
 1697 1709 1697 1709 1737 1709 c 0,43,44
 1792 1709 1792 1709 1831 1670.5 c 128,-1,45
 1870 1632 1870 1632 1870 1577 c 0,46,47
 1870 1562 1870 1562 1867 1548 c 1,48,49
 2046 1394 2046 1394 2146 1181 c 0,50,51
 2250 961 2250 961 2250 715 c 256,0,1
1816 1576 m 0,52,53
 1816 1609 1816 1609 1793 1632 c 128,-1,54
 1770 1655 1770 1655 1738 1655 c 256,55,56
 1706 1655 1706 1655 1682.5 1631.5 c 128,-1,57
 1659 1608 1659 1608 1659 1576 c 256,58,59
 1659 1544 1659 1544 1682 1521 c 128,-1,60
 1705 1498 1705 1498 1738 1498 c 0,61,62
 1770 1498 1770 1498 1793 1521 c 128,-1,63
 1816 1544 1816 1544 1816 1576 c 0,52,53
1602 1595 m 1,64,65
 1390 1704 1390 1704 1151 1704 c 0,66,67
 910 1704 910 1704 698 1595 c 1,68,-1
 1602 1595 l 1,64,65
641 1576 m 256,69,70
 641 1608 641 1608 617.5 1631.5 c 128,-1,71
 594 1655 594 1655 562 1655 c 256,72,73
 530 1655 530 1655 507 1632 c 128,-1,74
 484 1609 484 1609 484 1576 c 0,75,76
 484 1544 484 1544 507 1521 c 128,-1,77
 530 1498 530 1498 562 1498 c 0,78,79
 595 1498 595 1498 618 1521 c 128,-1,80
 641 1544 641 1544 641 1576 c 256,69,70
2140 714 m 0,81,82
 2140 933 2140 933 2048 1131 c 0,83,84
 1960 1321 1960 1321 1801 1460 c 1,85,86
 1772 1444 1772 1444 1737 1444 c 0,87,88
 1681 1444 1681 1444 1642 1485 c 1,89,-1
 658 1485 l 1,90,91
 619 1444 619 1444 563 1444 c 0,92,93
 528 1444 528 1444 499 1460 c 1,94,95
 340 1321 340 1321 252 1131 c 0,96,97
 160 933 160 933 160 714 c 0,98,99
 160 265 160 265 499 -31 c 1,100,101
 528 -15 528 -15 563 -15 c 0,102,103
 619 -15 619 -15 658 -56 c 1,104,-1
 1642 -56 l 1,105,106
 1681 -15 1681 -15 1737 -15 c 0,107,108
 1772 -15 1772 -15 1801 -31 c 1,109,110
 2140 265 2140 265 2140 714 c 0,81,82
1816 -147 m 0,111,112
 1816 -115 1816 -115 1793 -92 c 128,-1,113
 1770 -69 1770 -69 1738 -69 c 0,114,115
 1705 -69 1705 -69 1682 -92 c 128,-1,116
 1659 -115 1659 -115 1659 -147 c 256,117,118
 1659 -179 1659 -179 1682.5 -202.5 c 128,-1,119
 1706 -226 1706 -226 1738 -226 c 256,120,121
 1770 -226 1770 -226 1793 -203 c 128,-1,122
 1816 -180 1816 -180 1816 -147 c 0,111,112
1602 -166 m 1,123,-1
 698 -166 l 1,124,125
 910 -275 910 -275 1151 -275 c 0,126,127
 1390 -275 1390 -275 1602 -166 c 1,123,-1
641 -147 m 256,128,129
 641 -115 641 -115 618 -92 c 128,-1,130
 595 -69 595 -69 562 -69 c 0,131,132
 530 -69 530 -69 507 -92 c 128,-1,133
 484 -115 484 -115 484 -147 c 0,134,135
 484 -180 484 -180 507 -203 c 128,-1,136
 530 -226 530 -226 562 -226 c 256,137,138
 594 -226 594 -226 617.5 -202.5 c 128,-1,139
 641 -179 641 -179 641 -147 c 256,128,129
EndSplineSet
EndChar

StartChar: uni06DE
Encoding: 1758 1758 389
Width: 2221
GlyphClass: 2
Flags: W
LayerCount: 2
Fore
SplineSet
2171 750 m 1,0,-1
 1861 439 l 1,1,-1
 1861 0 l 1,2,-1
 1421 0 l 1,3,-1
 1111 -311 l 1,4,-1
 800 0 l 1,5,-1
 361 0 l 1,6,-1
 361 439 l 1,7,-1
 50 750 l 1,8,-1
 361 1061 l 1,9,-1
 361 1500 l 1,10,-1
 800 1500 l 1,11,-1
 1111 1811 l 1,12,-1
 1421 1500 l 1,13,-1
 1861 1500 l 1,14,-1
 1861 1061 l 1,15,-1
 2171 750 l 1,0,-1
436 364 m 1,16,-1
 436 75 l 1,17,-1
 725 75 l 1,18,-1
 436 364 l 1,16,-1
725 1425 m 1,19,-1
 436 1425 l 1,20,-1
 436 1136 l 1,21,-1
 725 1425 l 1,19,-1
1786 1136 m 1,22,-1
 1786 1425 l 1,23,-1
 1496 1425 l 1,24,-1
 1786 1136 l 1,22,-1
1786 75 m 1,25,-1
 1786 364 l 1,26,-1
 1496 75 l 1,27,-1
 1786 75 l 1,25,-1
906 0 m 1,28,-1
 1111 -205 l 1,29,-1
 1315 0 l 1,30,-1
 906 0 l 1,28,-1
361 955 m 1,31,-1
 156 750 l 1,32,-1
 361 545 l 1,33,-1
 361 955 l 1,31,-1
1315 1500 m 1,34,-1
 1111 1705 l 1,35,-1
 906 1500 l 1,36,-1
 1315 1500 l 1,34,-1
1786 1030 m 1,37,-1
 1390 1425 l 1,38,-1
 831 1425 l 1,39,-1
 436 1030 l 1,40,-1
 436 470 l 1,41,-1
 831 75 l 1,42,-1
 1390 75 l 1,43,-1
 1786 470 l 1,44,-1
 1786 1030 l 1,37,-1
2065 750 m 1,45,-1
 1861 955 l 1,46,-1
 1861 545 l 1,47,-1
 2065 750 l 1,45,-1
1328 750 m 256,48,49
 1328 660 1328 660 1264.5 596 c 128,-1,50
 1201 532 1201 532 1111 532 c 256,51,52
 1021 532 1021 532 957 596 c 128,-1,53
 893 660 893 660 893 750 c 256,54,55
 893 840 893 840 957 903.5 c 128,-1,56
 1021 967 1021 967 1111 967 c 256,57,58
 1201 967 1201 967 1264.5 903.5 c 128,-1,59
 1328 840 1328 840 1328 750 c 256,48,49
1253 750 m 256,60,61
 1253 809 1253 809 1211 850.5 c 128,-1,62
 1169 892 1169 892 1110 892 c 256,63,64
 1051 892 1051 892 1009 850.5 c 128,-1,65
 967 809 967 809 967 750 c 256,66,67
 967 691 967 691 1009 649 c 128,-1,68
 1051 607 1051 607 1110 607 c 256,69,70
 1169 607 1169 607 1211 649 c 128,-1,71
 1253 691 1253 691 1253 750 c 256,60,61
EndSplineSet
EndChar

StartChar: uni06DF
Encoding: 1759 1759 390
Width: 0
GlyphClass: 2
Flags: W
LayerCount: 2
Fore
SplineSet
75 1429 m 256,0,1
 75 1398 75 1398 53 1376 c 128,-1,2
 31 1354 31 1354 0 1354 c 256,3,4
 -31 1354 -31 1354 -53 1376 c 128,-1,5
 -75 1398 -75 1398 -75 1429 c 256,6,7
 -75 1460 -75 1460 -53 1482 c 128,-1,8
 -31 1504 -31 1504 0 1504 c 256,9,10
 31 1504 31 1504 53 1482 c 128,-1,11
 75 1460 75 1460 75 1429 c 256,0,1
EndSplineSet
EndChar

StartChar: uni06E9
Encoding: 1769 1769 391
Width: 1229
GlyphClass: 2
Flags: W
LayerCount: 2
Fore
SplineSet
1179 0 m 1,0,-1
 50 0 l 1,1,-1
 278 261 l 1,2,-1
 278 849 l 1,3,-1
 50 1108 l 1,4,-1
 614 1676 l 1,5,-1
 1179 1108 l 1,6,-1
 951 849 l 1,7,-1
 951 261 l 1,8,-1
 1179 0 l 1,0,-1
1101 1108 m 1,9,-1
 614 1598 l 1,10,-1
 128 1108 l 1,11,-1
 338 871 l 1,12,-1
 338 239 l 1,13,-1
 178 56 l 1,14,-1
 1051 56 l 1,15,-1
 891 239 l 1,16,-1
 891 871 l 1,17,-1
 1101 1108 l 1,9,-1
995 1108 m 1,18,-1
 845 937 l 1,19,-1
 845 131 l 1,20,-1
 384 131 l 1,21,-1
 384 937 l 1,22,-1
 234 1108 l 1,23,-1
 614 1489 l 1,24,-1
 995 1108 l 1,18,-1
922 1108 m 1,25,-1
 614 1416 l 1,26,-1
 307 1108 l 1,27,-1
 433 968 l 1,28,-1
 433 186 l 1,29,-1
 796 186 l 1,30,-1
 796 968 l 1,31,-1
 922 1108 l 1,25,-1
833 1108 m 1,32,-1
 745 1011 l 1,33,-1
 745 267 l 1,34,-1
 484 267 l 1,35,-1
 484 1011 l 1,36,-1
 396 1108 l 1,37,-1
 614 1331 l 1,38,-1
 833 1108 l 1,32,-1
780 1108 m 1,39,-1
 614 1278 l 1,40,-1
 449 1108 l 1,41,-1
 523 1027 l 1,42,-1
 523 309 l 1,43,-1
 705 309 l 1,44,-1
 705 1027 l 1,45,-1
 780 1108 l 1,39,-1
EndSplineSet
EndChar

StartChar: uni06EB
Encoding: 1771 1771 393
Width: 0
GlyphClass: 2
Flags: W
LayerCount: 2
Fore
SplineSet
168 1522 m 1,0,-1
 -1 1354 l 1,1,-1
 -168 1521 l 1,2,-1
 1 1689 l 1,3,-1
 168 1522 l 1,0,-1
104 1522 m 1,4,-1
 0 1626 l 1,5,-1
 -104 1521 l 1,6,-1
 0 1417 l 1,7,-1
 104 1522 l 1,4,-1
EndSplineSet
EndChar

StartChar: comma
Encoding: 44 44 402
Width: 439
Flags: W
LayerCount: 2
Fore
SplineSet
124 -220 m 1,0,1
 203 -165 203 -165 239.5 -120 c 128,-1,2
 276 -75 276 -75 276 -34 c 0,3,4
 276 -23 276 -23 269 -14.5 c 128,-1,5
 262 -6 262 -6 251 -6 c 2,6,-1
 241 -6 l 1,7,-1
 224 -8 l 1,8,-1
 213 -8 l 2,9,10
 206 -8 206 -8 198 -6 c 128,-1,11
 190 -4 190 -4 181 -1 c 128,-1,12
 172 2 172 2 164 6.5 c 128,-1,13
 156 11 156 11 150 16 c 0,14,15
 132 30 132 30 123 51.5 c 128,-1,16
 114 73 114 73 114 100 c 0,17,18
 114 153 114 153 146 184 c 128,-1,19
 178 215 178 215 230 215 c 0,20,21
 261 215 261 215 287 203.5 c 128,-1,22
 313 192 313 192 331.5 171 c 128,-1,23
 350 150 350 150 360 120 c 128,-1,24
 370 90 370 90 370 54 c 0,25,26
 370 10 370 10 356.5 -30.5 c 128,-1,27
 343 -71 343 -71 315 -108.5 c 128,-1,28
 287 -146 287 -146 243.5 -181 c 128,-1,29
 200 -216 200 -216 139 -251 c 1,30,-1
 124 -220 l 1,0,1
EndSplineSet
EndChar

StartChar: afii57407
Encoding: 1567 1567 403
Width: 583
GlyphClass: 2
Flags: W
LayerCount: 2
Fore
SplineSet
590 746 m 0,0,1
 590 699 590 699 529 699 c 0,2,3
 496 699 496 699 488 722 c 0,4,5
 472 772 472 772 410 777 c 0,6,7
 397 778 397 778 386 778 c 0,8,9
 277 778 277 778 269 684 c 0,10,11
 263 617 263 617 336 589 c 2,12,-1
 468 539 l 1,13,14
 556 487 556 487 556 381 c 0,15,16
 556 253 556 253 484 253 c 0,17,18
 431 253 431 253 431 295 c 0,19,20
 431 302 431 302 434 310 c 0,21,22
 452 359 452 359 452 387 c 0,23,24
 452 435 452 435 402 467 c 1,25,26
 330 495 330 495 258 524 c 1,27,28
 148 583 148 583 157 693 c 0,29,30
 164 781 164 781 238 832 c 0,31,32
 305 879 305 879 396 879 c 0,33,34
 457 879 457 879 519 843 c 0,35,36
 590 803 590 803 590 746 c 0,0,1
496 27 m 0,37,38
 458 -6 458 -6 422 0 c 0,39,40
 355 12 355 12 355 84 c 0,41,42
 355 133 355 133 390 173 c 128,-1,43
 425 213 425 213 473 213 c 0,44,45
 544 213 544 213 544 136 c 0,46,47
 544 69 544 69 496 27 c 0,37,38
474 102 m 0,48,49
 477 128 477 128 459 131 c 0,50,51
 437 137 437 137 426 109 c 0,52,53
 415 80 415 80 443 75 c 0,54,55
 470 70 470 70 474 102 c 0,48,49
EndSplineSet
EndChar

StartChar: afii57392
Encoding: 1776 1776 404
Width: 450
Flags: W
LayerCount: 2
Fore
SplineSet
384 226 m 0,0,1
 333 174 333 174 277 174 c 256,2,3
 221 174 221 174 187.5 213 c 128,-1,4
 154 252 154 252 154 309 c 0,5,6
 154 384 154 384 209.5 444 c 128,-1,7
 265 504 265 504 340 504 c 0,8,9
 448 504 448 504 448 388 c 0,10,11
 448 291 448 291 384 226 c 0,0,1
350 333 m 0,12,13
 362 382 362 382 321 390 c 0,14,15
 279 398 279 398 260 346 c 0,16,17
 254 330 254 330 254 318 c 0,18,19
 254 288 254 288 290 281 c 0,20,21
 310 277 310 277 329 294.5 c 128,-1,22
 348 312 348 312 350 333 c 0,12,13
EndSplineSet
EndChar

StartChar: afii57393
Encoding: 1777 1777 405
Width: 318
Flags: W
LayerCount: 2
Fore
SplineSet
318 899 m 0,0,1
 318 482 318 482 252 54 c 0,2,3
 244 0 244 0 194 0 c 0,4,5
 150 0 150 0 150 58 c 0,6,7
 150 73 150 73 154 92 c 0,8,9
 219 401 219 401 219 924 c 0,10,11
 219 976 219 976 263 976 c 0,12,13
 318 976 318 976 318 899 c 0,0,1
EndSplineSet
EndChar

StartChar: afii57394
Encoding: 1778 1778 406
Width: 756
Flags: W
LayerCount: 2
Fore
SplineSet
756 924 m 0,0,1
 735 774 735 774 640 653 c 0,2,3
 534 517 534 517 401 517 c 0,4,5
 341 517 341 517 309 533 c 1,6,7
 296 347 296 347 252 54 c 0,8,9
 244 0 244 0 194 0 c 0,10,11
 150 0 150 0 150 59 c 0,12,13
 150 73 150 73 154 92 c 0,14,15
 219 401 219 401 219 924 c 0,16,17
 219 976 219 976 263 976 c 0,18,19
 318 976 318 976 318 899 c 0,20,21
 318 772 318 772 315 664 c 1,22,23
 339 633 339 633 401 633 c 0,24,25
 499 633 499 633 575 735 c 0,26,27
 640 822 640 822 655 929 c 0,28,29
 661 973 661 973 706 973 c 0,30,31
 763 973 763 973 756 924 c 0,0,1
EndSplineSet
EndChar

StartChar: afii57395
Encoding: 1779 1779 407
Width: 1084
Flags: W
LayerCount: 2
Fore
SplineSet
1084 929 m 0,0,1
 1064 786 1064 786 965 658 c 0,2,3
 856 517 856 517 730 517 c 0,4,5
 677 517 677 517 631 560 c 128,-1,6
 585 603 585 603 585 655 c 1,7,8
 496 517 496 517 401 517 c 0,9,10
 344 517 344 517 309 533 c 1,11,12
 296 347 296 347 252 54 c 0,13,14
 244 0 244 0 194 0 c 0,15,16
 150 0 150 0 150 59 c 0,17,18
 150 73 150 73 154 92 c 0,19,20
 219 401 219 401 219 924 c 0,21,22
 219 976 219 976 263 976 c 0,23,24
 318 976 318 976 318 899 c 0,25,26
 318 772 318 772 315 664 c 1,27,28
 342 633 342 633 405 633 c 0,29,30
 473 633 473 633 534 735 c 0,31,32
 587 823 587 823 602 920 c 0,33,34
 609 963 609 963 651 963 c 0,35,36
 703 963 703 963 703 915 c 0,37,38
 703 884 703 884 677 787 c 0,39,40
 669 757 669 757 669 726 c 0,41,42
 669 633 669 633 734 633 c 0,43,44
 826 633 826 633 902 741 c 0,45,46
 967 833 967 833 983 934 c 0,47,48
 990 979 990 979 1034 979 c 0,49,50
 1091 979 1091 979 1084 929 c 0,0,1
EndSplineSet
EndChar

StartChar: afii62843
Encoding: 1780 1780 408
Width: 907
Flags: W
LayerCount: 2
Fore
SplineSet
887 694 m 0,0,1
 787 642 787 642 648.5 607.5 c 128,-1,2
 510 573 510 573 399 573 c 0,3,4
 345 573 345 573 309 583 c 1,5,6
 291 311 291 311 252 54 c 0,7,8
 244 0 244 0 194 0 c 0,9,10
 150 0 150 0 150 59 c 0,11,12
 150 73 150 73 154 92 c 0,13,14
 219 401 219 401 219 924 c 0,15,16
 219 976 219 976 263 976 c 0,17,18
 318 976 318 976 318 899 c 0,19,20
 318 798 318 798 315 690 c 1,21,22
 337 670 337 670 401 667 c 0,23,24
 459 664 459 664 502 674 c 1,25,26
 384 739 384 739 384 823 c 0,27,28
 384 901 384 901 488 962 c 0,29,30
 584 1018 584 1018 687 1018 c 0,31,32
 816 1018 816 1018 816 937 c 0,33,34
 816 907 816 907 790 859 c 0,35,36
 762 805 762 805 736 805 c 0,37,38
 722 805 722 805 722 828 c 0,39,40
 722 836 722 836 723.5 851.5 c 128,-1,41
 725 867 725 867 725 875 c 0,42,43
 725 915 725 915 673 915 c 0,44,45
 610 915 610 915 557 896 c 0,46,47
 490 872 490 872 490 832 c 0,48,49
 490 788 490 788 551 752 c 0,50,51
 605 719 605 719 653 719 c 0,52,53
 731 719 731 719 836 780 c 0,54,55
 848 787 848 787 859 787 c 0,56,57
 906 787 906 787 906 729 c 0,58,59
 906 704 906 704 887 694 c 0,0,1
EndSplineSet
EndChar

StartChar: afii62844
Encoding: 1781 1781 409
Width: 938
Flags: W
LayerCount: 2
Fore
SplineSet
921 433 m 0,0,1
 934 371 934 371 934 314 c 0,2,3
 934 171 934 171 859 79 c 0,4,5
 795 0 795 0 720 0 c 0,6,7
 659 0 659 0 605 39 c 0,8,9
 546 81 546 81 544 140 c 1,10,11
 473 0 473 0 350 0 c 0,12,13
 278 0 278 0 225 52 c 0,14,15
 158 118 158 118 158 238 c 0,16,17
 158 287 158 287 170 346 c 0,18,19
 226 619 226 619 524 857 c 1,20,21
 487 894 487 894 487 908 c 0,22,23
 487 953 487 953 544 953 c 0,24,25
 571 953 571 953 590 933 c 0,26,27
 880 630 880 630 921 433 c 0,0,1
822 416 m 0,28,29
 792 561 792 561 591 788 c 1,30,31
 489 715 489 715 393 583 c 0,32,33
 292 443 292 443 269 329 c 0,34,35
 260 285 260 285 260 252 c 0,36,37
 260 116 260 116 355 116 c 0,38,39
 472 116 472 116 527 280 c 0,40,41
 540 320 540 320 583 320 c 0,42,43
 645 320 645 320 631 270 c 0,44,45
 623 241 623 241 623 213 c 0,46,47
 623 116 623 116 715 116 c 0,48,49
 775 116 775 116 807 192 c 0,50,51
 832 251 832 251 832 319 c 0,52,53
 832 367 832 367 822 416 c 0,28,29
EndSplineSet
EndChar

StartChar: afii62845
Encoding: 1782 1782 410
Width: 745
Flags: W
LayerCount: 2
Fore
SplineSet
745 775 m 0,0,1
 623 622 623 622 479 411 c 0,2,3
 318 175 318 175 255 48 c 0,4,5
 229 -4 229 -4 187 -4 c 256,6,7
 145 -4 145 -4 145 40 c 0,8,9
 145 60 145 60 158 84 c 0,10,11
 324 391 324 391 435 524 c 1,12,13
 338 492 338 492 298 492 c 0,14,15
 222 492 222 492 194 567 c 0,16,17
 190 578 190 578 190 592 c 0,18,19
 190 690 190 690 281 850 c 0,20,21
 379 1022 379 1022 461 1022 c 0,22,23
 525 1022 525 1022 525 925 c 0,24,25
 525 885 525 885 514 830 c 0,26,27
 499 755 499 755 476 755 c 256,28,29
 453 755 453 755 453 805 c 0,30,31
 453 817 453 817 455 841.5 c 128,-1,32
 457 866 457 866 457 878 c 0,33,34
 457 899 457 899 450 900 c 0,35,36
 427 903 427 903 363 801 c 0,37,38
 296 694 296 694 296 635 c 0,39,40
 296 593 296 593 351 593 c 0,41,42
 464 593 464 593 534 666 c 0,43,44
 547 680 547 680 672 830 c 0,45,46
 688 849 688 849 711 849 c 0,47,48
 757 849 757 849 757 806 c 0,49,50
 757 790 757 790 745 775 c 0,0,1
EndSplineSet
EndChar

StartChar: afii57399
Encoding: 1783 1783 411
Width: 845
Flags: W
LayerCount: 2
Fore
SplineSet
819 893 m 0,0,1
 678 756 678 756 542 517 c 0,2,3
 390 249 390 249 364 41 c 0,4,5
 359 -1 359 -1 313 -1 c 0,6,7
 264 -1 264 -1 264 49 c 0,8,9
 264 208 264 208 231 474 c 0,10,11
 197 751 197 751 155 893 c 0,12,13
 151 907 151 907 151 921 c 0,14,15
 151 982 151 982 202 982 c 0,16,17
 232 982 232 982 243 949 c 0,18,19
 328 691 328 691 350 341 c 1,20,21
 373 463 373 463 504 667 c 0,22,23
 631 865 631 865 734 949 c 0,24,25
 771 979 771 979 804 979 c 0,26,27
 845 979 845 979 845 943 c 0,28,29
 845 918 845 918 819 893 c 0,0,1
EndSplineSet
EndChar

StartChar: afii57400
Encoding: 1784 1784 412
Width: 845
Flags: W
LayerCount: 2
Fore
SplineSet
840 92 m 0,0,1
 844 78 844 78 844 64 c 0,2,3
 844 3 844 3 793 3 c 0,4,5
 763 3 763 3 752 36 c 0,6,7
 667 294 667 294 645 644 c 1,8,9
 622 522 622 522 491 318 c 0,10,11
 364 120 364 120 261 36 c 0,12,13
 224 6 224 6 191 6 c 0,14,15
 150 6 150 6 150 42 c 0,16,17
 150 67 150 67 176 92 c 0,18,19
 317 229 317 229 453 468 c 0,20,21
 605 736 605 736 631 944 c 0,22,23
 636 986 636 986 682 986 c 0,24,25
 731 986 731 986 731 936 c 0,26,27
 731 777 731 777 764 511 c 0,28,29
 798 234 798 234 840 92 c 0,0,1
EndSplineSet
EndChar

StartChar: afii57401
Encoding: 1785 1785 413
Width: 650
Flags: W
LayerCount: 2
Fore
SplineSet
650 92 m 0,0,1
 653 75 653 75 653 62 c 0,2,3
 653 0 653 0 609 0 c 0,4,5
 560 0 560 0 552 54 c 0,6,7
 496 415 496 415 496 549 c 1,8,9
 434 529 434 529 361 529 c 0,10,11
 140 529 140 529 140 686 c 0,12,13
 140 782 140 782 207 879 c 0,14,15
 280 985 280 985 372 985 c 0,16,17
 473 985 473 985 534 875 c 0,18,19
 587 779 587 779 593 647 c 0,20,21
 606 335 606 335 650 92 c 0,0,1
484 656 m 1,22,23
 484 734 484 734 463 790 c 0,24,25
 433 871 433 871 369 871 c 0,26,27
 316 871 316 871 277 804 c 0,28,29
 242 746 242 746 242 689 c 0,30,31
 242 634 242 634 350 634 c 0,32,33
 429 634 429 634 484 656 c 1,22,23
EndSplineSet
EndChar

StartChar: afii57392.001
Encoding: 1632 1632 414
Width: 450
Flags: W
LayerCount: 2
Fore
SplineSet
384 226 m 0,0,1
 333 174 333 174 277 174 c 256,2,3
 221 174 221 174 187.5 213 c 128,-1,4
 154 252 154 252 154 309 c 0,5,6
 154 384 154 384 209.5 444 c 128,-1,7
 265 504 265 504 340 504 c 0,8,9
 448 504 448 504 448 388 c 0,10,11
 448 291 448 291 384 226 c 0,0,1
350 333 m 0,12,13
 362 382 362 382 321 390 c 0,14,15
 279 398 279 398 260 346 c 0,16,17
 254 330 254 330 254 318 c 0,18,19
 254 288 254 288 290 281 c 0,20,21
 310 277 310 277 329 294.5 c 128,-1,22
 348 312 348 312 350 333 c 0,12,13
EndSplineSet
EndChar

StartChar: afii57393.001
Encoding: 1633 1633 415
Width: 318
Flags: W
LayerCount: 2
Fore
SplineSet
318 899 m 0,0,1
 318 482 318 482 252 54 c 0,2,3
 244 0 244 0 194 0 c 0,4,5
 150 0 150 0 150 58 c 0,6,7
 150 73 150 73 154 92 c 0,8,9
 219 401 219 401 219 924 c 0,10,11
 219 976 219 976 263 976 c 0,12,13
 318 976 318 976 318 899 c 0,0,1
EndSplineSet
EndChar

StartChar: afii57394.001
Encoding: 1634 1634 416
Width: 756
Flags: W
LayerCount: 2
Fore
SplineSet
756 924 m 0,0,1
 735 774 735 774 640 653 c 0,2,3
 534 517 534 517 401 517 c 0,4,5
 341 517 341 517 309 533 c 1,6,7
 296 347 296 347 252 54 c 0,8,9
 244 0 244 0 194 0 c 0,10,11
 150 0 150 0 150 59 c 0,12,13
 150 73 150 73 154 92 c 0,14,15
 219 401 219 401 219 924 c 0,16,17
 219 976 219 976 263 976 c 0,18,19
 318 976 318 976 318 899 c 0,20,21
 318 772 318 772 315 664 c 1,22,23
 339 633 339 633 401 633 c 0,24,25
 499 633 499 633 575 735 c 0,26,27
 640 822 640 822 655 929 c 0,28,29
 661 973 661 973 706 973 c 0,30,31
 763 973 763 973 756 924 c 0,0,1
EndSplineSet
EndChar

StartChar: afii57395.001
Encoding: 1635 1635 417
Width: 1084
Flags: W
LayerCount: 2
Fore
SplineSet
1084 929 m 0,0,1
 1064 786 1064 786 965 658 c 0,2,3
 856 517 856 517 730 517 c 0,4,5
 677 517 677 517 631 560 c 128,-1,6
 585 603 585 603 585 655 c 1,7,8
 496 517 496 517 401 517 c 0,9,10
 344 517 344 517 309 533 c 1,11,12
 296 347 296 347 252 54 c 0,13,14
 244 0 244 0 194 0 c 0,15,16
 150 0 150 0 150 59 c 0,17,18
 150 73 150 73 154 92 c 0,19,20
 219 401 219 401 219 924 c 0,21,22
 219 976 219 976 263 976 c 0,23,24
 318 976 318 976 318 899 c 0,25,26
 318 772 318 772 315 664 c 1,27,28
 342 633 342 633 405 633 c 0,29,30
 473 633 473 633 534 735 c 0,31,32
 587 823 587 823 602 920 c 0,33,34
 609 963 609 963 651 963 c 0,35,36
 703 963 703 963 703 915 c 0,37,38
 703 884 703 884 677 787 c 0,39,40
 669 757 669 757 669 726 c 0,41,42
 669 633 669 633 734 633 c 0,43,44
 826 633 826 633 902 741 c 0,45,46
 967 833 967 833 983 934 c 0,47,48
 990 979 990 979 1034 979 c 0,49,50
 1091 979 1091 979 1084 929 c 0,0,1
EndSplineSet
EndChar

StartChar: afii57396
Encoding: 1636 1636 418
Width: 907
Flags: W
LayerCount: 2
Fore
SplineSet
887 694 m 0,0,1
 787 642 787 642 648.5 607.5 c 128,-1,2
 510 573 510 573 399 573 c 0,3,4
 345 573 345 573 309 583 c 1,5,6
 291 311 291 311 252 54 c 0,7,8
 244 0 244 0 194 0 c 0,9,10
 150 0 150 0 150 59 c 0,11,12
 150 73 150 73 154 92 c 0,13,14
 219 401 219 401 219 924 c 0,15,16
 219 976 219 976 263 976 c 0,17,18
 318 976 318 976 318 899 c 0,19,20
 318 798 318 798 315 690 c 1,21,22
 337 670 337 670 401 667 c 0,23,24
 459 664 459 664 502 674 c 1,25,26
 384 739 384 739 384 823 c 0,27,28
 384 901 384 901 488 962 c 0,29,30
 584 1018 584 1018 687 1018 c 0,31,32
 816 1018 816 1018 816 937 c 0,33,34
 816 907 816 907 790 859 c 0,35,36
 762 805 762 805 736 805 c 0,37,38
 722 805 722 805 722 828 c 0,39,40
 722 836 722 836 723.5 851.5 c 128,-1,41
 725 867 725 867 725 875 c 0,42,43
 725 915 725 915 673 915 c 0,44,45
 610 915 610 915 557 896 c 0,46,47
 490 872 490 872 490 832 c 0,48,49
 490 788 490 788 551 752 c 0,50,51
 605 719 605 719 653 719 c 0,52,53
 731 719 731 719 836 780 c 0,54,55
 848 787 848 787 859 787 c 0,56,57
 906 787 906 787 906 729 c 0,58,59
 906 704 906 704 887 694 c 0,0,1
EndSplineSet
EndChar

StartChar: afii57397
Encoding: 1637 1637 419
Width: 938
Flags: W
LayerCount: 2
Fore
SplineSet
921 433 m 0,0,1
 934 371 934 371 934 314 c 0,2,3
 934 171 934 171 859 79 c 0,4,5
 795 0 795 0 720 0 c 0,6,7
 659 0 659 0 605 39 c 0,8,9
 546 81 546 81 544 140 c 1,10,11
 473 0 473 0 350 0 c 0,12,13
 278 0 278 0 225 52 c 0,14,15
 158 118 158 118 158 238 c 0,16,17
 158 287 158 287 170 346 c 0,18,19
 226 619 226 619 524 857 c 1,20,21
 487 894 487 894 487 908 c 0,22,23
 487 953 487 953 544 953 c 0,24,25
 571 953 571 953 590 933 c 0,26,27
 880 630 880 630 921 433 c 0,0,1
822 416 m 0,28,29
 792 561 792 561 591 788 c 1,30,31
 489 715 489 715 393 583 c 0,32,33
 292 443 292 443 269 329 c 0,34,35
 260 285 260 285 260 252 c 0,36,37
 260 116 260 116 355 116 c 0,38,39
 472 116 472 116 527 280 c 0,40,41
 540 320 540 320 583 320 c 0,42,43
 645 320 645 320 631 270 c 0,44,45
 623 241 623 241 623 213 c 0,46,47
 623 116 623 116 715 116 c 0,48,49
 775 116 775 116 807 192 c 0,50,51
 832 251 832 251 832 319 c 0,52,53
 832 367 832 367 822 416 c 0,28,29
EndSplineSet
EndChar

StartChar: afii57398
Encoding: 1638 1638 420
Width: 745
Flags: W
LayerCount: 2
Fore
SplineSet
745 775 m 0,0,1
 623 622 623 622 479 411 c 0,2,3
 318 175 318 175 255 48 c 0,4,5
 229 -4 229 -4 187 -4 c 256,6,7
 145 -4 145 -4 145 40 c 0,8,9
 145 60 145 60 158 84 c 0,10,11
 324 391 324 391 435 524 c 1,12,13
 338 492 338 492 298 492 c 0,14,15
 222 492 222 492 194 567 c 0,16,17
 190 578 190 578 190 592 c 0,18,19
 190 690 190 690 281 850 c 0,20,21
 379 1022 379 1022 461 1022 c 0,22,23
 525 1022 525 1022 525 925 c 0,24,25
 525 885 525 885 514 830 c 0,26,27
 499 755 499 755 476 755 c 256,28,29
 453 755 453 755 453 805 c 0,30,31
 453 817 453 817 455 841.5 c 128,-1,32
 457 866 457 866 457 878 c 0,33,34
 457 899 457 899 450 900 c 0,35,36
 427 903 427 903 363 801 c 0,37,38
 296 694 296 694 296 635 c 0,39,40
 296 593 296 593 351 593 c 0,41,42
 464 593 464 593 534 666 c 0,43,44
 547 680 547 680 672 830 c 0,45,46
 688 849 688 849 711 849 c 0,47,48
 757 849 757 849 757 806 c 0,49,50
 757 790 757 790 745 775 c 0,0,1
EndSplineSet
EndChar

StartChar: afii57399.001
Encoding: 1639 1639 421
Width: 845
Flags: W
LayerCount: 2
Fore
SplineSet
819 893 m 0,0,1
 678 756 678 756 542 517 c 0,2,3
 390 249 390 249 364 41 c 0,4,5
 359 -1 359 -1 313 -1 c 0,6,7
 264 -1 264 -1 264 49 c 0,8,9
 264 208 264 208 231 474 c 0,10,11
 197 751 197 751 155 893 c 0,12,13
 151 907 151 907 151 921 c 0,14,15
 151 982 151 982 202 982 c 0,16,17
 232 982 232 982 243 949 c 0,18,19
 328 691 328 691 350 341 c 1,20,21
 373 463 373 463 504 667 c 0,22,23
 631 865 631 865 734 949 c 0,24,25
 771 979 771 979 804 979 c 0,26,27
 845 979 845 979 845 943 c 0,28,29
 845 918 845 918 819 893 c 0,0,1
EndSplineSet
EndChar

StartChar: afii57400.001
Encoding: 1640 1640 422
Width: 845
Flags: W
LayerCount: 2
Fore
SplineSet
840 92 m 0,0,1
 844 78 844 78 844 64 c 0,2,3
 844 3 844 3 793 3 c 0,4,5
 763 3 763 3 752 36 c 0,6,7
 667 294 667 294 645 644 c 1,8,9
 622 522 622 522 491 318 c 0,10,11
 364 120 364 120 261 36 c 0,12,13
 224 6 224 6 191 6 c 0,14,15
 150 6 150 6 150 42 c 0,16,17
 150 67 150 67 176 92 c 0,18,19
 317 229 317 229 453 468 c 0,20,21
 605 736 605 736 631 944 c 0,22,23
 636 986 636 986 682 986 c 0,24,25
 731 986 731 986 731 936 c 0,26,27
 731 777 731 777 764 511 c 0,28,29
 798 234 798 234 840 92 c 0,0,1
EndSplineSet
EndChar

StartChar: afii57401.001
Encoding: 1641 1641 423
Width: 650
Flags: W
LayerCount: 2
Fore
SplineSet
650 92 m 0,0,1
 653 75 653 75 653 62 c 0,2,3
 653 0 653 0 609 0 c 0,4,5
 560 0 560 0 552 54 c 0,6,7
 496 415 496 415 496 549 c 1,8,9
 434 529 434 529 361 529 c 0,10,11
 140 529 140 529 140 686 c 0,12,13
 140 782 140 782 207 879 c 0,14,15
 280 985 280 985 372 985 c 0,16,17
 473 985 473 985 534 875 c 0,18,19
 587 779 587 779 593 647 c 0,20,21
 606 335 606 335 650 92 c 0,0,1
484 656 m 1,22,23
 484 734 484 734 463 790 c 0,24,25
 433 871 433 871 369 871 c 0,26,27
 316 871 316 871 277 804 c 0,28,29
 242 746 242 746 242 689 c 0,30,31
 242 634 242 634 350 634 c 0,32,33
 429 634 429 634 484 656 c 1,22,23
EndSplineSet
EndChar

StartChar: guillemotleft
Encoding: 171 171 424
Width: 755
Flags: W
LayerCount: 2
Fore
SplineSet
558 546 m 1,0,1
 512 451 512 451 512 353 c 0,2,3
 512 234 512 234 621 84 c 1,4,-1
 621 85 l 1,5,6
 638 65 638 65 646 51.5 c 128,-1,7
 654 38 654 38 656 31 c 0,8,9
 656 9 656 9 635 9 c 0,10,11
 629 9 629 9 618 14 c 0,12,13
 540 74 540 74 472 158 c 1,14,-1
 472 158 l 1,15,16
 395 252 395 252 395 356 c 0,17,18
 396 401 396 401 412.5 445.5 c 128,-1,19
 429 490 429 490 460 534 c 0,20,21
 482 567 482 567 508 598.5 c 128,-1,22
 534 630 534 630 575.5 667 c 128,-1,23
 617 704 617 704 629 704 c 0,24,25
 659 704 659 704 659 683 c 0,26,27
 659 674 659 674 652 667 c 0,28,29
 607 620 607 620 587 591 c 128,-1,30
 567 562 567 562 557 545 c 1,31,-1
 558 546 l 1,0,1
339 546 m 1,32,33
 293 451 293 451 293 353 c 0,34,35
 293 234 293 234 402 84 c 1,36,-1
 402 85 l 1,37,38
 419 65 419 65 427 51.5 c 128,-1,39
 435 38 435 38 437 31 c 0,40,41
 437 9 437 9 415 9 c 0,42,43
 410 9 410 9 398 14 c 0,44,45
 321 74 321 74 253 158 c 1,46,-1
 253 158 l 1,47,48
 176 252 176 252 176 356 c 0,49,50
 177 401 177 401 193.5 445.5 c 128,-1,51
 210 490 210 490 241 534 c 0,52,53
 263 567 263 567 289 598.5 c 128,-1,54
 315 630 315 630 356.5 667 c 128,-1,55
 398 704 398 704 410 704 c 0,56,57
 440 704 440 704 440 683 c 0,58,59
 440 674 440 674 433 667 c 0,60,61
 387 620 387 620 367.5 591 c 128,-1,62
 348 562 348 562 338 545 c 1,63,-1
 339 546 l 1,32,33
EndSplineSet
EndChar

StartChar: guillemotright
Encoding: 187 187 425
Width: 734
Flags: W
LayerCount: 2
Fore
SplineSet
278 545 m 1,0,1
 268 562 268 562 248 591 c 128,-1,2
 228 620 228 620 183 667 c 0,3,4
 176 674 176 674 176 683 c 0,5,6
 176 704 176 704 206 704 c 0,7,8
 218 704 218 704 259.5 667 c 128,-1,9
 301 630 301 630 327 598.5 c 128,-1,10
 353 567 353 567 375 534 c 0,11,12
 406 490 406 490 422.5 445.5 c 128,-1,13
 439 401 439 401 440 356 c 0,14,15
 440 252 440 252 363 158 c 1,16,-1
 363 158 l 1,17,18
 295 74 295 74 217 14 c 0,19,20
 206 9 206 9 200 9 c 0,21,22
 179 9 179 9 179 31 c 0,23,24
 181 38 181 38 189 51.5 c 128,-1,25
 197 65 197 65 214 85 c 1,26,-1
 214 84 l 1,27,28
 323 234 323 234 323 353 c 0,29,30
 323 451 323 451 277 546 c 1,31,-1
 278 545 l 1,0,1
497 545 m 1,32,33
 487 562 487 562 467.5 591 c 128,-1,34
 448 620 448 620 402 667 c 0,35,36
 395 674 395 674 395 683 c 0,37,38
 395 704 395 704 425 704 c 0,39,40
 437 704 437 704 478.5 667 c 128,-1,41
 520 630 520 630 546 598.5 c 128,-1,42
 572 567 572 567 594 534 c 0,43,44
 625 490 625 490 641.5 445.5 c 128,-1,45
 658 401 658 401 659 356 c 0,46,47
 659 252 659 252 582 158 c 1,48,-1
 582 158 l 1,49,50
 514 74 514 74 437 14 c 0,51,52
 425 9 425 9 420 9 c 0,53,54
 398 9 398 9 398 31 c 0,55,56
 400 38 400 38 408 51.5 c 128,-1,57
 416 65 416 65 433 85 c 1,58,-1
 433 84 l 1,59,60
 542 234 542 234 542 353 c 0,61,62
 542 451 542 451 496 546 c 1,63,-1
 497 545 l 1,32,33
EndSplineSet
EndChar

StartChar: quoteleft
Encoding: 8216 8216 426
Width: 425
Flags: W
LayerCount: 2
Fore
SplineSet
97 759 m 0,0,1
 98 824 98 824 142 887.5 c 128,-1,2
 186 951 186 951 241 977 c 1,3,-1
 272 919 l 1,4,5
 256 910 256 910 234 886 c 128,-1,6
 212 862 212 862 202 824 c 1,7,8
 268 796 268 796 265 741 c 0,9,10
 265 725 265 725 258.5 710.5 c 128,-1,11
 252 696 252 696 241 685 c 128,-1,12
 230 674 230 674 215 667.5 c 128,-1,13
 200 661 200 661 184 661 c 0,14,15
 164 661 164 661 147.5 669.5 c 128,-1,16
 131 678 131 678 120 691.5 c 128,-1,17
 109 705 109 705 103 723 c 128,-1,18
 97 741 97 741 97 759 c 0,0,1
EndSplineSet
EndChar

StartChar: quoteright
Encoding: 8217 8217 427
Width: 372
Flags: W
LayerCount: 2
Fore
SplineSet
282 878 m 0,0,1
 281 813 281 813 237 749.5 c 128,-1,2
 193 686 193 686 138 660 c 1,3,-1
 107 718 l 1,4,5
 123 727 123 727 145 751 c 128,-1,6
 167 775 167 775 177 813 c 1,7,8
 111 841 111 841 114 896 c 0,9,10
 114 912 114 912 120.5 926.5 c 128,-1,11
 127 941 127 941 138 952 c 128,-1,12
 149 963 149 963 163.5 969.5 c 128,-1,13
 178 976 178 976 195 976 c 0,14,15
 215 976 215 976 231 967.5 c 128,-1,16
 247 959 247 959 258.5 945.5 c 128,-1,17
 270 932 270 932 276 914 c 128,-1,18
 282 896 282 896 282 878 c 0,0,1
EndSplineSet
EndChar

StartChar: afii57451
Encoding: 1611 1611 428
Width: 0
GlyphClass: 4
Flags: W
AnchorPoint: "Anchor-2" 0 0 mark 0
AnchorPoint: "Anchor-0" 0 0 mark 0
LayerCount: 2
Fore
SplineSet
141 218 m 2,0,-1
 -128 118 l 2,1,2
 -133 116 -133 116 -138 116 c 0,3,4
 -169 116 -169 116 -169 151 c 0,5,6
 -169 170 -169 170 -150 177 c 2,7,-1
 119 276 l 2,8,9
 124 278 124 278 130 278 c 0,10,11
 160 278 160 278 160 245 c 0,12,13
 160 225 160 225 141 218 c 2,0,-1
157 99 m 2,14,-1
 -112 1 l 2,15,16
 -118 -1 -118 -1 -123 -1 c 0,17,18
 -154 -1 -154 -1 -154 33 c 0,19,20
 -154 53 -154 53 -134 60 c 2,21,-1
 134 158 l 2,22,23
 140 160 140 160 145 160 c 0,24,25
 176 160 176 160 176 126 c 0,26,27
 176 106 176 106 157 99 c 2,14,-1
EndSplineSet
EndChar

StartChar: afii57454
Encoding: 1614 1614 429
Width: 0
GlyphClass: 4
Flags: W
AnchorPoint: "Anchor-2" 0 0 mark 0
AnchorPoint: "Anchor-0" 0 0 mark 0
LayerCount: 2
Fore
SplineSet
157 99 m 2,0,-1
 -112 1 l 2,1,2
 -118 -1 -118 -1 -123 -1 c 0,3,4
 -154 -1 -154 -1 -154 33 c 0,5,6
 -154 53 -154 53 -134 60 c 2,7,-1
 134 158 l 2,8,9
 140 160 140 160 145 160 c 0,10,11
 176 160 176 160 176 126 c 0,12,13
 176 106 176 106 157 99 c 2,0,-1
EndSplineSet
EndChar

StartChar: afii57455
Encoding: 1615 1615 430
Width: 0
GlyphClass: 4
Flags: W
AnchorPoint: "Anchor-2" 0 0 mark 0
AnchorPoint: "Anchor-0" 0 0 mark 0
LayerCount: 2
Fore
SplineSet
101 157 m 0,0,1
 89 81 89 81 6 51 c 2,2,-1
 -139 -2 l 2,3,4
 -144 -4 -144 -4 -150 -4 c 0,5,6
 -181 -4 -181 -4 -181 30 c 0,7,8
 -181 50 -181 50 -161 57 c 2,9,-1
 -84 84 l 1,10,11
 -102 110 -102 110 -102 140 c 0,12,13
 -102 162 -102 162 -92 185 c 0,14,15
 -80 223 -80 223 -46 251 c 128,-1,16
 -12 279 -12 279 27 279 c 0,17,18
 104 279 104 279 104 194 c 0,19,20
 104 176 104 176 101 157 c 0,0,1
42 160 m 0,21,22
 44 169 44 169 44 177 c 0,23,24
 44 203 44 203 19 205 c 0,25,26
 -15 213 -15 213 -33 168 c 0,27,28
 -50 124 -50 124 -7 116 c 0,29,30
 10 113 10 113 25 128 c 128,-1,31
 40 143 40 143 42 160 c 0,21,22
EndSplineSet
EndChar

StartChar: afii57452
Encoding: 1612 1612 431
Width: 0
GlyphClass: 4
Flags: W
AnchorPoint: "Anchor-2" 0 0 mark 0
AnchorPoint: "Anchor-0" 0 0 mark 0
LayerCount: 2
Fore
SplineSet
105 169 m 0,0,1
 93 93 93 93 10 63 c 2,2,-1
 -135 10 l 2,3,4
 -140 8 -140 8 -145 8 c 0,5,6
 -177 8 -177 8 -177 43 c 0,7,8
 -177 62 -177 62 -157 69 c 2,9,-1
 -154 70 l 1,10,11
 -148 89 -148 89 -148 103 c 0,12,13
 -148 139 -148 139 -188 139 c 0,14,15
 -214 139 -214 139 -214 164 c 256,16,17
 -214 189 -214 189 -188 193 c 0,18,19
 -148 199 -148 199 -122 163 c 0,20,21
 -98 131 -98 131 -99 90 c 1,22,-1
 -80 96 l 1,23,24
 -98 122 -98 122 -98 152 c 0,25,26
 -98 174 -98 174 -88 197 c 0,27,28
 -76 235 -76 235 -42 263 c 128,-1,29
 -8 291 -8 291 31 291 c 0,30,31
 108 291 108 291 108 206 c 0,32,33
 108 188 108 188 105 169 c 0,0,1
46 172 m 0,34,35
 48 181 48 181 48 189 c 0,36,37
 48 215 48 215 23 217 c 0,38,39
 -11 225 -11 225 -29 180 c 0,40,41
 -46 136 -46 136 -3 128 c 0,42,43
 14 125 14 125 29 140 c 128,-1,44
 44 155 44 155 46 172 c 0,34,35
EndSplineSet
EndChar

StartChar: afii57456
Encoding: 1616 1616 432
Width: 0
GlyphClass: 4
Flags: W
AnchorPoint: "Anchor-3" 0 0 mark 0
AnchorPoint: "Anchor-1" 0 0 mark 0
LayerCount: 2
Fore
SplineSet
157 99 m 2,0,-1
 -112 1 l 2,1,2
 -118 -1 -118 -1 -123 -1 c 0,3,4
 -154 -1 -154 -1 -154 33 c 0,5,6
 -154 53 -154 53 -134 60 c 2,7,-1
 134 158 l 2,8,9
 140 160 140 160 145 160 c 0,10,11
 176 160 176 160 176 126 c 0,12,13
 176 106 176 106 157 99 c 2,0,-1
EndSplineSet
EndChar

StartChar: afii57457
Encoding: 1617 1617 433
Width: 0
GlyphClass: 4
Flags: W
AnchorPoint: "Anchor-2" 0 0 mark 0
AnchorPoint: "Anchor-0" 0 0 mark 0
LayerCount: 2
Fore
SplineSet
133 179 m 0,0,1
 144 149 144 149 144 118 c 0,2,3
 144 6 144 6 56 4 c 0,4,5
 16 3 16 3 -5 31 c 1,6,7
 -23 2 -23 2 -65 3 c 0,8,9
 -152 6 -152 6 -152 115 c 0,10,11
 -152 146 -152 146 -141 178 c 0,12,13
 -136 193 -136 193 -115 193 c 0,14,15
 -87 193 -87 193 -87 170 c 0,16,17
 -87 165 -87 165 -89 159 c 0,18,19
 -99 132 -99 132 -96 104 c 0,20,21
 -92 67 -92 67 -64 67 c 0,22,23
 -27 67 -27 67 -27 110 c 0,24,25
 -27 114 -27 114 -29 125 c 0,26,27
 -36 163 -36 163 -5 163 c 0,28,29
 24 163 24 163 21 128 c 0,30,31
 16 67 16 67 60 67 c 0,32,33
 65 67 65 67 69 68 c 0,34,35
 91 77 91 77 91 107 c 0,36,37
 91 128 91 128 79 161 c 0,38,39
 77 167 77 167 77 172 c 0,40,41
 77 195 77 195 106 195 c 0,42,43
 127 195 127 195 133 179 c 0,0,1
EndSplineSet
EndChar

StartChar: afii57458
Encoding: 1618 1618 434
Width: 0
GlyphClass: 4
Flags: W
AnchorPoint: "Anchor-2" 0 0 mark 0
AnchorPoint: "Anchor-0" 0 0 mark 0
LayerCount: 2
Fore
SplineSet
-4 1 m 0,0,1
 -46 1 -46 1 -74.5 28.5 c 128,-1,2
 -103 56 -103 56 -103 98 c 0,3,4
 -103 118 -103 118 -95 136 c 0,5,6
 -83 174 -83 174 -48.5 202 c 128,-1,7
 -14 230 -14 230 25 230 c 0,8,9
 109 230 109 230 109 138 c 0,10,11
 109 85 109 85 79 45 c 0,12,13
 47 1 47 1 -4 1 c 0,0,1
47 109 m 0,14,15
 55 151 55 151 15 155 c 1,16,17
 -17 163 -17 163 -36 119 c 0,18,19
 -43 104 -43 104 -37 88 c 0,20,21
 -30 69 -30 69 -10 66 c 0,22,23
 7 64 7 64 25.5 78 c 128,-1,24
 44 92 44 92 47 109 c 0,14,15
EndSplineSet
EndChar

StartChar: exclam
Encoding: 33 33 437
Width: 399
GlyphClass: 2
Flags: W
LayerCount: 2
Fore
SplineSet
303 793 m 0,0,1
 303 740 303 740 284 628 c 0,2,3
 263 501 263 501 258 438 c 2,4,-1
 247 263 l 1,5,-1
 196 263 l 1,6,7
 195 282 195 282 183 437 c 0,8,9
 178 500 178 500 155 631 c 0,10,11
 136 745 136 745 136 795 c 0,12,13
 136 978 136 978 219 978 c 0,14,15
 303 978 303 978 303 793 c 0,0,1
319 102 m 0,16,17
 319 59 319 59 289.5 30 c 128,-1,18
 260 1 260 1 217 1 c 256,19,20
 174 1 174 1 145.5 30 c 128,-1,21
 117 59 117 59 117 102 c 0,22,23
 117 144 117 144 146 173 c 128,-1,24
 175 202 175 202 217 202 c 0,25,26
 258 202 258 202 288.5 172.5 c 128,-1,27
 319 143 319 143 319 102 c 0,16,17
EndSplineSet
EndChar

StartChar: afii64060
Encoding: 64830 64830 438
Width: 576
GlyphClass: 2
Flags: W
LayerCount: 2
Fore
SplineSet
454 931 m 1,0,1
 259 685 259 685 250 408 c 1,2,3
 250 214 250 214 353 26 c 0,4,5
 369 -4 369 -4 410 -64.5 c 128,-1,6
 451 -125 451 -125 557 -219 c 0,7,8
 563 -227 563 -227 563 -236 c 1,9,10
 574 -256 574 -256 543 -256 c 1,11,12
 469 -245 469 -245 380 -168 c 1,13,14
 270 -61 270 -61 202 65 c 0,15,16
 110 235 110 235 110 403 c 0,17,18
 110 595 110 595 220 774 c 0,19,20
 321 938 321 938 538 1055 c 0,21,22
 547 1061 547 1061 554 1061 c 0,23,24
 573 1061 573 1061 573 1036 c 1,25,26
 543 1019 543 1019 454 931 c 1,0,1
EndSplineSet
EndChar

StartChar: afii64061
Encoding: 64831 64831 439
Width: 639
GlyphClass: 2
Flags: W
LayerCount: 2
Fore
SplineSet
230 931 m 1,0,1
 141 1019 141 1019 111 1036 c 1,2,3
 111 1061 111 1061 130 1061 c 0,4,5
 137 1061 137 1061 146 1055 c 0,6,7
 363 938 363 938 464 774 c 0,8,9
 574 595 574 595 574 403 c 0,10,11
 574 235 574 235 482 65 c 0,12,13
 414 -61 414 -61 304 -168 c 1,14,15
 215 -245 215 -245 141 -256 c 1,16,17
 110 -256 110 -256 121 -236 c 1,18,19
 121 -227 121 -227 127 -219 c 0,20,21
 233 -125 233 -125 274 -64.5 c 128,-1,22
 315 -4 315 -4 331 26 c 0,23,24
 434 214 434 214 434 408 c 1,25,26
 425 685 425 685 230 931 c 1,0,1
EndSplineSet
EndChar

StartChar: afii62821
Encoding: 65252 65252 440
Width: 753
GlyphClass: 2
Flags: W
AnchorPoint: "Anchor-1" 390 -510 basechar 0
AnchorPoint: "Anchor-0" 375 735 basechar 0
LayerCount: 2
Fore
SplineSet
773 0 m 1,0,-1
 746 0 l 2,1,2
 604 0 604 0 554 94 c 1,3,4
 510 -30 510 -30 433 -30 c 0,5,6
 288 -30 288 -30 253 123 c 1,7,8
 178 0 178 0 22 0 c 2,9,-1
 -5 0 l 1,10,-1
 -5 116 l 1,11,-1
 42 116 l 2,12,13
 127 116 127 116 203 242 c 0,14,15
 307 415 307 415 360 458 c 1,16,17
 354 468 354 468 354 480 c 0,18,19
 354 506 354 506 377.5 525 c 128,-1,20
 401 544 401 544 428 544 c 0,21,22
 466 544 466 544 485 504 c 0,23,24
 529 410 529 410 583 244 c 0,25,26
 599 194 599 194 636 158 c 0,27,28
 678 116 678 116 726 116 c 2,29,-1
 773 116 l 1,30,-1
 773 0 l 1,0,-1
473 157 m 0,31,32
 473 259 473 259 411 360 c 1,33,34
 331 311 331 311 331 205 c 0,35,36
 331 157 331 157 354 123 c 0,37,38
 380 84 380 84 426 84 c 0,39,40
 473 84 473 84 473 157 c 0,31,32
EndSplineSet
EndChar

StartChar: uni25CC
Encoding: 9676 9676 441
Width: 911
Flags: W
AnchorPoint: "Anchor-1" 405 -345 basechar 0
AnchorPoint: "Anchor-0" 465 960 basechar 0
LayerCount: 2
Fore
SplineSet
771 629 m 256,0,1
 771 592 771 592 734 592 c 0,2,3
 695 592 695 592 695 629 c 256,4,5
 695 666 695 666 734 666 c 0,6,7
 771 666 771 666 771 629 c 256,0,1
658 703 m 0,8,9
 658 666 658 666 621 666 c 0,10,11
 582 666 582 666 582 703 c 0,12,13
 582 742 582 742 621 742 c 0,14,15
 658 742 658 742 658 703 c 0,8,9
847 516 m 0,16,17
 847 477 847 477 808 477 c 0,18,19
 771 477 771 477 771 516 c 0,20,21
 771 553 771 553 810 553 c 0,22,23
 847 553 847 553 847 516 c 0,16,17
873 384 m 256,24,25
 873 347 873 347 836 347 c 0,26,27
 797 347 797 347 797 384 c 256,28,29
 797 421 797 421 836 421 c 0,30,31
 873 421 873 421 873 384 c 256,24,25
525 731 m 0,32,33
 525 692 525 692 488 692 c 256,34,35
 451 692 451 692 451 731 c 0,36,37
 451 768 451 768 488 768 c 256,38,39
 525 768 525 768 525 731 c 0,32,33
847 251 m 0,40,41
 847 214 847 214 808 214 c 0,42,43
 771 214 771 214 771 251 c 0,44,45
 771 290 771 290 808 290 c 0,46,47
 847 290 847 290 847 251 c 0,40,41
394 703 m 0,48,49
 394 666 394 666 356 666 c 0,50,51
 319 666 319 666 319 703 c 0,52,53
 319 742 319 742 356 742 c 0,54,55
 394 742 394 742 394 703 c 0,48,49
282 629 m 256,56,57
 282 592 282 592 243 592 c 0,58,59
 206 592 206 592 206 627 c 0,60,61
 206 666 206 666 243 666 c 0,62,63
 282 666 282 666 282 629 c 256,56,57
771 138 m 0,64,65
 771 101 771 101 734 101 c 256,66,67
 697 101 697 101 697 138 c 0,68,69
 697 177 697 177 734 177 c 256,70,71
 771 177 771 177 771 138 c 0,64,65
658 64 m 0,72,73
 658 27 658 27 621 27 c 256,74,75
 584 27 584 27 584 64 c 0,76,77
 584 103 584 103 621 103 c 256,78,79
 658 103 658 103 658 64 c 0,72,73
206 516 m 0,80,81
 206 477 206 477 171 477 c 0,82,83
 132 477 132 477 132 516 c 0,84,85
 132 553 132 553 169 553 c 256,86,87
 206 553 206 553 206 516 c 0,80,81
180 384 m 256,88,89
 180 347 180 347 143 347 c 0,90,91
 104 347 104 347 104 384 c 256,92,93
 104 421 104 421 143 421 c 0,94,95
 180 421 180 421 180 384 c 256,88,89
525 38 m 0,96,97
 525 -1 525 -1 488 -1 c 256,98,99
 451 -1 451 -1 451 38 c 0,100,101
 451 75 451 75 488 75 c 256,102,103
 525 75 525 75 525 38 c 0,96,97
394 66 m 0,104,105
 394 27 394 27 356 27 c 0,106,107
 319 27 319 27 319 64 c 0,108,109
 319 103 319 103 356 103 c 0,110,111
 394 103 394 103 394 66 c 0,104,105
206 251 m 0,112,113
 206 214 206 214 169 214 c 256,114,115
 132 214 132 214 132 251 c 0,116,117
 132 290 132 290 169 290 c 256,118,119
 206 290 206 290 206 251 c 0,112,113
282 138 m 0,120,121
 282 101 282 101 245 101 c 0,122,123
 206 101 206 101 206 138 c 0,124,125
 206 177 206 177 243 177 c 0,126,127
 282 177 282 177 282 138 c 0,120,121
EndSplineSet
EndChar

StartChar: afii62819
Encoding: 65246 65246 442
Width: 1231
GlyphClass: 2
Flags: W
AnchorPoint: "Anchor-1" 555 -750 basechar 0
AnchorPoint: "Anchor-0" 1020 1140 basechar 0
LayerCount: 2
Fore
SplineSet
1241 0 m 1,0,-1
 1221 0 l 2,1,2
 1184 0 1184 0 1140 21 c 0,3,4
 1103 39 1103 39 1092 65 c 1,5,6
 923 -382 923 -382 566 -382 c 0,7,8
 375 -382 375 -382 264 -278 c 0,9,10
 150 -172 150 -172 150 18 c 0,11,12
 150 127 150 127 197 233 c 0,13,14
 246 345 246 345 328 408 c 0,15,16
 349 424 349 424 372 424 c 0,17,18
 429 424 429 424 429 374 c 0,19,20
 429 349 429 349 406 330 c 0,21,22
 267 212 267 212 267 16 c 0,23,24
 267 -108 267 -108 362 -184 c 0,25,26
 450 -255 450 -255 577 -255 c 0,27,28
 782 -255 782 -255 903 -60 c 0,29,30
 1021 130 1021 130 1036 411 c 0,31,32
 1043 561 1043 561 1064 987 c 0,33,34
 1066 1028 1066 1028 1117 1028 c 0,35,36
 1175 1028 1175 1028 1173 971 c 0,37,38
 1159 632 1159 632 1136 276 c 2,39,-1
 1133 226 l 1,40,41
 1133 116 1133 116 1225 116 c 2,42,-1
 1241 116 l 1,43,-1
 1241 0 l 1,0,-1
EndSplineSet
EndChar

StartChar: braceright
Encoding: 125 125 445
Width: 692
GlyphClass: 2
Flags: W
LayerCount: 2
Fore
SplineSet
125 977 m 1,0,-1
 125 1002 l 1,1,2
 242 986 242 986 315.5 906.5 c 128,-1,3
 389 827 389 827 389 730 c 0,4,5
 389 679 389 679 373.5 612.5 c 128,-1,6
 358 546 358 546 358 509 c 0,7,8
 358 458 358 458 400 414 c 128,-1,9
 442 370 442 370 518 360 c 1,10,-1
 518 331 l 1,11,12
 442 322 442 322 400 277.5 c 128,-1,13
 358 233 358 233 358 182 c 0,14,15
 358 146 358 146 373.5 78 c 128,-1,16
 389 10 389 10 389 -41 c 0,17,18
 389 -135 389 -135 315.5 -215 c 128,-1,19
 242 -295 242 -295 125 -311 c 1,20,-1
 125 -287 l 1,21,22
 206 -266 206 -266 244.5 -222 c 128,-1,23
 283 -178 283 -178 283 -123 c 0,24,25
 283 -82 283 -82 267.5 -14 c 128,-1,26
 252 54 252 54 252 102 c 0,27,28
 252 174 252 174 304.5 240.5 c 128,-1,29
 357 307 357 307 459 343 c 1,30,31
 358 381 358 381 305 449.5 c 128,-1,32
 252 518 252 518 252 589 c 0,33,34
 252 636 252 636 267.5 704.5 c 128,-1,35
 283 773 283 773 283 814 c 0,36,37
 283 868 283 868 244.5 912.5 c 128,-1,38
 206 957 206 957 125 977 c 1,0,-1
EndSplineSet
EndChar

StartChar: uni0656
Encoding: 1622 1622 452
Width: 0
GlyphClass: 4
Flags: W
AnchorPoint: "Anchor-3" 0 0 mark 0
AnchorPoint: "Anchor-1" 0 0 mark 0
LayerCount: 2
Fore
SplineSet
34 38 m 0,0,1
 26 9 26 9 -4 9 c 0,2,3
 -35 9 -35 9 -29 37 c 0,4,5
 -9 131 -9 131 -33 255 c 0,6,7
 -41 283 -41 283 -5 283 c 0,8,9
 24 283 24 283 30 256 c 0,10,11
 55 115 55 115 34 38 c 0,0,1
EndSplineSet
EndChar

StartChar: E005
Encoding: 65578 -1 470
Width: 295
GlyphClass: 3
Flags: W
LayerCount: 2
Fore
SplineSet
-10 0 m 1,0,-1
 -10 147 l 1,1,-1
 305 147 l 1,2,-1
 305 0 l 1,3,-1
 -10 0 l 1,0,-1
EndSplineSet
EndChar

StartChar: afii57470
Encoding: 1726 1726 480
Width: 753
Flags: W
AnchorPoint: "Anchor-1" 345 -405 basechar 0
AnchorPoint: "Anchor-0" 375 930 basechar 0
LayerCount: 2
Fore
SplineSet
753 280 m 0,0,1
 753 177 753 177 639 121 c 0,2,3
 548 76 548 76 434 76 c 0,4,5
 353 76 353 76 281 100 c 1,6,7
 144 0 144 0 26 0 c 2,8,-1
 -10 0 l 1,9,-1
 -10 116 l 1,10,-1
 21 116 l 2,11,12
 125 116 125 116 201 168 c 1,13,14
 171 197 171 197 171 250 c 0,15,16
 171 362 171 362 270 462 c 0,17,18
 319 511 319 511 374 542 c 1,19,20
 360 553 360 553 320 583 c 0,21,22
 304 595 304 595 304 613 c 0,23,24
 304 659 304 659 350 659 c 0,25,26
 366 659 366 659 383 648 c 0,27,28
 405 629 405 629 468 581 c 1,29,30
 545 589 545 589 560 507 c 1,31,32
 753 356 753 356 753 280 c 0,0,1
643 281 m 0,33,34
 643 319 643 319 541 406 c 1,35,36
 510 293 510 293 374 182 c 1,37,38
 410 172 410 172 456 172 c 0,39,40
 643 172 643 172 643 281 c 0,33,34
431 482 m 0,41,42
 394 482 394 482 341 424 c 0,43,44
 295 374 295 374 277 332 c 0,45,46
 246 260 246 260 280 226 c 1,47,48
 337 268 337 268 389 327 c 0,49,50
 458 404 458 404 458 451 c 0,51,52
 458 482 458 482 431 482 c 0,41,42
EndSplineSet
Substitution2: "'medi' Medial Forms in Arabic lookup 3 subtable" afii62827
Substitution2: "'fina' Terminal Forms in Arabic lookup 2 subtable" afii62827
Substitution2: "'init' Initial Forms in Arabic lookup 1 subtable" afii57470
EndChar

StartChar: at
Encoding: 64 64 489
Width: 1328
Flags: W
LayerCount: 2
Fore
SplineSet
991 674 m 1,0,-1
 909 394 l 2,1,2
 863 236 863 236 853 193.5 c 128,-1,3
 843 151 843 151 843 126 c 0,4,5
 843 104 843 104 858.5 88 c 128,-1,6
 874 72 874 72 896 72 c 0,7,8
 948 72 948 72 1020 123.5 c 128,-1,9
 1092 175 1092 175 1143.5 290.5 c 128,-1,10
 1195 406 1195 406 1195 531 c 0,11,12
 1195 652 1195 652 1137 754 c 128,-1,13
 1079 856 1079 856 972.5 911 c 128,-1,14
 866 966 866 966 738 966 c 0,15,16
 575 966 575 966 436.5 879.5 c 128,-1,17
 298 793 298 793 216 631 c 128,-1,18
 134 469 134 469 134 294 c 0,19,20
 134 132 134 132 205.5 0 c 128,-1,21
 277 -132 277 -132 407 -200.5 c 128,-1,22
 537 -269 537 -269 686 -269 c 0,23,24
 871 -269 871 -269 1020.5 -169.5 c 128,-1,25
 1170 -70 1170 -70 1251 122 c 1,26,-1
 1293 122 l 1,27,28
 1230 -72 1230 -72 1063 -191.5 c 128,-1,29
 896 -311 896 -311 682 -311 c 0,30,31
 514 -311 514 -311 370.5 -232 c 128,-1,32
 227 -153 227 -153 148 -7.5 c 128,-1,33
 69 138 69 138 69 313 c 0,34,35
 69 498 69 498 156 659 c 128,-1,36
 243 820 243 820 400.5 911 c 128,-1,37
 558 1002 558 1002 734 1002 c 0,38,39
 880 1002 880 1002 997 941.5 c 128,-1,40
 1114 881 1114 881 1176 765.5 c 128,-1,41
 1238 650 1238 650 1238 519 c 0,42,43
 1238 390 1238 390 1180 264 c 128,-1,44
 1122 138 1122 138 1033.5 80 c 128,-1,45
 945 22 945 22 848 22 c 0,46,47
 794 22 794 22 767.5 47 c 128,-1,48
 741 72 741 72 741 118 c 0,49,50
 741 158 741 158 754 222 c 1,51,52
 650 96 650 96 586.5 58.5 c 128,-1,53
 523 21 523 21 476 21 c 0,54,55
 426 21 426 21 387.5 66 c 128,-1,56
 349 111 349 111 349 185 c 0,57,58
 349 287 349 287 415.5 413.5 c 128,-1,59
 482 540 482 540 591 621 c 0,60,61
 672 678 672 678 737 678 c 0,62,63
 783 678 783 678 814.5 654 c 128,-1,64
 846 630 846 630 857 582 c 1,65,-1
 881 659 l 1,66,-1
 991 674 l 1,0,-1
745 646 m 0,67,68
 692 646 692 646 637 590 c 0,69,70
 558 509 558 509 502 370 c 0,71,72
 459 268 459 268 459 206 c 0,73,74
 459 162 459 162 484.5 134 c 128,-1,75
 510 106 510 106 540 106 c 0,76,77
 582 106 582 106 626.5 137 c 128,-1,78
 671 168 671 168 720.5 233 c 128,-1,79
 770 298 770 298 793 362 c 0,80,81
 833 474 833 474 833 544 c 0,82,83
 833 590 833 590 807 618 c 128,-1,84
 781 646 781 646 745 646 c 0,67,68
EndSplineSet
EndChar

StartChar: A
Encoding: 65 65 490
Width: 1041
Flags: W
LayerCount: 2
Fore
SplineSet
660 319 m 1,0,-1
 290 319 l 1,1,-1
 226 169 l 2,2,3
 202 114 202 114 202 86 c 0,4,5
 202 64 202 64 222.5 47 c 128,-1,6
 243 30 243 30 311 26 c 1,7,-1
 311 0 l 1,8,-1
 11 0 l 1,9,-1
 11 26 l 1,10,11
 71 37 71 37 89 54 c 0,12,13
 125 87 125 87 168 191 c 2,14,-1
 504 977 l 1,15,-1
 529 977 l 1,16,-1
 861 182 l 2,17,18
 901 86 901 86 933.5 58 c 128,-1,19
 966 30 966 30 1025 26 c 1,20,-1
 1025 0 l 1,21,-1
 649 0 l 1,22,-1
 649 26 l 1,23,24
 706 29 706 29 726 45.5 c 128,-1,25
 746 62 746 62 746 85 c 0,26,27
 746 115 746 115 718 182 c 2,28,-1
 660 319 l 1,0,-1
640 371 m 1,29,-1
 478 758 l 1,30,-1
 311 371 l 1,31,-1
 640 371 l 1,29,-1
EndSplineSet
EndChar

StartChar: B
Encoding: 66 66 491
Width: 962
Flags: W
LayerCount: 2
Fore
SplineSet
666 487 m 1,0,1
 766 466 766 466 815 420 c 0,2,3
 882 354 882 354 882 262 c 0,4,5
 882 190 882 190 837.5 125 c 128,-1,6
 793 60 793 60 714 30 c 128,-1,7
 635 0 635 0 474 0 c 2,8,-1
 24 0 l 1,9,-1
 24 26 l 1,10,-1
 60 26 l 2,11,12
 120 26 120 26 146 64 c 0,13,14
 162 89 162 89 162 169 c 2,15,-1
 162 786 l 2,16,17
 162 874 162 874 142 898 c 0,18,19
 114 928 114 928 60 928 c 2,20,-1
 24 928 l 1,21,-1
 24 954 l 1,22,-1
 437 954 l 2,23,24
 552 954 552 954 622 938 c 0,25,26
 727 913 727 913 782.5 848 c 128,-1,27
 838 783 838 783 838 700 c 0,28,29
 838 628 838 628 794.5 571 c 128,-1,30
 751 514 751 514 666 487 c 1,0,1
298 526 m 1,31,32
 323 520 323 520 356.5 518 c 128,-1,33
 390 516 390 516 430 516 c 0,34,35
 534 516 534 516 585 538 c 128,-1,36
 636 560 636 560 664 605.5 c 128,-1,37
 692 651 692 651 692 706 c 0,38,39
 692 790 692 790 623 848.5 c 128,-1,40
 554 907 554 907 424 907 c 0,41,42
 354 907 354 907 298 892 c 1,43,-1
 298 526 l 1,31,32
298 69 m 1,44,45
 378 50 378 50 458 50 c 0,46,47
 586 50 586 50 653 107.5 c 128,-1,48
 720 165 720 165 720 249 c 0,49,50
 720 305 720 305 689.5 356 c 128,-1,51
 659 407 659 407 590.5 436.5 c 128,-1,52
 522 466 522 466 422 466 c 0,53,54
 378 466 378 466 347 465 c 128,-1,55
 316 464 316 464 298 460 c 1,56,-1
 298 69 l 1,44,45
EndSplineSet
EndChar

StartChar: C
Encoding: 67 67 492
Width: 962
Flags: W
LayerCount: 2
Fore
SplineSet
868 977 m 1,0,-1
 890 652 l 1,1,-1
 868 652 l 1,2,3
 825 798 825 798 743.5 862 c 128,-1,4
 662 926 662 926 549 926 c 0,5,6
 454 926 454 926 377.5 877.5 c 128,-1,7
 301 829 301 829 257 723.5 c 128,-1,8
 213 618 213 618 213 461 c 0,9,10
 213 332 213 332 254.5 237 c 128,-1,11
 296 142 296 142 379.5 91.5 c 128,-1,12
 463 41 463 41 570 41 c 0,13,14
 662 41 662 41 733 80.5 c 128,-1,15
 804 120 804 120 890 238 c 1,16,-1
 912 223 l 1,17,18
 839 97 839 97 744 37.5 c 128,-1,19
 649 -22 649 -22 517 -22 c 0,20,21
 280 -22 280 -22 150 154 c 0,22,23
 52 285 52 285 52 463 c 0,24,25
 52 606 52 606 116.5 725.5 c 128,-1,26
 181 845 181 845 293 911 c 128,-1,27
 405 977 405 977 538 977 c 0,28,29
 642 977 642 977 742 926 c 0,30,31
 772 910 772 910 784 910 c 0,32,33
 803 910 803 910 818 924 c 0,34,35
 836 942 836 942 843 977 c 1,36,-1
 868 977 l 1,0,-1
EndSplineSet
EndChar

StartChar: D
Encoding: 68 68 493
Width: 1041
Flags: W
LayerCount: 2
Fore
SplineSet
25 0 m 1,0,-1
 25 26 l 1,1,-1
 61 26 l 2,2,3
 122 26 122 26 146 65 c 0,4,5
 162 88 162 88 162 169 c 2,6,-1
 162 786 l 2,7,8
 162 874 162 874 142 898 c 0,9,10
 114 928 114 928 61 928 c 2,11,-1
 25 928 l 1,12,-1
 25 954 l 1,13,-1
 414 954 l 2,14,15
 627 954 627 954 738.5 905.5 c 128,-1,16
 850 857 850 857 918 744 c 128,-1,17
 986 631 986 631 986 482 c 0,18,19
 986 283 986 283 865 150 c 0,20,21
 730 0 730 0 451 0 c 2,22,-1
 25 0 l 1,0,-1
298 69 m 1,23,24
 386 50 386 50 447 50 c 0,25,26
 610 50 610 50 718 164.5 c 128,-1,27
 826 279 826 279 826 475 c 0,28,29
 826 674 826 674 718 787.5 c 128,-1,30
 610 901 610 901 442 901 c 0,31,32
 378 901 378 901 298 881 c 1,33,-1
 298 69 l 1,23,24
EndSplineSet
EndChar

StartChar: E
Encoding: 69 69 494
Width: 881
Flags: W
LayerCount: 2
Fore
SplineSet
301 903 m 1,0,-1
 301 526 l 1,1,-1
 511 526 l 2,2,3
 593 526 593 526 621 550 c 0,4,5
 657 582 657 582 661 663 c 1,6,-1
 687 663 l 1,7,-1
 687 332 l 1,8,-1
 661 332 l 1,9,10
 651 402 651 402 642 421 c 0,11,12
 628 446 628 446 599.5 460 c 128,-1,13
 571 474 571 474 511 474 c 2,14,-1
 301 474 l 1,15,-1
 301 159 l 2,16,17
 301 96 301 96 307 82.5 c 128,-1,18
 313 69 313 69 327 60.5 c 128,-1,19
 341 52 341 52 380 52 c 2,20,-1
 542 52 l 2,21,22
 623 52 623 52 659.5 63.5 c 128,-1,23
 696 75 696 75 730 107 c 0,24,25
 774 151 774 151 819 239 c 1,26,-1
 847 239 l 1,27,-1
 766 0 l 1,28,-1
 30 0 l 1,29,-1
 30 26 l 1,30,-1
 63 26 l 2,31,32
 97 26 97 26 127 42 c 0,33,34
 150 54 150 54 158 76 c 128,-1,35
 166 98 166 98 166 168 c 2,36,-1
 166 789 l 2,37,38
 166 879 166 879 148 900 c 0,39,40
 122 928 122 928 63 928 c 2,41,-1
 30 928 l 1,42,-1
 30 954 l 1,43,-1
 766 954 l 1,44,-1
 776 746 l 1,45,-1
 748 746 l 1,46,47
 734 821 734 821 716 849.5 c 128,-1,48
 698 878 698 878 662 892 c 0,49,50
 634 903 634 903 563 903 c 2,51,-1
 301 903 l 1,0,-1
EndSplineSet
EndChar

StartChar: F
Encoding: 70 70 495
Width: 802
Flags: W
LayerCount: 2
Fore
SplineSet
295 903 m 1,0,-1
 295 527 l 1,1,-1
 469 527 l 2,2,3
 529 527 529 527 556.5 553.5 c 128,-1,4
 584 580 584 580 593 658 c 1,5,-1
 619 658 l 1,6,-1
 619 335 l 1,7,-1
 593 335 l 1,8,9
 593 390 593 390 579 416 c 128,-1,10
 565 442 565 442 541 455.5 c 128,-1,11
 517 469 517 469 469 469 c 2,12,-1
 295 469 l 1,13,-1
 295 169 l 2,14,15
 295 97 295 97 305 73 c 0,16,17
 311 55 311 55 334 43 c 0,18,19
 364 26 364 26 398 26 c 2,20,-1
 433 26 l 1,21,-1
 433 0 l 1,22,-1
 23 0 l 1,23,-1
 23 26 l 1,24,-1
 57 26 l 2,25,26
 116 26 116 26 142 61 c 0,27,28
 160 82 160 82 160 169 c 2,29,-1
 160 786 l 2,30,31
 160 858 160 858 150 882 c 0,32,33
 143 899 143 899 122 912 c 0,34,35
 91 928 91 928 57 928 c 2,36,-1
 23 928 l 1,37,-1
 23 954 l 1,38,-1
 734 954 l 1,39,-1
 742 745 l 1,40,-1
 718 745 l 1,41,42
 700 811 700 811 675.5 842.5 c 128,-1,43
 651 874 651 874 615.5 888.5 c 128,-1,44
 580 903 580 903 505 903 c 2,45,-1
 295 903 l 1,0,-1
EndSplineSet
EndChar

StartChar: G
Encoding: 71 71 496
Width: 1041
Flags: W
LayerCount: 2
Fore
SplineSet
886 977 m 1,0,-1
 910 675 l 1,1,-1
 886 675 l 1,2,3
 847 788 847 788 789 845 c 0,4,5
 703 927 703 927 570 927 c 0,6,7
 387 927 387 927 292 783 c 0,8,9
 213 661 213 661 213 493 c 0,10,11
 213 357 213 357 265.5 244 c 128,-1,12
 318 131 318 131 404 78.5 c 128,-1,13
 490 26 490 26 579 26 c 0,14,15
 632 26 632 26 681 39.5 c 128,-1,16
 730 53 730 53 776 79 c 1,17,-1
 776 354 l 2,18,19
 776 426 776 426 765.5 448 c 128,-1,20
 755 470 755 470 732.5 482 c 128,-1,21
 710 494 710 494 651 494 c 1,22,-1
 651 521 l 1,23,-1
 1021 521 l 1,24,-1
 1021 494 l 1,25,-1
 1003 494 l 2,26,27
 949 494 949 494 927 458 c 0,28,29
 914 431 914 431 914 354 c 2,30,-1
 914 62 l 1,31,32
 833 19 833 19 754 -1.5 c 128,-1,33
 675 -22 675 -22 579 -22 c 0,34,35
 302 -22 302 -22 158 156 c 0,36,37
 51 289 51 289 51 463 c 0,38,39
 51 589 51 589 111 704 c 0,40,41
 183 842 183 842 308 915 c 0,42,43
 414 977 414 977 556 977 c 0,44,45
 608 977 608 977 651 968 c 128,-1,46
 694 959 694 959 772 931 c 0,47,48
 811 916 811 916 825 916 c 0,49,50
 838 916 838 916 847.5 928.5 c 128,-1,51
 857 941 857 941 859 977 c 1,52,-1
 886 977 l 1,0,-1
EndSplineSet
EndChar

StartChar: H
Encoding: 72 72 497
Width: 1041
Flags: W
LayerCount: 2
Fore
SplineSet
297 512 m 1,0,-1
 740 512 l 1,1,-1
 740 785 l 2,2,3
 740 859 740 859 730 882 c 0,4,5
 723 899 723 899 702 912 c 0,6,7
 670 928 670 928 637 928 c 2,8,-1
 604 928 l 1,9,-1
 604 954 l 1,10,-1
 1012 954 l 1,11,-1
 1012 928 l 1,12,-1
 978 928 l 2,13,14
 945 928 945 928 914 913 c 0,15,16
 891 900 891 900 882 878 c 0,17,18
 874 854 874 854 874 785 c 2,19,-1
 874 169 l 2,20,21
 874 96 874 96 884 73 c 0,22,23
 892 54 892 54 914 43 c 0,24,25
 943 26 943 26 978 26 c 2,26,-1
 1012 26 l 1,27,-1
 1012 0 l 1,28,-1
 604 0 l 1,29,-1
 604 26 l 1,30,-1
 637 26 l 2,31,32
 696 26 696 26 722 61 c 0,33,34
 740 82 740 82 740 169 c 2,35,-1
 740 459 l 1,36,-1
 297 459 l 1,37,-1
 297 169 l 2,38,39
 297 96 297 96 306 73 c 0,40,41
 313 55 313 55 335 43 c 0,42,43
 366 26 366 26 399 26 c 2,44,-1
 434 26 l 1,45,-1
 434 0 l 1,46,-1
 25 0 l 1,47,-1
 25 26 l 1,48,-1
 58 26 l 2,49,50
 118 26 118 26 144 61 c 0,51,52
 161 82 161 82 161 169 c 2,53,-1
 161 785 l 2,54,55
 161 859 161 859 152 882 c 0,56,57
 144 899 144 899 123 912 c 0,58,59
 93 928 93 928 58 928 c 2,60,-1
 25 928 l 1,61,-1
 25 954 l 1,62,-1
 434 954 l 1,63,-1
 434 928 l 1,64,-1
 399 928 l 2,65,66
 366 928 366 928 335 913 c 0,67,68
 314 901 314 901 305 878 c 0,69,70
 297 855 297 855 297 785 c 2,71,-1
 297 512 l 1,0,-1
EndSplineSet
EndChar

StartChar: I
Encoding: 73 73 498
Width: 481
Flags: W
LayerCount: 2
Fore
SplineSet
446 26 m 1,0,-1
 446 0 l 1,1,-1
 36 0 l 1,2,-1
 36 26 l 1,3,-1
 70 26 l 2,4,5
 129 26 129 26 156 61 c 0,6,7
 173 82 173 82 173 169 c 2,8,-1
 173 786 l 2,9,10
 173 858 173 858 164 882 c 0,11,12
 157 899 157 899 134 912 c 0,13,14
 104 928 104 928 70 928 c 2,15,-1
 36 928 l 1,16,-1
 36 954 l 1,17,-1
 446 954 l 1,18,-1
 446 928 l 1,19,-1
 410 928 l 2,20,21
 352 928 352 928 326 894 c 0,22,23
 308 871 308 871 308 786 c 2,24,-1
 308 169 l 2,25,26
 308 97 308 97 317 73 c 0,27,28
 324 55 324 55 346 43 c 0,29,30
 377 26 377 26 410 26 c 2,31,-1
 446 26 l 1,0,-1
EndSplineSet
EndChar

StartChar: J
Encoding: 74 74 499
Width: 562
Flags: W
LayerCount: 2
Fore
SplineSet
143 928 m 1,0,-1
 143 954 l 1,1,-1
 553 954 l 1,2,-1
 553 928 l 1,3,-1
 518 928 l 2,4,5
 459 928 459 928 433 894 c 0,6,7
 416 871 416 871 416 786 c 2,8,-1
 416 318 l 2,9,10
 416 211 416 211 392.5 144.5 c 128,-1,11
 369 78 369 78 311.5 28 c 128,-1,12
 254 -22 254 -22 172 -22 c 0,13,14
 106 -22 106 -22 68 11 c 128,-1,15
 30 44 30 44 30 86 c 0,16,17
 30 121 30 121 47 138 c 0,18,19
 70 160 70 160 102 160 c 0,20,21
 124 160 124 160 142 145 c 128,-1,22
 160 130 160 130 187 66 c 0,23,24
 203 28 203 28 229 28 c 0,25,26
 248 28 248 28 264.5 51.5 c 128,-1,27
 281 75 281 75 281 134 c 2,28,-1
 281 786 l 2,29,30
 281 858 281 858 272 882 c 0,31,32
 265 899 265 899 242 912 c 0,33,34
 212 928 212 928 178 928 c 2,35,-1
 143 928 l 1,0,-1
EndSplineSet
EndChar

StartChar: K
Encoding: 75 75 500
Width: 1041
Flags: W
LayerCount: 2
Fore
SplineSet
431 530 m 1,0,-1
 783 179 l 2,1,2
 870 94 870 94 931 62 c 128,-1,3
 992 30 992 30 1054 26 c 1,4,-1
 1054 0 l 1,5,-1
 599 0 l 1,6,-1
 599 26 l 1,7,8
 640 26 640 26 658 40 c 128,-1,9
 676 54 676 54 676 70 c 0,10,11
 676 87 676 87 669 100.5 c 128,-1,12
 662 114 662 114 625 150 c 2,13,-1
 296 477 l 1,14,-1
 296 169 l 2,15,16
 296 97 296 97 305 73 c 0,17,18
 311 55 311 55 334 43 c 0,19,20
 364 26 364 26 398 26 c 2,21,-1
 431 26 l 1,22,-1
 431 0 l 1,23,-1
 24 0 l 1,24,-1
 24 26 l 1,25,-1
 58 26 l 2,26,27
 117 26 117 26 143 61 c 0,28,29
 160 82 160 82 160 169 c 2,30,-1
 160 786 l 2,31,32
 160 858 160 858 151 882 c 0,33,34
 144 899 144 899 122 912 c 0,35,36
 91 928 91 928 58 928 c 2,37,-1
 24 928 l 1,38,-1
 24 954 l 1,39,-1
 431 954 l 1,40,-1
 431 928 l 1,41,-1
 398 928 l 2,42,43
 366 928 366 928 334 913 c 0,44,45
 313 901 313 901 304.5 878.5 c 128,-1,46
 296 856 296 856 296 786 c 2,47,-1
 296 494 l 1,48,49
 310 507 310 507 393 582 c 0,50,51
 601 774 601 774 645 838 c 0,52,53
 663 866 663 866 663 888 c 0,54,55
 663 904 663 904 648.5 916 c 128,-1,56
 634 928 634 928 599 928 c 2,57,-1
 578 928 l 1,58,-1
 578 954 l 1,59,-1
 927 954 l 1,60,-1
 927 928 l 1,61,62
 897 927 897 927 871.5 920 c 128,-1,63
 846 913 846 913 809.5 890.5 c 128,-1,64
 773 868 773 868 720 818 c 0,65,66
 704 804 704 804 577 674 c 2,67,-1
 431 530 l 1,0,-1
EndSplineSet
EndChar

StartChar: L
Encoding: 76 76 501
Width: 881
Flags: W
LayerCount: 2
Fore
SplineSet
826 264 m 1,0,-1
 850 258 l 1,1,-1
 768 0 l 1,2,-1
 29 0 l 1,3,-1
 29 26 l 1,4,-1
 65 26 l 2,5,6
 125 26 125 26 151 65 c 0,7,8
 166 88 166 88 166 170 c 2,9,-1
 166 786 l 2,10,11
 166 874 166 874 146 898 c 0,12,13
 118 928 118 928 65 928 c 2,14,-1
 29 928 l 1,15,-1
 29 954 l 1,16,-1
 461 954 l 1,17,-1
 461 928 l 1,18,19
 386 930 386 930 355 914.5 c 128,-1,20
 324 899 324 899 312.5 876.5 c 128,-1,21
 301 854 301 854 301 769 c 2,22,-1
 301 170 l 2,23,24
 301 111 301 111 313 90 c 0,25,26
 322 75 322 75 339.5 68 c 128,-1,27
 357 61 357 61 449 61 c 2,28,-1
 518 61 l 2,29,30
 628 61 628 61 672 77.5 c 128,-1,31
 716 94 716 94 753 134.5 c 128,-1,32
 790 175 790 175 826 264 c 1,0,-1
EndSplineSet
EndChar

StartChar: M
Encoding: 77 77 502
Width: 1282
Flags: W
LayerCount: 2
Fore
SplineSet
590 0 m 1,0,-1
 221 803 l 1,1,-1
 221 166 l 2,2,3
 221 78 221 78 240 55 c 0,4,5
 266 26 266 26 322 26 c 2,6,-1
 357 26 l 1,7,-1
 357 0 l 1,8,-1
 24 0 l 1,9,-1
 24 26 l 1,10,-1
 58 26 l 2,11,12
 118 26 118 26 143 62 c 0,13,14
 159 86 159 86 159 166 c 2,15,-1
 159 790 l 2,16,17
 159 853 159 853 146 881 c 0,18,19
 135 901 135 901 108.5 914.5 c 128,-1,20
 82 928 82 928 24 928 c 1,21,-1
 24 954 l 1,22,-1
 294 954 l 1,23,-1
 641 208 l 1,24,-1
 981 954 l 1,25,-1
 1251 954 l 1,26,-1
 1251 928 l 1,27,-1
 1219 928 l 2,28,29
 1158 928 1158 928 1132 892 c 0,30,31
 1117 870 1117 870 1117 790 c 2,32,-1
 1117 166 l 2,33,34
 1117 78 1117 78 1136 55 c 0,35,36
 1162 26 1162 26 1219 26 c 2,37,-1
 1251 26 l 1,38,-1
 1251 0 l 1,39,-1
 846 0 l 1,40,-1
 846 26 l 1,41,-1
 880 26 l 2,42,43
 942 26 942 26 966 62 c 0,44,45
 981 86 981 86 981 166 c 2,46,-1
 981 803 l 1,47,-1
 614 0 l 1,48,-1
 590 0 l 1,0,-1
EndSplineSet
EndChar

StartChar: N
Encoding: 78 78 503
Width: 1041
Flags: W
LayerCount: 2
Fore
SplineSet
-19 954 m 1,0,-1
 240 954 l 1,1,-1
 824 238 l 1,2,-1
 824 790 l 2,3,4
 824 878 824 878 804 899 c 0,5,6
 778 928 778 928 722 928 c 2,7,-1
 688 928 l 1,8,-1
 688 954 l 1,9,-1
 1021 954 l 1,10,-1
 1021 928 l 1,11,-1
 987 928 l 2,12,13
 926 928 926 928 901 892 c 0,14,15
 886 870 886 870 886 790 c 2,16,-1
 886 -16 l 1,17,-1
 861 -16 l 1,18,-1
 230 754 l 1,19,-1
 230 166 l 2,20,21
 230 78 230 78 250 55 c 0,22,23
 276 26 276 26 333 26 c 2,24,-1
 366 26 l 1,25,-1
 366 0 l 1,26,-1
 34 0 l 1,27,-1
 34 26 l 1,28,-1
 67 26 l 2,29,30
 129 26 129 26 153 62 c 0,31,32
 169 86 169 86 169 166 c 2,33,-1
 169 829 l 1,34,35
 127 878 127 878 106 893.5 c 128,-1,36
 85 909 85 909 43 922 c 0,37,38
 23 928 23 928 -19 928 c 1,39,-1
 -19 954 l 1,0,-1
EndSplineSet
EndChar

StartChar: O
Encoding: 79 79 504
Width: 1041
Flags: W
LayerCount: 2
Fore
SplineSet
527 977 m 0,0,1
 713 977 713 977 849.5 835.5 c 128,-1,2
 986 694 986 694 986 483 c 0,3,4
 986 266 986 266 848.5 122 c 128,-1,5
 711 -22 711 -22 516 -22 c 0,6,7
 318 -22 318 -22 184.5 118 c 128,-1,8
 51 258 51 258 51 481 c 0,9,10
 51 709 51 709 206 852 c 0,11,12
 340 977 340 977 527 977 c 0,0,1
514 925 m 0,13,14
 386 925 386 925 308 830 c 0,15,16
 212 712 212 712 212 484 c 0,17,18
 212 250 212 250 311 124 c 0,19,20
 389 28 389 28 514 28 c 0,21,22
 650 28 650 28 737.5 133 c 128,-1,23
 825 238 825 238 825 464 c 0,24,25
 825 710 825 710 728 829 c 0,26,27
 650 925 650 925 514 925 c 0,13,14
EndSplineSet
EndChar

StartChar: P
Encoding: 80 80 505
Width: 802
Flags: W
LayerCount: 2
Fore
SplineSet
296 447 m 1,0,-1
 296 169 l 2,1,2
 296 79 296 79 315 57 c 0,3,4
 342 26 342 26 396 26 c 2,5,-1
 433 26 l 1,6,-1
 433 0 l 1,7,-1
 24 0 l 1,8,-1
 24 26 l 1,9,-1
 60 26 l 2,10,11
 121 26 121 26 146 65 c 0,12,13
 160 87 160 87 160 169 c 2,14,-1
 160 786 l 2,15,16
 160 875 160 875 142 898 c 0,17,18
 114 928 114 928 60 928 c 2,19,-1
 24 928 l 1,20,-1
 24 954 l 1,21,-1
 374 954 l 2,22,23
 502 954 502 954 576 928 c 128,-1,24
 650 902 650 902 700.5 839 c 128,-1,25
 751 776 751 776 751 691 c 0,26,27
 751 574 751 574 674 501 c 128,-1,28
 597 428 597 428 456 428 c 0,29,30
 422 428 422 428 382 433 c 128,-1,31
 342 438 342 438 296 447 c 1,0,-1
296 487 m 1,32,33
 333 481 333 481 361.5 477.5 c 128,-1,34
 390 474 390 474 411 474 c 0,35,36
 484 474 484 474 537 530 c 128,-1,37
 590 586 590 586 590 677 c 0,38,39
 590 738 590 738 565 791.5 c 128,-1,40
 540 845 540 845 493.5 871.5 c 128,-1,41
 447 898 447 898 388 898 c 0,42,43
 352 898 352 898 296 884 c 1,44,-1
 296 487 l 1,32,33
EndSplineSet
EndChar

StartChar: Q
Encoding: 81 81 506
Width: 1041
Flags: W
LayerCount: 2
Fore
SplineSet
635 -10 m 1,0,1
 706 -134 706 -134 790 -193 c 128,-1,2
 874 -252 874 -252 980 -260 c 1,3,-1
 980 -282 l 1,4,5
 882 -279 882 -279 772 -243.5 c 128,-1,6
 662 -208 662 -208 563 -145 c 128,-1,7
 464 -82 464 -82 393 -10 c 1,8,9
 290 30 290 30 231 76 c 0,10,11
 146 144 146 144 98.5 243.5 c 128,-1,12
 51 343 51 343 51 479 c 0,13,14
 51 694 51 694 189.5 835.5 c 128,-1,15
 328 977 328 977 526 977 c 0,16,17
 713 977 713 977 849.5 835 c 128,-1,18
 986 693 986 693 986 477 c 0,19,20
 986 301 986 301 888.5 169 c 128,-1,21
 791 37 791 37 635 -10 c 1,0,1
517 922 m 0,22,23
 389 922 389 922 310 830 c 0,24,25
 212 716 212 716 212 479 c 0,26,27
 212 248 212 248 311 122 c 0,28,29
 389 26 389 26 517 26 c 0,30,31
 650 26 650 26 730 122 c 0,32,33
 826 237 826 237 826 459 c 0,34,35
 826 630 826 630 773 747 c 0,36,37
 733 837 733 837 666.5 879.5 c 128,-1,38
 600 922 600 922 517 922 c 0,22,23
EndSplineSet
EndChar

StartChar: R
Encoding: 82 82 507
Width: 962
Flags: W
LayerCount: 2
Fore
SplineSet
974 0 m 1,0,-1
 720 0 l 1,1,-1
 396 446 l 1,2,3
 361 446 361 446 338 446 c 0,4,5
 329 446 329 446 318.5 446 c 128,-1,6
 308 446 308 446 297 446 c 1,7,-1
 297 169 l 2,8,9
 297 79 297 79 316 57 c 0,10,11
 343 26 343 26 396 26 c 2,12,-1
 434 26 l 1,13,-1
 434 0 l 1,14,-1
 25 0 l 1,15,-1
 25 26 l 1,16,-1
 61 26 l 2,17,18
 122 26 122 26 147 65 c 0,19,20
 162 87 162 87 162 169 c 2,21,-1
 162 786 l 2,22,23
 162 875 162 875 142 898 c 0,24,25
 114 928 114 928 61 928 c 2,26,-1
 25 928 l 1,27,-1
 25 954 l 1,28,-1
 372 954 l 2,29,30
 525 954 525 954 597 932 c 128,-1,31
 669 910 669 910 719 850.5 c 128,-1,32
 769 791 769 791 769 710 c 0,33,34
 769 622 769 622 711.5 556.5 c 128,-1,35
 654 491 654 491 534 465 c 1,36,-1
 731 191 l 2,37,38
 799 97 799 97 847.5 65.5 c 128,-1,39
 896 34 896 34 974 26 c 1,40,-1
 974 0 l 1,0,-1
297 491 m 1,41,42
 310 491 310 491 319.5 490.5 c 128,-1,43
 329 490 329 490 336 490 c 0,44,45
 473 490 473 490 541.5 549 c 128,-1,46
 610 608 610 608 610 700 c 0,47,48
 610 790 610 790 554.5 845.5 c 128,-1,49
 499 901 499 901 406 901 c 0,50,51
 366 901 366 901 297 888 c 1,52,-1
 297 491 l 1,41,42
EndSplineSet
EndChar

StartChar: S
Encoding: 83 83 508
Width: 802
Flags: W
LayerCount: 2
Fore
SplineSet
661 977 m 1,0,-1
 661 646 l 1,1,-1
 635 646 l 1,2,3
 622 741 622 741 589.5 797.5 c 128,-1,4
 557 854 557 854 496 887.5 c 128,-1,5
 435 921 435 921 371 921 c 0,6,7
 298 921 298 921 250 875.5 c 128,-1,8
 202 830 202 830 202 774 c 0,9,10
 202 730 202 730 232 694 c 0,11,12
 276 642 276 642 440 554 c 0,13,14
 574 482 574 482 622.5 443.5 c 128,-1,15
 671 405 671 405 697.5 353 c 128,-1,16
 724 301 724 301 724 244 c 0,17,18
 724 135 724 135 640 56.5 c 128,-1,19
 556 -22 556 -22 424 -22 c 0,20,21
 382 -22 382 -22 346 -16 c 0,22,23
 324 -12 324 -12 255 10.5 c 128,-1,24
 186 33 186 33 168 33 c 256,25,26
 150 33 150 33 140 22 c 128,-1,27
 130 11 130 11 125 -22 c 1,28,-1
 99 -22 l 1,29,-1
 99 306 l 1,30,-1
 125 306 l 1,31,32
 143 202 143 202 174.5 151 c 128,-1,33
 206 100 206 100 269.5 67 c 128,-1,34
 333 34 333 34 410 34 c 0,35,36
 497 34 497 34 548 80 c 128,-1,37
 599 126 599 126 599 190 c 0,38,39
 599 224 599 224 580 260.5 c 128,-1,40
 561 297 561 297 519 327 c 0,41,42
 492 349 492 349 369.5 417.5 c 128,-1,43
 247 486 247 486 195 527 c 128,-1,44
 143 568 143 568 116.5 617 c 128,-1,45
 90 666 90 666 90 725 c 0,46,47
 90 828 90 828 169 902.5 c 128,-1,48
 248 977 248 977 370 977 c 0,49,50
 446 977 446 977 530 939 c 0,51,52
 570 922 570 922 586 922 c 0,53,54
 605 922 605 922 616.5 932.5 c 128,-1,55
 628 943 628 943 635 977 c 1,56,-1
 661 977 l 1,0,-1
EndSplineSet
EndChar

StartChar: T
Encoding: 84 84 509
Width: 881
Flags: W
LayerCount: 2
Fore
SplineSet
834 954 m 1,0,-1
 845 730 l 1,1,-1
 818 730 l 1,2,3
 810 790 810 790 798 815 c 0,4,5
 775 856 775 856 738.5 875.5 c 128,-1,6
 702 895 702 895 643 895 c 2,7,-1
 509 895 l 1,8,-1
 509 166 l 2,9,10
 509 78 509 78 528 55 c 0,11,12
 554 26 554 26 610 26 c 2,13,-1
 643 26 l 1,14,-1
 643 0 l 1,15,-1
 238 0 l 1,16,-1
 238 26 l 1,17,-1
 273 26 l 2,18,19
 333 26 333 26 358 62 c 0,20,21
 374 86 374 86 374 166 c 2,22,-1
 374 895 l 1,23,-1
 258 895 l 2,24,25
 192 895 192 895 164 886 c 0,26,27
 127 871 127 871 101.5 833 c 128,-1,28
 76 795 76 795 70 730 c 1,29,-1
 44 730 l 1,30,-1
 54 954 l 1,31,-1
 834 954 l 1,0,-1
EndSplineSet
EndChar

StartChar: U
Encoding: 85 85 510
Width: 1041
Flags: W
LayerCount: 2
Fore
SplineSet
688 928 m 1,0,-1
 688 954 l 1,1,-1
 1026 954 l 1,2,-1
 1026 928 l 1,3,-1
 990 928 l 2,4,5
 934 928 934 928 903 882 c 0,6,7
 889 860 889 860 889 780 c 2,8,-1
 889 393 l 2,9,10
 889 249 889 249 860 169.5 c 128,-1,11
 831 90 831 90 748 33.5 c 128,-1,12
 665 -23 665 -23 521 -23 c 0,13,14
 364 -23 364 -23 283 31.5 c 128,-1,15
 202 86 202 86 169 178 c 0,16,17
 146 240 146 240 146 413 c 2,18,-1
 146 786 l 2,19,20
 146 874 146 874 122 901 c 128,-1,21
 98 928 98 928 44 928 c 2,22,-1
 8 928 l 1,23,-1
 8 954 l 1,24,-1
 421 954 l 1,25,-1
 421 928 l 1,26,-1
 384 928 l 2,27,28
 325 928 325 928 299 891 c 0,29,30
 282 866 282 866 282 786 c 2,31,-1
 282 370 l 2,32,33
 282 314 282 314 292 242 c 128,-1,34
 302 170 302 170 328.5 130 c 128,-1,35
 355 90 355 90 405.5 64 c 128,-1,36
 456 38 456 38 530 38 c 0,37,38
 623 38 623 38 697 79 c 128,-1,39
 771 120 771 120 798.5 183.5 c 128,-1,40
 826 247 826 247 826 399 c 2,41,-1
 826 786 l 2,42,43
 826 874 826 874 806 898 c 0,44,45
 778 928 778 928 723 928 c 2,46,-1
 688 928 l 1,0,-1
EndSplineSet
EndChar

StartChar: V
Encoding: 86 86 511
Width: 1041
Flags: W
LayerCount: 2
Fore
SplineSet
1023 954 m 1,0,-1
 1023 928 l 1,1,2
 974 919 974 919 947 896 c 0,3,4
 910 862 910 862 881 790 c 2,5,-1
 547 -22 l 1,6,-1
 522 -22 l 1,7,-1
 164 801 l 2,8,9
 136 864 136 864 125 878 c 0,10,11
 107 900 107 900 81.5 912.5 c 128,-1,12
 56 925 56 925 12 928 c 1,13,-1
 12 954 l 1,14,-1
 403 954 l 1,15,-1
 403 928 l 1,16,17
 336 922 336 922 317 906 c 128,-1,18
 298 890 298 890 298 864 c 0,19,20
 298 829 298 829 329 755 c 2,21,-1
 572 195 l 1,22,-1
 798 748 l 2,23,24
 830 829 830 829 830 861 c 0,25,26
 830 882 830 882 810 900 c 128,-1,27
 790 918 790 918 741 926 c 0,28,29
 738 927 738 927 730 928 c 1,30,-1
 730 954 l 1,31,-1
 1023 954 l 1,0,-1
EndSplineSet
EndChar

